<?xml version="1.0" encoding="UTF-8" standalone="no"?>
<svg width="609.6mm" height="2330.45mm"
 viewBox="0 0 2304 8808"
 xmlns="http://www.w3.org/2000/svg" xmlns:xlink="http://www.w3.org/1999/xlink"  version="1.2" baseProfile="tiny">
<title>Valentina. Pattern layout</title>
<defs>
</defs>
<g fill="none" stroke="black" stroke-width="1" fill-rule="evenodd" stroke-linecap="square" stroke-linejoin="bevel" >

<g fill="none" stroke="#000000" stroke-opacity="1" stroke-width="1.51181" stroke-linecap="round" stroke-linejoin="round" transform="matrix(1,0,0,1,0,0)"
font-family="Arial" font-size="10.6667" font-weight="400" font-style="normal" 
>
</g>

<g fill="none" stroke="#000000" stroke-opacity="1" stroke-width="1.51181" stroke-linecap="round" stroke-linejoin="round" transform="matrix(1,0,0,1,0,0)"
font-family="Arial" font-size="10.6667" font-weight="400" font-style="normal" 
>
</g>

<g fill="none" stroke="#000000" stroke-opacity="1" stroke-width="1.51181" stroke-linecap="round" stroke-linejoin="round" transform="matrix(1,0,0,1,0,0)"
font-family="Arial" font-size="10.6667" font-weight="400" font-style="normal" 
>
</g>

<g fill="none" stroke="#000000" stroke-opacity="1" stroke-width="1" stroke-linecap="square" stroke-linejoin="bevel" transform="matrix(1,0,0,1,0,0)"
font-family="Arial" font-size="10.6667" font-weight="400" font-style="normal" 
>
<path vector-effect="none" fill-rule="nonzero" d="M2299,8750 L976,8750 L976,8561 L787,8552 L1165,237 L1354,246 L1354,57 L2299,57 L2299,8750 M2299,0 L2299,8807 L919,8807 L919,8615 L728,8606 L1111,178 L1297,187 L1297,0 L2299,0"/>
</g>

<g fill="none" stroke="#000000" stroke-opacity="1" stroke-width="1.51181" stroke-linecap="round" stroke-linejoin="round" transform="matrix(1,0,0,1,0,0)"
font-family="Arial" font-size="10.6667" font-weight="400" font-style="normal" 
>
</g>

<g fill="none" stroke="#000000" stroke-opacity="1" stroke-width="1.51181" stroke-linecap="round" stroke-linejoin="round" transform="matrix(1,0,0,1,0,0)"
font-family="Arial" font-size="10.6667" font-weight="400" font-style="normal" 
>
</g>

<g fill="none" stroke="#000000" stroke-opacity="1" stroke-width="1" stroke-linecap="square" stroke-linejoin="bevel" transform="matrix(1,0,0,1,0,0)"
font-family="Arial" font-size="10.6667" font-weight="400" font-style="normal" 
>
<path vector-effect="none" fill-rule="nonzero" d="M2299,8560.96 L976.165,8560.96 L1354.12,246 L2299,246 L2299,8560.96"/>
</g>

<g fill="none" stroke="#000000" stroke-opacity="1" stroke-width="1.51181" stroke-linecap="round" stroke-linejoin="round" transform="matrix(1,0,0,1,0,0)"
font-family="Arial" font-size="10.6667" font-weight="400" font-style="normal" 
>
</g>

<g fill="none" stroke="#000000" stroke-opacity="1" stroke-width="1.51181" stroke-linecap="round" stroke-linejoin="round" transform="matrix(1,0,0,1,0,0)"
font-family="Arial" font-size="10.6667" font-weight="400" font-style="normal" 
>
</g>

<g fill="none" stroke="#000000" stroke-opacity="1" stroke-width="1" stroke-linecap="square" stroke-linejoin="bevel" transform="matrix(1,0,0,1,0,0)"
font-family="Arial" font-size="10.6667" font-weight="400" font-style="normal" 
>
<path vector-effect="none" fill-rule="nonzero" d="M2299,8560.96 L2299,246 L2299,8560.96"/>
</g>

<g fill="none" stroke="#000000" stroke-opacity="1" stroke-width="1.51181" stroke-linecap="round" stroke-linejoin="round" transform="matrix(1,0,0,1,0,0)"
font-family="Arial" font-size="10.6667" font-weight="400" font-style="normal" 
>
</g>

<g fill="none" stroke="#000000" stroke-opacity="1" stroke-width="1.51181" stroke-linecap="round" stroke-linejoin="round" transform="matrix(1,0,0,1,0,0)"
font-family="Arial" font-size="10.6667" font-weight="400" font-style="normal" 
>
</g>

<g fill="#000000" fill-opacity="1" stroke="#000000" stroke-opacity="1" stroke-width="1" stroke-linecap="square" stroke-linejoin="bevel" transform="matrix(1,0,0,1,0,0)"
font-family="Arial" font-size="10.6667" font-weight="400" font-style="normal" 
>
<path vector-effect="none" fill-rule="evenodd" d="M1728.64,2776.53 C1728.64,2782.3 1733.25,2785.22 1740.22,2785.22 L1751.64,2785.22 L1751.64,2752 L1741.03,2752 C1735.42,2752 1731.53,2752.91 1729.31,2754.73 C1727.11,2756.56 1725.95,2758.62 1725.95,2761.12 C1725.95,2765.69 1728.98,2769 1732.88,2769.81 C1729.94,2771.02 1728.64,2773.66 1728.64,2776.53 M1741.31,2779.8 C1737.19,2779.8 1734.45,2779.12 1734.45,2776.14 C1734.45,2772.98 1737.33,2772.25 1741.31,2772.25 L1745.73,2772.25 L1745.73,2779.8 L1741.31,2779.8 M1741.75,2766.83 C1736.61,2766.83 1731.91,2766.16 1731.91,2762.22 C1731.91,2757.72 1736.61,2757.42 1741.75,2757.42 L1745.73,2757.42 L1745.73,2766.83 L1741.75,2766.83 M1712.53,2751.52 C1709.22,2751.52 1707.62,2752.34 1705.09,2753.69 L1704.17,2752 L1700.14,2752 L1700.14,2775.09 L1706.05,2775.09 L1706.05,2757.91 C1707.58,2757 1709.17,2756.52 1710.84,2756.52 C1713.92,2756.52 1715.12,2758.53 1715.12,2761.31 L1715.12,2775.09 L1721.03,2775.09 L1721.03,2762.12 C1721.03,2755.75 1719.3,2751.52 1712.53,2751.52 "/>
</g>

<g fill="none" stroke="#000000" stroke-opacity="1" stroke-width="1.51181" stroke-linecap="round" stroke-linejoin="round" transform="matrix(1,0,0,1,0,0)"
font-family="Arial" font-size="10.6667" font-weight="400" font-style="normal" 
>
</g>

<g fill="none" stroke="#000000" stroke-opacity="1" stroke-width="1.51181" stroke-linecap="round" stroke-linejoin="round" transform="matrix(1,0,0,1,0,0)"
font-family="Arial" font-size="10.6667" font-weight="400" font-style="normal" 
>
</g>

<g fill="#000000" fill-opacity="1" stroke="#000000" stroke-opacity="1" stroke-width="1" stroke-linecap="square" stroke-linejoin="bevel" transform="matrix(1,0,0,1,0,0)"
font-family="Arial" font-size="10.6667" font-weight="400" font-style="normal" 
>
<path vector-effect="none" fill-rule="evenodd" d="M1772.34,2717.48 C1772.34,2722.77 1776.56,2725.45 1782.95,2725.45 L1793.42,2725.45 L1793.42,2695 L1783.69,2695 C1778.55,2695 1774.98,2695.84 1772.95,2697.52 C1770.94,2699.19 1769.88,2701.08 1769.88,2703.36 C1769.88,2707.55 1772.66,2710.58 1776.22,2711.33 C1773.53,2712.42 1772.34,2714.84 1772.34,2717.48 M1783.95,2720.48 C1780.17,2720.48 1777.67,2719.86 1777.67,2717.14 C1777.67,2714.23 1780.31,2713.58 1783.95,2713.58 L1788,2713.58 L1788,2720.48 L1783.95,2720.48 M1784.36,2708.59 C1779.64,2708.59 1775.33,2707.98 1775.33,2704.38 C1775.33,2700.23 1779.64,2699.97 1784.36,2699.97 L1788,2699.97 L1788,2708.59 L1784.36,2708.59 M1757.98,2694.56 C1754.95,2694.56 1753.5,2695.31 1751.16,2696.55 L1750.33,2695 L1746.62,2695 L1746.62,2716.17 L1752.05,2716.17 L1752.05,2700.41 C1753.45,2699.58 1754.91,2699.14 1756.44,2699.14 C1759.27,2699.14 1760.36,2700.98 1760.36,2703.53 L1760.36,2716.17 L1765.77,2716.17 L1765.77,2704.28 C1765.77,2698.44 1764.19,2694.56 1757.98,2694.56 M1725.41,2695.75 L1726.2,2699.48 C1727,2699.27 1728.62,2698.88 1730.12,2698.88 C1733.03,2698.88 1733.69,2700.33 1733.69,2701.95 L1733.69,2711.94 L1726.38,2711.94 L1726.38,2716.17 L1733.69,2716.17 L1733.69,2722.81 L1739.09,2722.81 L1739.09,2716.17 L1742.62,2716.17 L1742.62,2711.94 L1739.09,2711.94 L1739.09,2701.83 C1739.09,2698.08 1738.17,2694.56 1731.44,2694.56 C1729.42,2694.56 1726.91,2695.17 1725.41,2695.75 M1706.41,2695.75 L1707.2,2699.48 C1708,2699.27 1709.62,2698.88 1711.12,2698.88 C1714.03,2698.88 1714.69,2700.33 1714.69,2701.95 L1714.69,2711.94 L1707.38,2711.94 L1707.38,2716.17 L1714.69,2716.17 L1714.69,2722.81 L1720.09,2722.81 L1720.09,2716.17 L1723.62,2716.17 L1723.62,2711.94 L1720.09,2711.94 L1720.09,2701.83 C1720.09,2698.08 1719.17,2694.56 1712.44,2694.56 C1710.42,2694.56 1707.91,2695.17 1706.41,2695.75 M1692.83,2694.56 C1686.14,2694.56 1681.73,2699.05 1681.73,2705.69 C1681.73,2712.3 1686.05,2716.66 1692.73,2716.66 C1699.52,2716.66 1703.83,2712.34 1703.83,2705.61 C1703.83,2699 1699.52,2694.56 1692.83,2694.56 M1692.83,2712.47 C1689.17,2712.47 1687.16,2709.44 1687.16,2705.61 C1687.16,2701.73 1689.05,2698.78 1692.83,2698.78 C1696.44,2698.78 1698.42,2701.86 1698.42,2705.61 C1698.42,2709.3 1696.44,2712.47 1692.83,2712.47 M1657.92,2707.19 C1657.92,2712.95 1659.69,2716.66 1665.72,2716.66 C1668.09,2716.66 1670.55,2716.03 1673.02,2714.8 L1673.81,2716.17 L1677.59,2716.17 L1677.59,2695 L1672.19,2695 L1672.19,2710.94 C1670.03,2711.72 1668.36,2712.12 1667.12,2712.12 C1664.48,2712.12 1663.34,2710.31 1663.34,2707.84 L1663.34,2695 L1657.92,2695 L1657.92,2707.19"/>
</g>

<g fill="none" stroke="#000000" stroke-opacity="1" stroke-width="1.51181" stroke-linecap="round" stroke-linejoin="round" transform="matrix(1,0,0,1,0,0)"
font-family="Arial" font-size="10.6667" font-weight="400" font-style="normal" 
>
</g>

<g fill="none" stroke="#000000" stroke-opacity="1" stroke-width="1.51181" stroke-linecap="round" stroke-linejoin="round" transform="matrix(1,0,0,1,0,0)"
font-family="Arial" font-size="10.6667" font-weight="400" font-style="normal" 
>
</g>

<g fill="#000000" fill-opacity="1" stroke="#000000" stroke-opacity="1" stroke-width="1" stroke-linecap="square" stroke-linejoin="bevel" transform="matrix(1,0,0,1,0,0)"
font-family="Arial" font-size="10.6667" font-weight="400" font-style="normal" 
>
<path vector-effect="none" fill-rule="evenodd" d="M1906.39,2661.38 C1906.39,2667.59 1910.27,2670.06 1916.69,2670.06 L1925.92,2670.06 L1925.92,2641 L1922.44,2641 L1922.44,2652.97 L1918.88,2652.97 C1911.69,2652.97 1906.39,2654.66 1906.39,2661.38 M1918.58,2656.03 L1922.44,2656.03 L1922.44,2667 L1918.58,2667 C1913.53,2667 1909.92,2666.33 1909.92,2661.58 C1909.92,2656.62 1913.58,2656.03 1918.58,2656.03 M1890.22,2640.58 C1882.36,2640.58 1879.05,2644.41 1879.05,2652.27 L1879.05,2670.06 L1882.53,2670.06 L1882.53,2651.38 C1882.53,2646.38 1885.05,2643.64 1890.22,2643.64 C1895.39,2643.64 1897.91,2646.3 1897.91,2651.38 L1897.91,2670.06 L1901.34,2670.06 L1901.34,2652.27 C1901.34,2644.41 1898.08,2640.58 1890.22,2640.58 M1852.69,2651.38 L1856.39,2651.38 L1856.39,2670.06 L1861.64,2670.06 L1873.95,2650.66 L1873.95,2648.31 L1859.88,2648.31 L1859.88,2640.92 L1856.39,2640.92 L1856.39,2648.31 L1852.69,2648.31 L1852.69,2651.38 M1869.75,2651.38 L1859.88,2666.58 L1859.88,2651.38 L1869.75,2651.38 M1839.31,2670.66 C1846.25,2670.66 1849.48,2663.64 1849.48,2655.62 C1849.48,2647.59 1846.25,2640.58 1839.31,2640.58 C1832.47,2640.58 1829.41,2647.64 1829.41,2655.62 C1829.41,2663.77 1832.34,2670.66 1839.31,2670.66 M1839.41,2643.64 C1844.31,2643.64 1845.91,2649.56 1845.91,2655.62 C1845.91,2661.67 1844.31,2667.59 1839.41,2667.59 C1834.48,2667.59 1832.89,2661.67 1832.89,2655.62 C1832.89,2649.56 1834.48,2643.64 1839.41,2643.64 M1815.31,2670.66 C1822.25,2670.66 1825.48,2663.64 1825.48,2655.62 C1825.48,2647.59 1822.25,2640.58 1815.31,2640.58 C1808.47,2640.58 1805.41,2647.64 1805.41,2655.62 C1805.41,2663.77 1808.34,2670.66 1815.31,2670.66 M1815.41,2643.64 C1820.31,2643.64 1821.91,2649.56 1821.91,2655.62 C1821.91,2661.67 1820.31,2667.59 1815.41,2667.59 C1810.48,2667.59 1808.89,2661.67 1808.89,2655.62 C1808.89,2649.56 1810.48,2643.64 1815.41,2643.64 M1791.31,2670.66 C1798.25,2670.66 1801.48,2663.64 1801.48,2655.62 C1801.48,2647.59 1798.25,2640.58 1791.31,2640.58 C1784.47,2640.58 1781.41,2647.64 1781.41,2655.62 C1781.41,2663.77 1784.34,2670.66 1791.31,2670.66 M1791.41,2643.64 C1796.31,2643.64 1797.91,2649.56 1797.91,2655.62 C1797.91,2661.67 1796.31,2667.59 1791.41,2667.59 C1786.48,2667.59 1784.89,2661.67 1784.89,2655.62 C1784.89,2649.56 1786.48,2643.64 1791.41,2643.64 M1773.95,2645.62 C1775.47,2645.62 1776.52,2644.53 1776.52,2643.06 C1776.52,2641.84 1775.97,2641 1774.75,2640.58 C1775.3,2639.45 1776.02,2638.02 1776.98,2636.34 L1775.64,2635.45 C1773.78,2637.02 1771.31,2639.53 1771.31,2642.59 C1771.31,2644.31 1772.31,2645.62 1773.95,2645.62 M1745.56,2640.58 C1743.72,2640.58 1741.75,2640.95 1739.69,2641.75 L1740.48,2644.16 C1741.75,2643.69 1743.05,2643.44 1744.39,2643.44 C1749.39,2643.44 1752,2646.08 1752,2651.55 C1752,2656.3 1749.56,2658.86 1744.69,2658.86 C1743.14,2658.86 1741.75,2658.59 1740.48,2658.06 L1739.64,2660.62 C1741.38,2661.38 1743.14,2661.75 1744.86,2661.75 C1751.7,2661.75 1755.48,2657.34 1755.48,2650.91 C1755.48,2644.48 1751.95,2640.58 1745.56,2640.58 M1732.08,2648.44 L1732.08,2661.25 L1735.56,2661.25 L1735.56,2647.59 C1735.56,2643.31 1733.17,2640.58 1728.88,2640.58 C1726.7,2640.58 1724.34,2641.3 1721.73,2642.64 L1720.94,2641 L1718.55,2641 L1718.55,2661.25 L1722.03,2661.25 L1722.03,2645.03 C1724.09,2644.06 1725.94,2643.56 1727.62,2643.56 C1730.98,2643.56 1732.08,2645.03 1732.08,2648.44 M1705.59,2640.58 C1704.16,2640.58 1702.73,2640.92 1701.17,2641.5 L1701.84,2643.94 C1702.44,2643.73 1703.36,2643.48 1704.58,2643.48 C1707.19,2643.48 1707.77,2644.86 1707.77,2647.55 L1707.77,2658.47 L1701.14,2658.47 L1701.14,2661.25 L1707.77,2661.25 L1707.77,2667 L1711.25,2666.83 L1711.25,2661.25 L1714.66,2661.25 L1714.66,2658.47 L1711.25,2658.47 L1711.25,2647.3 C1711.25,2643.02 1709.78,2640.58 1705.59,2640.58 M1667.41,2644.06 L1674.42,2644.06 L1674.42,2670.06 L1678.41,2670.06 L1686.19,2666.38 L1685.12,2663.56 L1677.91,2667 L1677.91,2644.06 L1685.67,2644.06 L1685.67,2641 L1667.41,2641 L1667.41,2644.06 M1642.66,2640.62 C1636.39,2640.62 1632.7,2644.98 1632.7,2651.25 C1632.7,2657.64 1636.14,2661.75 1642.48,2661.75 C1648.83,2661.75 1652.48,2657.55 1652.48,2651.17 C1652.48,2644.86 1648.95,2640.62 1642.66,2640.62 M1642.48,2658.98 C1638.38,2658.98 1636.19,2655.33 1636.19,2651.17 C1636.19,2646.92 1638.33,2643.39 1642.48,2643.39 C1646.77,2643.39 1649,2646.84 1649,2651.17 C1649,2655.41 1646.77,2658.98 1642.48,2658.98 M1613.98,2654.02 L1613.98,2641 L1610.5,2641 L1610.5,2654.86 C1610.5,2659.19 1612.81,2661.8 1617.14,2661.8 C1619.5,2661.8 1621.94,2661.12 1624.36,2659.78 L1625.12,2661.25 L1627.52,2661.25 L1627.52,2641 L1624.03,2641 L1624.03,2657.42 C1622.02,2658.39 1620.12,2658.86 1618.41,2658.86 C1615.08,2658.86 1613.98,2657.42 1613.98,2654.02 M1584.7,2668.98 C1583.77,2668.98 1582.72,2668.77 1581.42,2668.39 L1580.88,2670.91 C1582.3,2671.33 1584.03,2671.67 1585.75,2671.67 C1590.08,2671.67 1592.52,2669.52 1592.52,2664.69 L1592.52,2661.25 L1595.45,2661.25 L1595.45,2658.59 L1592.52,2658.59 L1592.52,2641 L1589.02,2641 L1589.02,2658.59 L1582.34,2658.59 L1582.34,2661.25 L1589.02,2661.25 L1589.02,2664.56 C1589.02,2667.25 1587.77,2668.98 1584.7,2668.98 M1569.66,2640.62 C1563.39,2640.62 1559.7,2644.98 1559.7,2651.25 C1559.7,2657.64 1563.14,2661.75 1569.48,2661.75 C1575.83,2661.75 1579.48,2657.55 1579.48,2651.17 C1579.48,2644.86 1575.95,2640.62 1569.66,2640.62 M1569.48,2658.98 C1565.38,2658.98 1563.19,2655.33 1563.19,2651.17 C1563.19,2646.92 1565.33,2643.39 1569.48,2643.39 C1573.77,2643.39 1576,2646.84 1576,2651.17 C1576,2655.41 1573.77,2658.98 1569.48,2658.98 M1548.39,2643.73 C1550.98,2643.73 1551.08,2645.08 1551.08,2646.62 L1551.08,2671.16 L1554.56,2671.16 L1554.56,2645.41 C1554.56,2642.55 1552.8,2640.58 1550.06,2640.58 C1548.09,2640.58 1546.7,2641.17 1545.98,2641.59 L1546.7,2643.94 C1547.25,2643.81 1547.59,2643.73 1548.39,2643.73 M1533.98,2640.58 C1532.06,2640.58 1530.17,2641.17 1528.23,2642.42 L1527.64,2641 L1525.2,2641 L1525.2,2671.16 L1528.7,2671.16 L1528.7,2660.78 C1530,2661.42 1531.59,2661.75 1533.48,2661.75 C1539.7,2661.75 1543.48,2657.34 1543.48,2651.05 C1543.48,2644.83 1540.17,2640.58 1533.98,2640.58 M1533.28,2643.52 C1537.73,2643.52 1539.91,2646.72 1539.91,2651.25 C1539.91,2655.75 1537.77,2658.94 1533.23,2658.94 C1531.52,2658.94 1530,2658.64 1528.7,2658.09 L1528.7,2644.73 C1530.17,2643.94 1531.14,2643.52 1533.28,2643.52 "/>
</g>

<g fill="none" stroke="#000000" stroke-opacity="1" stroke-width="1.51181" stroke-linecap="round" stroke-linejoin="round" transform="matrix(1,0,0,1,0,0)"
font-family="Arial" font-size="10.6667" font-weight="400" font-style="normal" 
>
</g>

<g fill="none" stroke="#000000" stroke-opacity="1" stroke-width="1.51181" stroke-linecap="round" stroke-linejoin="round" transform="matrix(1,0,0,1,0,0)"
font-family="Arial" font-size="10.6667" font-weight="400" font-style="normal" 
>
</g>
</g>
</svg>
