<?xml version="1.0" encoding="UTF-8" standalone="no"?>
<svg width="609.6mm" height="8186.47mm"
 viewBox="0 0 2304 30941"
 xmlns="http://www.w3.org/2000/svg" xmlns:xlink="http://www.w3.org/1999/xlink"  version="1.2" baseProfile="tiny">
<title>Valentina. Pattern layout</title>
<defs>
</defs>
<g fill="none" stroke="black" stroke-width="1" fill-rule="evenodd" stroke-linecap="square" stroke-linejoin="bevel" >

<g fill="none" stroke="#000000" stroke-opacity="1" stroke-width="1.51181" stroke-linecap="round" stroke-linejoin="round" transform="matrix(1,0,0,1,0,0)"
font-family="Arial" font-size="10.6667" font-weight="400" font-style="normal" 
>
</g>

<g fill="none" stroke="#000000" stroke-opacity="1" stroke-width="1.51181" stroke-linecap="round" stroke-linejoin="round" transform="matrix(1,0,0,1,0,0)"
font-family="Arial" font-size="10.6667" font-weight="400" font-style="normal" 
>
</g>

<g fill="none" stroke="#000000" stroke-opacity="1" stroke-width="1.51181" stroke-linecap="round" stroke-linejoin="round" transform="matrix(1,0,0,1,0,0)"
font-family="Arial" font-size="10.6667" font-weight="400" font-style="normal" 
>
</g>

<g fill="none" stroke="#000000" stroke-opacity="1" stroke-width="1" stroke-linecap="square" stroke-linejoin="bevel" transform="matrix(1,0,0,1,0,0)"
font-family="Arial" font-size="10.6667" font-weight="400" font-style="normal" 
>
<path vector-effect="none" fill-rule="nonzero" d="M2295,56 L2086,3362 L2038,3442 L1943,3605 L1848,3769 L1752,3938 L1654,4111 L1553,4290 L1450,4477 L1342,4672 L1229,4877 L1111,5094 L922,5440 L644,5955 L156,6861 L367,56 L556,62 L705,65 L849,68 L989,70 L1127,71 L1263,72 L1399,72 L1535,71 L1672,70 L1813,68 L1957,65 L2105,62 L2295,56 M2299,0 L2115,3313 L2164,3342 L2087,3471 L1993,3633 L1897,3798 L1801,3966 L1703,4139 L1603,4318 L1499,4504 L1391,4699 L1279,4904 L1161,5121 L972,5467 L694,5982 L152,6987 L368,0 L558,5 L706,8 L850,11 L990,13 L1127,14 L1263,15 L1398,15 L1534,14 L1672,13 L1812,11 L1955,8 L2104,5 L2299,0"/>
</g>

<g fill="none" stroke="#000000" stroke-opacity="1" stroke-width="1.51181" stroke-linecap="round" stroke-linejoin="round" transform="matrix(1,0,0,1,0,0)"
font-family="Arial" font-size="10.6667" font-weight="400" font-style="normal" 
>
</g>

<g fill="none" stroke="#000000" stroke-opacity="1" stroke-width="1.51181" stroke-linecap="round" stroke-linejoin="round" transform="matrix(1,0,0,1,0,0)"
font-family="Arial" font-size="10.6667" font-weight="400" font-style="normal" 
>
</g>

<g fill="#000000" fill-opacity="1" stroke="#000000" stroke-opacity="1" stroke-width="1" stroke-linecap="square" stroke-linejoin="bevel" transform="matrix(1,0,0,1,0,0)"
font-family="Arial" font-size="10.6667" font-weight="400" font-style="normal" 
>
<path vector-effect="none" fill-rule="evenodd" d="M1410.93,846.188 C1411,854.109 1417.38,858.086 1426.94,858.004 L1442.64,857.869 L1442.25,812.199 L1427.67,812.324 C1419.95,812.39 1414.62,813.686 1411.6,816.228 C1408.59,818.754 1407.03,821.611 1407.06,825.033 C1407.12,831.314 1411.31,835.825 1416.66,836.904 C1412.65,838.595 1410.9,842.235 1410.93,846.188 M1428.39,850.523 C1422.72,850.571 1418.95,849.682 1418.91,845.588 C1418.87,841.245 1422.83,840.211 1428.3,840.164 L1434.38,840.112 L1434.47,850.471 L1428.39,850.523 M1428.83,832.706 C1421.77,832.766 1415.29,831.9 1415.25,826.494 C1415.19,820.291 1421.66,819.829 1428.72,819.769 L1434.2,819.722 L1434.32,832.659 L1428.83,832.706 M1401.74,854.455 L1398.26,847.953 C1395.17,849.964 1392.21,851.77 1387.26,851.813 C1382.18,851.856 1379.13,849.695 1379.09,845.273 C1379.05,840.461 1384.07,833.949 1399.97,817.64 L1399.92,812.562 L1370.24,812.817 L1370.3,819.879 L1388.05,819.727 C1374.18,834.831 1370.92,839.468 1370.97,845.671 C1371.04,853.999 1377.82,859.347 1386.46,859.273 C1393.67,859.211 1397.27,857.133 1401.74,854.455 "/>
</g>

<g fill="none" stroke="#000000" stroke-opacity="1" stroke-width="1.51181" stroke-linecap="round" stroke-linejoin="round" transform="matrix(1,0,0,1,0,0)"
font-family="Arial" font-size="10.6667" font-weight="400" font-style="normal" 
>
</g>

<g fill="none" stroke="#000000" stroke-opacity="1" stroke-width="1.51181" stroke-linecap="round" stroke-linejoin="round" transform="matrix(1,0,0,1,0,0)"
font-family="Arial" font-size="10.6667" font-weight="400" font-style="normal" 
>
</g>

<g fill="#000000" fill-opacity="1" stroke="#000000" stroke-opacity="1" stroke-width="1" stroke-linecap="square" stroke-linejoin="bevel" transform="matrix(1,0,0,1,0,0)"
font-family="Arial" font-size="10.6667" font-weight="400" font-style="normal" 
>
<path vector-effect="none" fill-rule="evenodd" d="M1441.43,763.892 C1441.49,771.329 1447.48,775.059 1456.46,774.982 L1471.21,774.856 L1470.84,731.951 L1457.14,732.069 C1449.89,732.131 1444.89,733.346 1442.05,735.729 C1439.22,738.113 1437.75,740.798 1437.77,744.016 C1437.82,749.907 1441.77,754.154 1446.81,755.158 C1443.04,756.737 1441.4,760.158 1441.43,763.892 M1457.82,767.955 C1452.5,768 1448.96,767.171 1448.92,763.328 C1448.89,759.234 1452.6,758.265 1457.74,758.221 L1463.44,758.172 L1463.53,767.906 L1457.82,767.955 M1458.24,751.216 C1451.6,751.273 1445.53,750.45 1445.49,745.372 C1445.44,739.544 1451.5,739.117 1458.14,739.06 L1463.28,739.016 L1463.38,751.172 L1458.24,751.216 M1406.64,750.909 C1406.72,759.533 1411.15,762.964 1420.45,762.884 C1423.04,762.862 1426.4,762.146 1430.48,760.751 L1429.25,755.559 C1426.48,756.629 1423.93,757.214 1421.57,757.234 C1415.93,757.282 1414.31,755.999 1414.27,750.718 L1420.41,750.369 C1427.34,749.934 1432.96,747.214 1432.9,740.589 C1432.85,734.886 1428.06,731.693 1422.11,731.744 C1418.57,731.774 1415.66,732.737 1413.32,734.554 L1412.44,732.452 L1406.49,732.503 L1406.64,750.909 M1414.17,739.187 C1415.77,738.189 1417.56,737.424 1420.3,737.4 C1423.01,737.377 1425.26,738.545 1425.28,741.202 C1425.3,743.498 1423.39,744.827 1419.49,745.033 L1414.22,745.453 L1414.17,739.187 M1393.33,747.554 C1393.38,753.382 1390.2,757.253 1384.12,757.305 C1380.46,757.336 1379.04,756.786 1375.92,755.579 L1373.85,760.565 C1377.52,762.268 1380.2,763.23 1385.41,763.185 C1395.01,763.103 1401.04,757.035 1400.96,747.488 C1400.88,738.192 1394.56,731.98 1385.14,732.061 C1380.12,732.104 1376.85,733.257 1373.63,735.082 L1375.78,739.954 C1378.88,738.693 1380.3,738.118 1383.96,738.087 C1389.78,738.037 1393.29,741.976 1393.33,747.554 M1359.79,777.421 L1367.42,777.355 L1367.04,732.841 L1359.41,732.907 L1359.79,777.421 M1347.34,762.824 L1358.93,749.396 L1346.4,733.018 L1337.52,733.095 L1350.07,749.472 L1338.46,762.9 L1347.34,762.824"/>
</g>

<g fill="none" stroke="#000000" stroke-opacity="1" stroke-width="1.51181" stroke-linecap="round" stroke-linejoin="round" transform="matrix(1,0,0,1,0,0)"
font-family="Arial" font-size="10.6667" font-weight="400" font-style="normal" 
>
</g>

<g fill="none" stroke="#000000" stroke-opacity="1" stroke-width="1.51181" stroke-linecap="round" stroke-linejoin="round" transform="matrix(1,0,0,1,0,0)"
font-family="Arial" font-size="10.6667" font-weight="400" font-style="normal" 
>
</g>

<g fill="#000000" fill-opacity="1" stroke="#000000" stroke-opacity="1" stroke-width="1" stroke-linecap="square" stroke-linejoin="bevel" transform="matrix(1,0,0,1,0,0)"
font-family="Arial" font-size="10.6667" font-weight="400" font-style="normal" 
>
<path vector-effect="none" fill-rule="evenodd" d="M1578.94,660.303 L1580.28,656.51 C1577.63,655.454 1573.67,654.41 1569.17,654.449 C1562.32,654.507 1558.28,658.199 1558.31,662.339 C1558.35,666.604 1560.48,668.743 1565.95,670.977 C1571.06,673.089 1574.74,673.777 1574.77,676.902 C1574.79,679.23 1571.74,680.584 1567.47,680.621 C1564.66,680.645 1562.31,679.821 1560.86,679.24 L1559.63,682.907 C1561.98,683.965 1564.74,684.785 1568.05,684.756 C1573.93,684.706 1579.78,682.499 1579.73,676.562 C1579.69,671.578 1575.66,669.925 1573.31,668.992 C1565.97,665.93 1563.32,665.468 1563.3,662.718 C1563.28,659.89 1566.39,658.613 1569.56,658.586 C1572.62,658.56 1576.12,659.311 1578.94,660.303 M1548.73,688.875 C1546.91,688.891 1545.49,690.341 1545.51,692.153 C1545.52,693.95 1546.97,695.375 1548.78,695.359 C1550.58,695.344 1552,693.894 1551.99,692.097 C1551.97,690.285 1550.52,688.86 1548.73,688.875 M1551.08,684.183 L1550.83,655.262 L1546.03,655.303 L1546.28,684.224 L1551.08,684.183 M1529.05,659.355 C1532.77,659.324 1532.91,661.229 1532.93,663.463 L1533.23,698.493 L1538.2,698.45 L1537.88,661.67 C1537.85,657.592 1535.31,654.802 1531.4,654.835 C1528.59,654.859 1526.61,655.704 1525.6,656.322 L1526.65,659.673 C1527.43,659.479 1527.91,659.365 1529.05,659.355 M1476.29,684.996 C1476.36,693.887 1481.91,697.371 1491.09,697.292 L1504.3,697.179 L1503.94,655.664 L1498.96,655.707 L1499.1,672.8 L1494.01,672.844 C1483.74,672.932 1476.2,675.403 1476.29,684.996 M1493.63,677.238 L1499.14,677.191 L1499.28,692.846 L1493.76,692.894 C1486.56,692.956 1481.39,692.031 1481.33,685.266 C1481.27,678.172 1486.49,677.299 1493.63,677.238 M1457.11,655.519 C1448.17,655.596 1442.95,661.891 1443.02,670.828 C1443.1,679.953 1448.07,685.785 1457.13,685.708 C1466.2,685.63 1471.36,679.585 1471.29,670.461 C1471.21,661.461 1466.11,655.442 1457.11,655.519 M1457.1,681.739 C1451.21,681.789 1448.06,676.598 1448,670.66 C1447.95,664.598 1450.97,659.541 1456.91,659.49 C1463.02,659.437 1466.25,664.332 1466.3,670.503 C1466.35,676.566 1463.21,681.687 1457.1,681.739 M1427.06,660.23 C1430.77,660.198 1430.92,662.103 1430.93,664.338 L1431.23,699.368 L1436.2,699.325 L1435.89,662.545 C1435.85,658.467 1433.31,655.676 1429.41,655.71 C1426.59,655.734 1424.62,656.579 1423.61,657.197 L1424.65,660.548 C1425.43,660.354 1425.91,660.24 1427.06,660.23 M1398.8,685.489 L1407.49,661.414 L1416.57,685.337 L1421.79,685.292 L1409.88,654.971 L1415.28,640.877 L1410.25,640.921 L1394.07,685.53 L1398.8,685.489 M1384.17,663.286 C1386.33,663.267 1387.82,661.707 1387.8,659.598 C1387.78,657.864 1386.99,656.667 1385.25,656.089 C1386.02,654.457 1387.02,652.401 1388.39,649.999 L1386.46,648.75 C1383.83,650.991 1380.32,654.631 1380.36,659.006 C1380.38,661.459 1381.83,663.306 1384.17,663.286 M1342.99,656.451 C1340.36,656.474 1337.54,657.029 1334.61,658.195 L1335.78,661.607 C1337.57,660.935 1339.43,660.56 1341.35,660.543 C1348.49,660.482 1352.24,664.231 1352.31,672.028 C1352.37,678.809 1348.92,682.495 1341.96,682.555 C1339.74,682.574 1337.76,682.231 1335.95,681.465 L1334.78,685.132 C1337.24,686.189 1339.78,686.714 1342.23,686.693 C1352.01,686.609 1357.37,680.266 1357.29,671.079 C1357.21,661.907 1352.11,656.373 1342.99,656.451 M1323.96,667.833 L1324.12,686.13 L1329.09,686.087 L1328.92,666.588 C1328.87,660.463 1325.41,656.602 1319.3,656.654 C1316.18,656.681 1312.83,657.725 1309.12,659.679 L1307.96,657.345 L1304.54,657.375 L1304.79,686.295 L1309.77,686.253 L1309.58,663.097 C1312.5,661.681 1315.14,660.94 1317.53,660.92 C1322.34,660.878 1323.92,662.974 1323.96,667.833 M1285.88,656.941 C1283.83,656.958 1281.81,657.445 1279.6,658.307 L1280.58,661.783 C1281.42,661.479 1282.73,661.109 1284.48,661.094 C1288.2,661.062 1289.04,663.023 1289.08,666.867 L1289.21,682.46 L1279.74,682.541 L1279.78,686.51 L1289.24,686.429 L1289.31,694.647 L1294.3,694.37 L1294.23,686.386 L1299.09,686.344 L1299.05,682.376 L1294.19,682.417 L1294.06,666.465 C1294,660.34 1291.88,656.889 1285.88,656.941 M1257.64,696.059 L1255.62,692.295 C1253.12,693.989 1250.37,695.825 1246.06,695.862 C1241.01,695.905 1237.44,693.358 1237.4,688.311 C1237.35,682.483 1241.99,677.224 1256.37,661.022 L1256.34,657.788 L1231.75,657.999 L1231.79,662.374 L1249.43,662.222 C1235.22,678.423 1232.38,682.713 1232.43,688.353 C1232.49,695.619 1237.99,700.306 1245.31,700.243 C1251.19,700.193 1253.75,698.546 1257.64,696.059 "/>
</g>

<g fill="none" stroke="#000000" stroke-opacity="1" stroke-width="1.51181" stroke-linecap="round" stroke-linejoin="round" transform="matrix(1,0,0,1,0,0)"
font-family="Arial" font-size="10.6667" font-weight="400" font-style="normal" 
>
</g>

<g fill="none" stroke="#000000" stroke-opacity="1" stroke-width="1.51181" stroke-linecap="round" stroke-linejoin="round" transform="matrix(1,0,0,1,0,0)"
font-family="Arial" font-size="10.6667" font-weight="400" font-style="normal" 
>
</g>

<g fill="none" stroke="#000000" stroke-opacity="1" stroke-width="1" stroke-linecap="square" stroke-linejoin="bevel" transform="matrix(1,0,0,1,0,0)"
font-family="Arial" font-size="10.6667" font-weight="400" font-style="normal" 
>
<path vector-effect="none" fill-rule="nonzero" d="M2213.9,7126 L2186.9,9804 L2061.9,9900 L1893.9,10030 L1717.9,10167 L1435.9,10386 L1018.9,10712 L286.9,11287 L286.9,7054 L2213.9,7126 M229.9,6995 L2214.9,7069 L2185.9,9876 L2095.9,9945 L1928.9,10075 L1752.9,10211 L1470.9,10431 L1053.9,10757 L229.9,11404 L229.9,6995"/>
</g>

<g fill="none" stroke="#000000" stroke-opacity="1" stroke-width="1.51181" stroke-linecap="round" stroke-linejoin="round" transform="matrix(1,0,0,1,0,0)"
font-family="Arial" font-size="10.6667" font-weight="400" font-style="normal" 
>
</g>

<g fill="none" stroke="#000000" stroke-opacity="1" stroke-width="1.51181" stroke-linecap="round" stroke-linejoin="round" transform="matrix(1,0,0,1,0,0)"
font-family="Arial" font-size="10.6667" font-weight="400" font-style="normal" 
>
</g>

<g fill="#000000" fill-opacity="1" stroke="#000000" stroke-opacity="1" stroke-width="1" stroke-linecap="square" stroke-linejoin="bevel" transform="matrix(1,0,0,1,0,0)"
font-family="Arial" font-size="10.6667" font-weight="400" font-style="normal" 
>
<path vector-effect="none" fill-rule="evenodd" d="M1178.57,8456.48 L1151.93,8456.48 L1151.93,8465.75 L1188.67,8465.75 L1188.67,8409 L1178.57,8409 L1178.57,8430.56 L1155.2,8430.56 L1155.2,8439.83 L1178.57,8439.83 L1178.57,8456.48 M1118.32,8418.27 L1118.32,8465.75 L1128.17,8465.75 L1144.98,8458.28 L1141.78,8450.25 L1128.4,8456.16 L1128.4,8418.27 L1143.57,8418.27 L1143.57,8409 L1104.63,8409 L1104.63,8418.27 L1118.32,8418.27"/>
</g>

<g fill="none" stroke="#000000" stroke-opacity="1" stroke-width="1.51181" stroke-linecap="round" stroke-linejoin="round" transform="matrix(1,0,0,1,0,0)"
font-family="Arial" font-size="10.6667" font-weight="400" font-style="normal" 
>
</g>

<g fill="none" stroke="#000000" stroke-opacity="1" stroke-width="1.51181" stroke-linecap="round" stroke-linejoin="round" transform="matrix(1,0,0,1,0,0)"
font-family="Arial" font-size="10.6667" font-weight="400" font-style="normal" 
>
</g>

<g fill="#000000" fill-opacity="1" stroke="#000000" stroke-opacity="1" stroke-width="1" stroke-linecap="square" stroke-linejoin="bevel" transform="matrix(1,0,0,1,0,0)"
font-family="Arial" font-size="10.6667" font-weight="400" font-style="normal" 
>
<path vector-effect="none" fill-rule="evenodd" d="M1265.35,8354.16 L1239.99,8354.16 L1239.99,8362.98 L1274.95,8362.98 L1274.95,8309 L1265.35,8309 L1265.35,8329.52 L1243.12,8329.52 L1243.12,8338.33 L1265.35,8338.33 L1265.35,8354.16 M1232.26,8346.52 L1232.26,8309 L1222.88,8309 L1222.88,8337.86 C1220.95,8338.72 1218.84,8339.19 1216.65,8339.19 C1213.45,8339.19 1210.81,8338.48 1208.54,8337.16 L1208.07,8337.31 L1206.2,8345.89 C1208.38,8346.91 1210.73,8347.38 1213.13,8347.38 C1217.12,8347.38 1220.87,8346.28 1224.37,8344.09 L1225.54,8346.52 L1232.26,8346.52 M1183.93,8308.22 C1172.07,8308.22 1164.28,8316.17 1164.28,8327.95 C1164.28,8339.66 1171.92,8347.38 1183.78,8347.38 C1195.79,8347.38 1203.43,8339.73 1203.43,8327.8 C1203.43,8316.09 1195.79,8308.22 1183.93,8308.22 M1183.93,8339.97 C1177.46,8339.97 1173.87,8334.58 1173.87,8327.8 C1173.87,8320.94 1177.23,8315.7 1183.93,8315.7 C1190.34,8315.7 1193.84,8321.17 1193.84,8327.8 C1193.84,8334.34 1190.34,8339.97 1183.93,8339.97 M1121.38,8330.61 C1121.38,8340.83 1124.51,8347.38 1135.2,8347.38 C1139.4,8347.38 1143.78,8346.28 1148.13,8344.09 L1149.54,8346.52 L1156.26,8346.52 L1156.26,8309 L1146.65,8309 L1146.65,8337.23 C1142.84,8338.64 1139.87,8339.34 1137.68,8339.34 C1133.01,8339.34 1130.98,8336.14 1130.98,8331.78 L1130.98,8309 L1121.38,8309 L1121.38,8330.61 M1084.34,8310.33 L1085.74,8316.95 C1087.15,8316.56 1090.04,8315.86 1092.68,8315.86 C1097.84,8315.86 1099.01,8318.44 1099.01,8321.33 L1099.01,8339.03 L1086.06,8339.03 L1086.06,8346.52 L1099.01,8346.52 L1099.01,8358.3 L1108.6,8358.3 L1108.6,8346.52 L1114.84,8346.52 L1114.84,8339.03 L1108.6,8339.03 L1108.6,8321.09 C1108.6,8314.45 1106.96,8308.22 1095.03,8308.22 C1091.43,8308.22 1086.99,8309.31 1084.34,8310.33 M1031.84,8317.81 L1031.84,8362.98 L1041.2,8362.98 L1057.18,8355.88 L1054.15,8348.23 L1041.43,8353.86 L1041.43,8317.81 L1055.87,8317.81 L1055.87,8309 L1018.81,8309 L1018.81,8317.81 L1031.84,8317.81"/>
</g>

<g fill="none" stroke="#000000" stroke-opacity="1" stroke-width="1.51181" stroke-linecap="round" stroke-linejoin="round" transform="matrix(1,0,0,1,0,0)"
font-family="Arial" font-size="10.6667" font-weight="400" font-style="normal" 
>
</g>

<g fill="none" stroke="#000000" stroke-opacity="1" stroke-width="1.51181" stroke-linecap="round" stroke-linejoin="round" transform="matrix(1,0,0,1,0,0)"
font-family="Arial" font-size="10.6667" font-weight="400" font-style="normal" 
>
</g>

<g fill="#000000" fill-opacity="1" stroke="#000000" stroke-opacity="1" stroke-width="1" stroke-linecap="square" stroke-linejoin="bevel" transform="matrix(1,0,0,1,0,0)"
font-family="Arial" font-size="10.6667" font-weight="400" font-style="normal" 
>
<path vector-effect="none" fill-rule="evenodd" d="M1369.65,8218.69 L1371.4,8213.91 C1368.06,8212.53 1363.04,8211.16 1357.34,8211.16 C1348.68,8211.16 1343.51,8215.8 1343.51,8221.05 C1343.51,8226.44 1346.17,8229.17 1353.09,8232.06 C1359.54,8234.8 1364.18,8235.72 1364.18,8239.67 C1364.18,8242.62 1360.31,8244.3 1354.92,8244.3 C1351.34,8244.3 1348.37,8243.23 1346.56,8242.48 L1344.95,8247.11 C1347.92,8248.48 1351.42,8249.55 1355.59,8249.55 C1363.04,8249.55 1370.49,8246.81 1370.49,8239.28 C1370.49,8232.98 1365.4,8230.84 1362.43,8229.64 C1353.17,8225.69 1349.82,8225.08 1349.82,8221.58 C1349.82,8218 1353.78,8216.41 1357.81,8216.41 C1361.68,8216.41 1366.09,8217.39 1369.65,8218.69 M1331.54,8254.56 C1329.26,8254.56 1327.43,8256.39 1327.43,8258.67 C1327.43,8260.95 1329.26,8262.77 1331.54,8262.77 C1333.82,8262.77 1335.65,8260.95 1335.65,8258.67 C1335.65,8256.39 1333.82,8254.56 1331.54,8254.56 M1334.59,8248.64 L1334.59,8212 L1328.49,8212 L1328.49,8248.64 L1334.59,8248.64 M1306.4,8216.94 C1311.12,8216.94 1311.28,8219.38 1311.28,8222.19 L1311.28,8266.58 L1317.59,8266.58 L1317.59,8219.98 C1317.59,8214.81 1314.38,8211.23 1309.45,8211.23 C1305.87,8211.23 1303.37,8212.3 1302.07,8213.06 L1303.37,8217.31 C1304.35,8217.09 1304.96,8216.94 1306.4,8216.94 M1238.1,8248.86 C1238.1,8260.11 1245.09,8264.59 1256.71,8264.59 L1273.45,8264.59 L1273.45,8212 L1267.13,8212 L1267.13,8233.66 L1260.67,8233.66 C1247.68,8233.66 1238.1,8236.7 1238.1,8248.86 M1260.13,8239.2 L1267.13,8239.2 L1267.13,8259.05 L1260.13,8259.05 C1251.03,8259.05 1244.48,8257.83 1244.48,8249.23 C1244.48,8240.28 1251.09,8239.2 1260.13,8239.2 M1214.46,8211.31 C1203.15,8211.31 1196.45,8219.22 1196.45,8230.55 C1196.45,8242.09 1202.68,8249.55 1214.17,8249.55 C1225.63,8249.55 1232.26,8241.95 1232.26,8230.39 C1232.26,8219 1225.87,8211.31 1214.46,8211.31 M1214.17,8244.53 C1206.71,8244.53 1202.76,8237.92 1202.76,8230.39 C1202.76,8222.72 1206.63,8216.33 1214.17,8216.33 C1221.92,8216.33 1225.95,8222.56 1225.95,8230.39 C1225.95,8238.06 1221.92,8244.53 1214.17,8244.53 M1176.4,8216.94 C1181.12,8216.94 1181.28,8219.38 1181.28,8222.19 L1181.28,8266.58 L1187.59,8266.58 L1187.59,8219.98 C1187.59,8214.81 1184.38,8211.23 1179.45,8211.23 C1175.87,8211.23 1173.37,8212.3 1172.07,8213.06 L1173.37,8217.31 C1174.35,8217.09 1174.96,8216.94 1176.4,8216.94 M1139.88,8248.64 L1151.13,8218.23 L1162.38,8248.64 L1168.99,8248.64 L1154.26,8210.09 L1161.24,8192.31 L1154.87,8192.31 L1133.88,8248.64 L1139.88,8248.64 M1121.87,8220.36 C1124.6,8220.36 1126.51,8218.39 1126.51,8215.72 C1126.51,8213.52 1125.51,8212 1123.31,8211.23 C1124.31,8209.19 1125.59,8206.61 1127.34,8203.56 L1124.9,8201.97 C1121.56,8204.78 1117.07,8209.34 1117.07,8214.89 C1117.07,8218 1118.9,8220.36 1121.87,8220.36 M1069.32,8211.23 C1065.98,8211.23 1062.4,8211.92 1058.68,8213.38 L1060.12,8217.7 C1062.4,8216.86 1064.76,8216.41 1067.18,8216.41 C1076.23,8216.41 1080.95,8221.2 1080.95,8231.08 C1080.95,8239.67 1076.54,8244.3 1067.71,8244.3 C1064.9,8244.3 1062.4,8243.84 1060.12,8242.86 L1058.6,8247.5 C1061.71,8248.86 1064.9,8249.55 1068.03,8249.55 C1080.42,8249.55 1087.26,8241.56 1087.26,8229.94 C1087.26,8218.31 1080.87,8211.23 1069.32,8211.23 M1044.28,8225.45 L1044.28,8248.64 L1050.59,8248.64 L1050.59,8223.94 C1050.59,8216.19 1046.24,8211.23 1038.49,8211.23 C1034.54,8211.23 1030.29,8212.53 1025.57,8214.97 L1024.13,8212 L1019.79,8212 L1019.79,8248.64 L1026.1,8248.64 L1026.1,8219.3 C1029.84,8217.55 1033.18,8216.64 1036.21,8216.64 C1042.29,8216.64 1044.28,8219.3 1044.28,8225.45 M996.963,8211.23 C994.384,8211.23 991.791,8211.84 988.978,8212.91 L990.197,8217.31 C991.259,8216.94 992.931,8216.48 995.134,8216.48 C999.853,8216.48 1000.92,8219 1000.92,8223.86 L1000.92,8243.62 L988.9,8243.62 L988.9,8248.64 L1000.92,8248.64 L1000.92,8259.05 L1007.23,8258.75 L1007.23,8248.64 L1013.38,8248.64 L1013.38,8243.62 L1007.23,8243.62 L1007.23,8223.41 C1007.23,8215.64 1004.56,8211.23 996.963,8211.23 M959.9,8260.48 L957.384,8255.7 C954.197,8257.83 950.697,8260.11 945.228,8260.11 C938.838,8260.11 934.353,8256.84 934.353,8250.45 C934.353,8243.08 940.291,8236.47 958.681,8216.11 L958.681,8212 L927.525,8212 L927.525,8217.55 L949.869,8217.55 C931.697,8237.92 928.056,8243.31 928.056,8250.45 C928.056,8259.66 934.963,8265.66 944.244,8265.66 C951.681,8265.66 954.963,8263.61 959.9,8260.48 "/>
</g>

<g fill="none" stroke="#000000" stroke-opacity="1" stroke-width="1.51181" stroke-linecap="round" stroke-linejoin="round" transform="matrix(1,0,0,1,0,0)"
font-family="Arial" font-size="10.6667" font-weight="400" font-style="normal" 
>
</g>

<g fill="none" stroke="#000000" stroke-opacity="1" stroke-width="1.51181" stroke-linecap="round" stroke-linejoin="round" transform="matrix(1,0,0,1,0,0)"
font-family="Arial" font-size="10.6667" font-weight="400" font-style="normal" 
>
</g>

<g fill="none" stroke="#000000" stroke-opacity="1" stroke-width="1" stroke-linecap="square" stroke-linejoin="bevel" transform="matrix(1,0,0,1,0,0)"
font-family="Arial" font-size="10.6667" font-weight="400" font-style="normal" 
>
<path vector-effect="none" fill-rule="nonzero" d="M128.835,18276.1 L185.162,11468 L391.426,12357.6 L508.942,12863 L588.716,13204.3 L639.544,13416.2 L688.168,13619.2 L734.542,13811.2 L779.735,13995.2 L824.769,14172.2 L867.667,14343.3 L910.452,14509.3 L953.168,14672.4 L996.838,14833.5 L1040.49,14993.5 L1085.16,15154.5 L1131.85,15316.5 L1179.63,15482.5 L1229.48,15651.4 L1281.47,15826.2 L1336.59,16007 L1393.92,16196.8 L1455.45,16395.4 L1520.2,16604 L1624.81,16937.7 L1781.11,17433.3 L2056.95,18303.3 L1537.61,18294.1 L889.207,18283.8 L512.009,18279.4 L255.871,18276.2 L128.835,18276.1 M129.108,18332.1 L185.889,11412 L229.9,11412 L446.14,12344.3 L564.677,12850.8 L644.429,13191 L695.28,13403.9 L742.858,13604.9 L790.255,13797.9 L835.448,13981.9 L879.46,14158 L922.358,14329 L965.142,14495.1 L1008.86,14658.1 L1051.53,14819.2 L1095.18,14979.3 L1139.82,15139.3 L1186.52,15301.3 L1234.28,15466.2 L1284.13,15635.1 L1336.11,15810 L1390.24,15990.8 L1448.56,16180.5 L1510.07,16378.2 L1574.85,16587.8 L1679.46,16921.5 L1835.74,17416.1 L2135.29,18361.5 L1536.9,18351.1 L888.503,18340.8 L511.282,18335.4 L255.166,18333.2 L129.108,18332.1"/>
</g>

<g fill="none" stroke="#000000" stroke-opacity="1" stroke-width="1.51181" stroke-linecap="round" stroke-linejoin="round" transform="matrix(1,0,0,1,0,0)"
font-family="Arial" font-size="10.6667" font-weight="400" font-style="normal" 
>
</g>

<g fill="none" stroke="#000000" stroke-opacity="1" stroke-width="1.51181" stroke-linecap="round" stroke-linejoin="round" transform="matrix(1,0,0,1,0,0)"
font-family="Arial" font-size="10.6667" font-weight="400" font-style="normal" 
>
</g>

<g fill="#000000" fill-opacity="1" stroke="#000000" stroke-opacity="1" stroke-width="1" stroke-linecap="square" stroke-linejoin="bevel" transform="matrix(1,0,0,1,0,0)"
font-family="Arial" font-size="10.6667" font-weight="400" font-style="normal" 
>
<path vector-effect="none" fill-rule="evenodd" d="M688.353,17589 C688.186,17581.7 682.26,17578.1 673.418,17578.3 L658.891,17578.6 L659.85,17620.8 L673.331,17620.5 C680.47,17620.4 685.38,17619.1 688.139,17616.7 C690.882,17614.3 692.291,17611.7 692.219,17608.5 C692.087,17602.7 688.149,17598.6 683.189,17597.7 C686.872,17596.1 688.436,17592.7 688.353,17589 M672.169,17585.2 C677.402,17585.1 680.905,17585.9 680.991,17589.7 C681.082,17593.7 677.448,17594.7 672.387,17594.8 L666.779,17594.9 L666.561,17585.3 L672.169,17585.2 M671.997,17601.7 C678.511,17601.6 684.513,17602.3 684.626,17607.3 C684.757,17613 678.782,17613.5 672.268,17613.7 L667.207,17613.8 L666.936,17601.8 L671.997,17601.7 M709.64,17576.6 C704.094,17576.8 700.295,17578.7 696.854,17580.7 L699.911,17586.6 C702.998,17584.9 705.704,17583.6 709.796,17583.5 C713.264,17583.4 716.456,17584.3 716.556,17588.7 C716.636,17592.2 714.926,17594.7 707.178,17594.9 L704.195,17594.9 L704.342,17601.4 L707.388,17601.3 C714.339,17601.2 719.059,17601.9 719.185,17607.4 C719.274,17611.3 715.724,17613.3 710.475,17613.4 C705.774,17613.5 702.508,17612.2 698.453,17610.5 L695.726,17617 C700.709,17619 704.352,17620.4 711.054,17620.3 C719.598,17620.1 726.88,17615.9 726.69,17607.5 C726.556,17601.6 723.621,17598.3 719.421,17596.5 C722.003,17594.5 724.139,17591.6 724.053,17587.8 C723.877,17580 717.56,17576.4 709.64,17576.6 "/>
</g>

<g fill="none" stroke="#000000" stroke-opacity="1" stroke-width="1.51181" stroke-linecap="round" stroke-linejoin="round" transform="matrix(1,0,0,1,0,0)"
font-family="Arial" font-size="10.6667" font-weight="400" font-style="normal" 
>
</g>

<g fill="none" stroke="#000000" stroke-opacity="1" stroke-width="1.51181" stroke-linecap="round" stroke-linejoin="round" transform="matrix(1,0,0,1,0,0)"
font-family="Arial" font-size="10.6667" font-weight="400" font-style="normal" 
>
</g>

<g fill="#000000" fill-opacity="1" stroke="#000000" stroke-opacity="1" stroke-width="1" stroke-linecap="square" stroke-linejoin="bevel" transform="matrix(1,0,0,1,0,0)"
font-family="Arial" font-size="10.6667" font-weight="400" font-style="normal" 
>
<path vector-effect="none" fill-rule="evenodd" d="M637.384,17665.2 C637.229,17658.4 631.682,17655 623.419,17655.2 L609.844,17655.5 L610.741,17695 L623.347,17694.7 C630.017,17694.5 634.601,17693.3 637.176,17691.1 C639.75,17688.9 641.054,17686.4 640.987,17683.5 C640.863,17678 637.181,17674.2 632.551,17673.3 C635.987,17671.8 637.462,17668.7 637.384,17665.2 M622.253,17661.7 C627.158,17661.6 630.425,17662.3 630.506,17665.8 C630.591,17669.6 627.189,17670.5 622.456,17670.6 L617.208,17670.8 L617.005,17661.8 L622.253,17661.7 M622.087,17677.1 C628.18,17677 633.79,17677.6 633.896,17682.3 C634.018,17687.7 628.433,17688.1 622.341,17688.3 L617.608,17688.4 L617.354,17677.2 L622.087,17677.1 M668.747,17676.7 C668.567,17668.8 664.449,17665.7 655.904,17665.9 C653.514,17665.9 650.451,17666.6 646.715,17668 L647.901,17672.7 C650.441,17671.7 652.773,17671.1 654.944,17671.1 C660.13,17671 661.626,17672.2 661.736,17677 L656.103,17677.4 C649.738,17677.9 644.607,17680.5 644.746,17686.6 C644.865,17691.8 649.322,17694.7 654.789,17694.5 C658.038,17694.5 660.69,17693.6 662.824,17691.8 L663.664,17693.8 L669.132,17693.6 L668.747,17676.7 M661.977,17687.6 C660.529,17688.5 658.889,17689.2 656.374,17689.3 C653.874,17689.4 651.788,17688.3 651.732,17685.9 C651.684,17683.8 653.438,17682.5 657.011,17682.3 L661.846,17681.8 L661.977,17687.6 M681.598,17679.6 C681.476,17674.3 684.364,17670.7 689.956,17670.5 C693.314,17670.5 694.638,17670.9 697.507,17672 L699.34,17667.4 C695.945,17665.9 693.472,17665 688.692,17665.1 C679.851,17665.3 674.4,17671 674.599,17679.8 C674.794,17688.3 680.673,17693.9 689.342,17693.7 C693.951,17693.6 696.958,17692.6 699.873,17690.8 L697.833,17686.4 C695.016,17687.6 693.716,17688.1 690.357,17688.2 C684.999,17688.3 681.714,17684.7 681.598,17679.6 M711.628,17651.7 L704.614,17651.9 L705.544,17692.8 L712.558,17692.7 L711.628,17651.7 M723.276,17665 L712.792,17677.5 L724.524,17692.4 L732.678,17692.2 L720.93,17677.3 L731.43,17664.8 L723.276,17665 M762.802,17651.3 C757.616,17651.4 754.063,17653.2 750.854,17655.1 L753.715,17660.6 C756.585,17659 759.121,17657.8 762.948,17657.7 C766.198,17657.6 769.169,17658.4 769.263,17662.5 C769.338,17665.8 767.734,17668.1 760.501,17668.3 L757.705,17668.4 L757.843,17674.4 L760.701,17674.3 C767.199,17674.2 771.606,17674.8 771.724,17680 C771.807,17683.7 768.473,17685.5 763.583,17685.6 C759.194,17685.7 756.133,17684.5 752.331,17682.9 L749.797,17689 C754.45,17690.8 757.856,17692.2 764.12,17692 C772.102,17691.9 778.906,17688 778.728,17680.1 C778.603,17674.6 775.86,17671.5 771.945,17669.8 C774.357,17668 776.341,17665.2 776.261,17661.7 C776.097,17654.4 770.206,17651.1 762.802,17651.3 "/>
</g>

<g fill="none" stroke="#000000" stroke-opacity="1" stroke-width="1.51181" stroke-linecap="round" stroke-linejoin="round" transform="matrix(1,0,0,1,0,0)"
font-family="Arial" font-size="10.6667" font-weight="400" font-style="normal" 
>
</g>

<g fill="none" stroke="#000000" stroke-opacity="1" stroke-width="1.51181" stroke-linecap="round" stroke-linejoin="round" transform="matrix(1,0,0,1,0,0)"
font-family="Arial" font-size="10.6667" font-weight="400" font-style="normal" 
>
</g>

<g fill="#000000" fill-opacity="1" stroke="#000000" stroke-opacity="1" stroke-width="1" stroke-linecap="square" stroke-linejoin="bevel" transform="matrix(1,0,0,1,0,0)"
font-family="Arial" font-size="10.6667" font-weight="400" font-style="normal" 
>
<path vector-effect="none" fill-rule="evenodd" d="M535.576,17762.9 L534.39,17766.3 C536.833,17767.3 540.48,17768.2 544.604,17768.1 C550.868,17768 554.541,17764.5 554.454,17760.7 C554.366,17756.8 552.384,17754.9 547.338,17752.9 C542.622,17751 539.248,17750.5 539.183,17747.6 C539.135,17745.5 541.919,17744.2 545.824,17744.1 C548.402,17744 550.559,17744.7 551.9,17745.3 L552.979,17741.9 C550.801,17741 548.268,17740.2 545.238,17740.3 C539.849,17740.4 534.505,17742.5 534.628,17748 C534.732,17752.5 538.453,17754 540.613,17754.8 C547.395,17757.5 549.811,17757.9 549.869,17760.4 C549.927,17763 547.095,17764.2 544.19,17764.3 C541.378,17764.4 538.175,17763.7 535.576,17762.9 M563.229,17736.3 C564.885,17736.2 566.167,17734.9 566.13,17733.2 C566.092,17731.6 564.75,17730.3 563.094,17730.3 C561.454,17730.4 560.156,17731.7 560.194,17733.4 C560.231,17735 561.589,17736.3 563.229,17736.3 M561.124,17740.6 L561.726,17767.1 L566.131,17767 L565.529,17740.5 L561.124,17740.6 M581.734,17763.1 C578.328,17763.1 578.163,17761.4 578.117,17759.4 L577.387,17727.3 L572.826,17727.4 L573.592,17761 C573.677,17764.8 576.047,17767.3 579.625,17767.2 C582.202,17767.2 584.012,17766.4 584.922,17765.8 L583.93,17762.8 C583.215,17762.9 582.78,17763 581.734,17763.1 M630.509,17738.9 C630.324,17730.7 625.189,17727.6 616.769,17727.8 L604.678,17728.1 L605.543,17766.1 L610.104,17766 L609.748,17750.3 L614.419,17750.2 C623.823,17750 630.708,17747.7 630.509,17738.9 M614.718,17746.2 L609.657,17746.3 L609.331,17732 L614.392,17731.8 C620.984,17731.7 625.737,17732.5 625.878,17738.7 C626.026,17745.2 621.263,17746.1 614.718,17746.2 M648.387,17765.6 C656.572,17765.4 661.285,17759.6 661.099,17751.4 C660.909,17743.1 656.272,17737.8 647.977,17738 C639.667,17738.2 635.012,17743.8 635.202,17752.1 C635.389,17760.4 640.139,17765.8 648.387,17765.6 M648.06,17741.6 C653.449,17741.5 656.416,17746.2 656.54,17751.6 C656.666,17757.2 653.959,17761.9 648.523,17762 C642.915,17762.1 639.892,17757.7 639.763,17752 C639.637,17746.5 642.452,17741.7 648.06,17741.6 M675.709,17760.9 C672.304,17761 672.139,17759.3 672.093,17757.2 L671.363,17725.1 L666.802,17725.2 L667.568,17758.9 C667.653,17762.7 670.023,17765.2 673.6,17765.1 C676.178,17765 677.988,17764.2 678.897,17763.7 L677.906,17760.6 C677.191,17760.8 676.756,17760.9 675.709,17760.9 M701.682,17737.4 L694.043,17759.6 L685.405,17737.8 L680.625,17737.9 L691.927,17765.5 L687.158,17778.5 L691.782,17778.4 L706.024,17737.3 L701.682,17737.4 M714.971,17757.6 C712.987,17757.6 711.645,17759.1 711.689,17761 C711.725,17762.6 712.469,17763.7 714.074,17764.2 C713.389,17765.7 712.495,17767.6 711.28,17769.8 L713.071,17770.9 C715.446,17768.8 718.604,17765.5 718.513,17761.4 C718.462,17759.2 717.111,17757.5 714.971,17757.6 M753.47,17763.3 C755.876,17763.2 758.458,17762.7 761.121,17761.6 L760.003,17758.5 C758.377,17759.1 756.682,17759.5 754.916,17759.5 C748.371,17759.7 744.887,17756.3 744.725,17749.1 C744.583,17742.9 747.694,17739.5 754.067,17739.3 C756.114,17739.3 757.933,17739.6 759.59,17740.3 L760.622,17736.9 C758.351,17736 756.027,17735.5 753.762,17735.6 C744.811,17735.8 739.991,17741.7 740.182,17750.1 C740.373,17758.5 745.113,17763.5 753.47,17763.3 M771.013,17752.6 L770.633,17735.8 L766.071,17736 L766.477,17753.8 C766.604,17759.4 769.826,17762.9 775.433,17762.8 C778.292,17762.7 781.348,17761.7 784.714,17759.9 L785.809,17762 L788.949,17761.9 L788.347,17735.4 L783.785,17735.5 L784.267,17756.8 C781.594,17758.1 779.187,17758.8 777.001,17758.8 C772.595,17758.9 771.115,17757.1 771.013,17752.6 M805.816,17762.1 C807.675,17762.1 809.54,17761.6 811.553,17760.8 L810.606,17757.6 C809.846,17757.9 808.635,17758.2 807.042,17758.3 C803.637,17758.4 802.83,17756.6 802.75,17753 L802.425,17738.7 L811.111,17738.6 L811.028,17734.9 L802.343,17735.1 L802.172,17727.6 L797.6,17727.9 L797.766,17735.2 L793.314,17735.3 L793.397,17739 L797.849,17738.9 L798.181,17753.5 C798.308,17759.1 800.318,17762.2 805.816,17762.1 M831.359,17725.9 L833.25,17729.3 C835.527,17727.7 838.02,17726 841.972,17725.9 C846.596,17725.8 849.899,17728.1 850.004,17732.7 C850.125,17738.1 845.938,17742.9 832.964,17758 L833.031,17760.9 L855.572,17760.4 L855.481,17756.4 L839.329,17756.8 C852.131,17741.7 854.683,17737.8 854.565,17732.6 C854.414,17726 849.301,17721.7 842.599,17721.9 C837.21,17722 834.885,17723.5 831.359,17725.9 "/>
</g>

<g fill="none" stroke="#000000" stroke-opacity="1" stroke-width="1.51181" stroke-linecap="round" stroke-linejoin="round" transform="matrix(1,0,0,1,0,0)"
font-family="Arial" font-size="10.6667" font-weight="400" font-style="normal" 
>
</g>

<g fill="none" stroke="#000000" stroke-opacity="1" stroke-width="1.51181" stroke-linecap="round" stroke-linejoin="round" transform="matrix(1,0,0,1,0,0)"
font-family="Arial" font-size="10.6667" font-weight="400" font-style="normal" 
>
</g>

<g fill="none" stroke="#000000" stroke-opacity="1" stroke-width="1" stroke-linecap="square" stroke-linejoin="bevel" transform="matrix(1,0,0,1,0,0)"
font-family="Arial" font-size="10.6667" font-weight="400" font-style="normal" 
>
<path vector-effect="none" fill-rule="nonzero" d="M1365.3,18412.7 L1604.59,19311.9 L1740.7,19823.6 L1833.95,20168.7 L1892.08,20383.7 L1948.36,20588.6 L1990.02,20739.9 L805.294,20294.5 L1365.3,18412.7 M751.946,20274.3 L1323.51,18355.3 L1408.57,18356.6 L1659.05,19297.6 L1795.16,19809.3 L1888.73,20153.5 L1946.86,20368.5 L2003.14,20573.3 L2055.36,20765.2 L751.946,20274.3"/>
</g>

<g fill="none" stroke="#000000" stroke-opacity="1" stroke-width="1.51181" stroke-linecap="round" stroke-linejoin="round" transform="matrix(1,0,0,1,0,0)"
font-family="Arial" font-size="10.6667" font-weight="400" font-style="normal" 
>
</g>

<g fill="none" stroke="#000000" stroke-opacity="1" stroke-width="1.51181" stroke-linecap="round" stroke-linejoin="round" transform="matrix(1,0,0,1,0,0)"
font-family="Arial" font-size="10.6667" font-weight="400" font-style="normal" 
>
</g>

<g fill="#000000" fill-opacity="1" stroke="#000000" stroke-opacity="1" stroke-width="1" stroke-linecap="square" stroke-linejoin="bevel" transform="matrix(1,0,0,1,0,0)"
font-family="Arial" font-size="10.6667" font-weight="400" font-style="normal" 
>
<path vector-effect="none" fill-rule="evenodd" d="M1368.88,19868.5 L1362,19888.8 L1369.07,19891.2 L1378.55,19863.2 L1335.29,19848.5 L1332.69,19856.2 L1349.13,19861.8 L1343.1,19879.6 L1350.16,19882 L1356.19,19864.2 L1368.88,19868.5 M1363.48,19910.6 C1365.41,19904.9 1364.8,19900.3 1364.06,19896.1 L1356.92,19897 C1357.53,19900.8 1357.84,19904 1356.42,19908.2 C1355.21,19911.8 1353.17,19914.7 1348.67,19913.2 C1345.04,19911.9 1343.15,19909.3 1345.84,19901.3 L1346.88,19898.3 L1340.26,19896 L1339.2,19899.2 C1336.79,19906.3 1334.35,19910.8 1328.65,19908.9 C1324.65,19907.5 1323.96,19903.2 1325.78,19897.8 C1327.41,19893 1329.97,19890.2 1333.19,19886.7 L1327.55,19881.5 C1323.7,19885.8 1320.9,19889 1318.58,19895.9 C1315.61,19904.6 1317.18,19913.6 1325.73,19916.5 C1331.8,19918.5 1336.23,19916.8 1339.67,19913.2 C1340.7,19916.5 1342.94,19919.8 1346.82,19921.1 C1354.75,19923.8 1360.73,19918.7 1363.48,19910.6 "/>
</g>

<g fill="none" stroke="#000000" stroke-opacity="1" stroke-width="1.51181" stroke-linecap="round" stroke-linejoin="round" transform="matrix(1,0,0,1,0,0)"
font-family="Arial" font-size="10.6667" font-weight="400" font-style="normal" 
>
</g>

<g fill="none" stroke="#000000" stroke-opacity="1" stroke-width="1.51181" stroke-linecap="round" stroke-linejoin="round" transform="matrix(1,0,0,1,0,0)"
font-family="Arial" font-size="10.6667" font-weight="400" font-style="normal" 
>
</g>

<g fill="#000000" fill-opacity="1" stroke="#000000" stroke-opacity="1" stroke-width="1" stroke-linecap="square" stroke-linejoin="bevel" transform="matrix(1,0,0,1,0,0)"
font-family="Arial" font-size="10.6667" font-weight="400" font-style="normal" 
>
<path vector-effect="none" fill-rule="evenodd" d="M1312.96,19776.9 L1306.5,19796 L1313.15,19798.3 L1322.05,19772 L1281.41,19758.2 L1278.97,19765.4 L1294.42,19770.7 L1288.75,19787.4 L1295.38,19789.6 L1301.05,19772.9 L1312.96,19776.9 M1298.83,19799.7 L1270.59,19790.2 L1268.21,19797.2 L1289.93,19804.6 C1290.09,19806.3 1289.91,19808 1289.35,19809.6 C1288.53,19812 1287.32,19813.8 1285.74,19815.2 L1285.74,19815.6 L1291.73,19819.2 C1293.04,19817.8 1293.99,19816.2 1294.61,19814.3 C1295.62,19811.3 1295.76,19808.2 1295,19805.1 L1297.12,19804.8 L1298.83,19799.7 M1257.57,19826.7 C1254.55,19835.6 1258.55,19843.5 1267.42,19846.5 C1276.22,19849.5 1283.99,19845.7 1287.01,19836.8 C1290.07,19827.7 1286.26,19820 1277.28,19817 C1268.47,19814 1260.59,19817.8 1257.57,19826.7 M1281.47,19834.8 C1279.82,19839.7 1274.85,19841 1269.74,19839.3 C1264.58,19837.5 1261.5,19833.6 1263.21,19828.6 C1264.84,19823.8 1269.85,19822.5 1274.83,19824.2 C1279.78,19825.9 1283.1,19830 1281.47,19834.8 M1258.41,19879.7 C1266.11,19882.3 1271.83,19881.6 1274.55,19873.6 C1275.62,19870.4 1275.92,19866.9 1275.38,19863 L1277.56,19862.6 L1279.27,19857.5 L1251.03,19848 L1248.58,19855.2 L1269.84,19862.4 C1269.93,19865.6 1269.69,19868 1269.14,19869.7 C1267.94,19873.2 1265.03,19873.9 1261.74,19872.8 L1244.59,19867 L1242.15,19874.2 L1258.41,19879.7 M1233.62,19902.6 L1238.98,19903.3 C1239.04,19902.1 1239.24,19899.8 1239.92,19897.8 C1241.23,19893.9 1243.47,19893.7 1245.64,19894.4 L1258.98,19898.9 L1255.68,19908.7 L1261.31,19910.6 L1264.6,19900.8 L1273.48,19903.8 L1275.93,19896.6 L1267.05,19893.6 L1268.64,19888.9 L1263.02,19887 L1261.42,19891.7 L1247.91,19887.1 C1242.92,19885.4 1237.8,19885.1 1234.76,19894.1 C1233.84,19896.8 1233.54,19900.4 1233.62,19902.6 M1262.91,19949.3 C1264.73,19944 1264.16,19939.7 1263.47,19935.7 L1256.76,19936.6 C1257.34,19940.1 1257.61,19943.2 1256.28,19947.1 C1255.15,19950.4 1253.23,19953.2 1249.01,19951.8 C1245.61,19950.6 1243.83,19948.1 1246.36,19940.6 L1247.33,19937.8 L1241.1,19935.7 L1240.1,19938.6 C1237.84,19945.3 1235.55,19949.6 1230.21,19947.7 C1226.45,19946.5 1225.8,19942.4 1227.51,19937.3 C1229.04,19932.8 1231.44,19930.2 1234.46,19926.9 L1229.16,19922 C1225.57,19926.1 1222.92,19929 1220.73,19935.5 C1217.94,19943.7 1219.42,19952.1 1227.47,19954.9 C1233.17,19956.8 1237.33,19955.1 1240.56,19951.8 C1241.53,19954.9 1243.62,19958 1247.26,19959.2 C1254.72,19961.7 1260.33,19957 1262.91,19949.3 "/>
</g>

<g fill="none" stroke="#000000" stroke-opacity="1" stroke-width="1.51181" stroke-linecap="round" stroke-linejoin="round" transform="matrix(1,0,0,1,0,0)"
font-family="Arial" font-size="10.6667" font-weight="400" font-style="normal" 
>
</g>

<g fill="none" stroke="#000000" stroke-opacity="1" stroke-width="1.51181" stroke-linecap="round" stroke-linejoin="round" transform="matrix(1,0,0,1,0,0)"
font-family="Arial" font-size="10.6667" font-weight="400" font-style="normal" 
>
</g>

<g fill="#000000" fill-opacity="1" stroke="#000000" stroke-opacity="1" stroke-width="1" stroke-linecap="square" stroke-linejoin="bevel" transform="matrix(1,0,0,1,0,0)"
font-family="Arial" font-size="10.6667" font-weight="400" font-style="normal" 
>
<path vector-effect="none" fill-rule="evenodd" d="M1237.58,19667.1 L1234.44,19664.6 C1232.57,19666.8 1230.28,19670.2 1228.84,19674.4 C1226.65,19680.9 1228.8,19686 1232.72,19687.3 C1236.76,19688.7 1239.48,19687.3 1243.39,19682.9 C1247.07,19678.8 1248.93,19675.5 1251.89,19676.5 C1254.09,19677.3 1254.37,19680.6 1253,19684.6 C1252.1,19687.3 1250.55,19689.3 1249.52,19690.4 L1252.58,19692.8 C1254.35,19690.9 1256.04,19688.6 1257.1,19685.5 C1258.98,19679.9 1258.82,19673.6 1253.2,19671.7 C1248.48,19670.1 1245.59,19673.4 1243.94,19675.3 C1238.63,19681.2 1237.33,19683.6 1234.72,19682.7 C1232.04,19681.8 1231.86,19678.4 1232.88,19675.4 C1233.86,19672.5 1235.72,19669.5 1237.58,19667.1 M1254.63,19705.1 C1254.05,19706.8 1254.95,19708.6 1256.67,19709.2 C1258.37,19709.8 1260.19,19708.9 1260.78,19707.1 C1261.35,19705.4 1260.45,19703.6 1258.75,19703 C1257.03,19702.5 1255.21,19703.4 1254.63,19705.1 M1250.98,19701.3 L1223.58,19692 L1222.04,19696.6 L1249.44,19705.8 L1250.98,19701.3 M1220.29,19713.9 C1221.48,19710.4 1223.32,19710.9 1225.44,19711.6 L1258.62,19722.9 L1260.22,19718.2 L1225.38,19706.4 C1221.51,19705 1218.04,19706.5 1216.79,19710.2 C1215.89,19712.9 1216.04,19715 1216.29,19716.2 L1219.8,19716.3 C1219.87,19715.5 1219.92,19715 1220.29,19713.9 M1227.15,19772.2 C1235.57,19775.1 1240.69,19771 1243.63,19762.3 L1247.87,19749.8 L1208.54,19736.4 L1206.95,19741.2 L1223.14,19746.6 L1221.5,19751.5 C1218.21,19761.2 1218.07,19769.1 1227.15,19772.2 M1225.53,19753.3 L1227.3,19748 L1242.13,19753.1 L1240.36,19758.3 C1238.05,19765.1 1235.48,19769.7 1229.07,19767.5 C1222.35,19765.2 1223.24,19760 1225.53,19753.3 M1193.01,19780.6 C1190.14,19789.1 1194.37,19796.1 1202.84,19799 C1211.48,19801.9 1218.62,19799.1 1221.53,19790.5 C1224.43,19781.9 1220.42,19775.1 1211.78,19772.1 C1203.26,19769.3 1195.9,19772.1 1193.01,19780.6 M1217.77,19789.2 C1215.88,19794.8 1209.94,19796.1 1204.32,19794.2 C1198.57,19792.3 1194.79,19787.7 1196.69,19782.1 C1198.65,19776.3 1204.34,19774.9 1210.18,19776.9 C1215.93,19778.8 1219.73,19783.5 1217.77,19789.2 M1187.58,19810.6 C1188.77,19807 1190.62,19807.5 1192.73,19808.2 L1225.91,19819.5 L1227.51,19814.8 L1192.67,19803 C1188.81,19801.7 1185.33,19803.1 1184.08,19806.8 C1183.18,19809.5 1183.33,19811.7 1183.58,19812.8 L1187.09,19812.9 C1187.16,19812.1 1187.21,19811.6 1187.58,19810.6 M1202.14,19845.5 L1182.26,19829.4 L1207.84,19828.7 L1209.51,19823.8 L1176.97,19825 L1165.43,19815.3 L1163.82,19820.1 L1200.63,19850 L1202.14,19845.5 M1176.36,19852.1 C1177.06,19850 1176.07,19848.1 1174.07,19847.4 C1172.43,19846.9 1171.04,19847.2 1169.92,19848.7 C1168.63,19847.4 1167.02,19845.8 1165.2,19843.7 L1163.39,19845.1 C1164.64,19848.3 1166.92,19852.8 1171.07,19854.3 C1173.39,19855 1175.61,19854.3 1176.36,19852.1 M1156.37,19888.7 C1155.53,19891.2 1155.12,19894 1155.26,19897.2 L1158.87,19897.2 C1158.82,19895.3 1159.08,19893.4 1159.7,19891.6 C1161.99,19884.8 1166.76,19882.5 1174.15,19885 C1180.57,19887.2 1182.91,19891.7 1180.68,19898.3 C1179.97,19900.4 1179,19902.1 1177.68,19903.6 L1180.76,19905.9 C1182.57,19903.9 1183.89,19901.7 1184.68,19899.4 C1187.82,19890.1 1183.59,19883 1174.88,19880 C1166.2,19877.1 1159.3,19880.1 1156.37,19888.7 M1160.86,19910.4 L1178.19,19916.3 L1179.79,19911.6 L1161.32,19905.3 C1155.52,19903.4 1150.73,19905.4 1148.77,19911.1 C1147.77,19914.1 1147.66,19917.6 1148.28,19921.7 L1145.7,19922.1 L1144.6,19925.3 L1172,19934.6 L1173.59,19929.9 L1151.66,19922.4 C1151.29,19919.2 1151.45,19916.5 1152.22,19914.2 C1153.76,19909.7 1156.26,19908.9 1160.86,19910.4 M1138.06,19942.8 C1137.4,19944.7 1137.19,19946.8 1137.28,19949.2 L1140.89,19949.4 C1140.88,19948.5 1140.96,19947.1 1141.52,19945.5 C1142.71,19942 1144.84,19941.8 1148.48,19943 L1163.25,19948 L1160.21,19957 L1163.97,19958.3 L1167.01,19949.3 L1174.79,19952 L1176.17,19947.2 L1168.61,19944.6 L1170.17,19940 L1166.41,19938.7 L1164.85,19943.3 L1149.74,19938.2 C1143.94,19936.2 1139.98,19937.1 1138.06,19942.8 M1165.71,19982.3 L1161.5,19983 C1162.27,19985.9 1163.1,19989.1 1161.72,19993.2 C1160.1,19998 1156.52,20000.5 1151.74,19998.9 C1146.22,19997 1142.78,19990.9 1132.21,19972 L1129.14,19971 L1121.26,19994.3 L1125.4,19995.7 L1131.06,19979 C1141.69,19997.7 1144.81,20001.8 1150.15,20003.6 C1157.03,20005.9 1163.26,20002.3 1165.61,19995.3 C1167.5,19989.8 1166.79,19986.8 1165.71,19982.3 "/>
</g>

<g fill="none" stroke="#000000" stroke-opacity="1" stroke-width="1.51181" stroke-linecap="round" stroke-linejoin="round" transform="matrix(1,0,0,1,0,0)"
font-family="Arial" font-size="10.6667" font-weight="400" font-style="normal" 
>
</g>

<g fill="none" stroke="#000000" stroke-opacity="1" stroke-width="1.51181" stroke-linecap="round" stroke-linejoin="round" transform="matrix(1,0,0,1,0,0)"
font-family="Arial" font-size="10.6667" font-weight="400" font-style="normal" 
>
</g>

<g fill="none" stroke="#000000" stroke-opacity="1" stroke-width="1" stroke-linecap="square" stroke-linejoin="bevel" transform="matrix(1,0,0,1,0,0)"
font-family="Arial" font-size="10.6667" font-weight="400" font-style="normal" 
>
<path vector-effect="none" fill-rule="nonzero" d="M540,20883 L660,20883 L782,20881 L951,20878 L1133,20873 L1332,20867 L1554,20859 L1935,20844 L2241,20832 L2226,21481 L2207,22291 L2197,22762 L2189,23186 L2185,23478 L2182,23664 L2180,23844 L2179,24019 L2178,24191 L2177,24361 L2177,24530 L2178,24701 L2179,24873 L2180,25048 L2182,25228 L2185,25414 L2189,25706 L2197,26129 L2207,26600 L2226,27410 L2241,28060 L1840,27112 L1611,26573 L1456,26211 L1359,25984 L1266,25769 L1177,25564 L1091,25369 L1008,25181 L927,24999 L847,24823 L767,24650 L688,24480 L648,24395 L540,20883 M538,20826 L659,20826 L781,20825 L950,20821 L1131,20817 L1330,20810 L1552,20802 L1933,20788 L2299,20773 L2282,21483 L2264,22293 L2254,22764 L2246,23187 L2241,23479 L2239,23664 L2237,23844 L2235,24019 L2234,24191 L2234,24361 L2234,24530 L2234,24700 L2235,24872 L2237,25047 L2239,25227 L2241,25413 L2246,25705 L2254,26128 L2264,26599 L2282,27409 L2299,28105 L2207,28125 L1788,27134 L1559,26596 L1404,26233 L1307,26006 L1214,25792 L1125,25587 L1039,25392 L956,25204 L875,25023 L795,24846 L716,24674 L637,24504 L613,24453 L650,24451 L538,20826"/>
</g>

<g fill="none" stroke="#000000" stroke-opacity="1" stroke-width="1.51181" stroke-linecap="round" stroke-linejoin="round" transform="matrix(1,0,0,1,0,0)"
font-family="Arial" font-size="10.6667" font-weight="400" font-style="normal" 
>
</g>

<g fill="none" stroke="#000000" stroke-opacity="1" stroke-width="1.51181" stroke-linecap="round" stroke-linejoin="round" transform="matrix(1,0,0,1,0,0)"
font-family="Arial" font-size="10.6667" font-weight="400" font-style="normal" 
>
</g>

<g fill="#000000" fill-opacity="1" stroke="#000000" stroke-opacity="1" stroke-width="1" stroke-linecap="square" stroke-linejoin="bevel" transform="matrix(1,0,0,1,0,0)"
font-family="Arial" font-size="10.6667" font-weight="400" font-style="normal" 
>
<path vector-effect="none" fill-rule="evenodd" d="M1534.86,21616.7 C1530.09,21616.7 1526.95,21615.7 1523.12,21614.2 L1520.38,21621.5 L1521.31,21621.8 C1525.55,21623.4 1529.22,21624.3 1535.12,21624.3 C1544.44,21624.3 1552.61,21620.1 1552.61,21611.1 C1552.61,21601.8 1545.17,21599.2 1537.88,21597 C1534.05,21595.9 1527.08,21593.8 1527.08,21590.1 C1527.08,21585.5 1532.7,21583.9 1537.67,21583.9 C1541.02,21583.9 1545.23,21584.8 1550.39,21586.8 L1551.67,21587.3 L1554.48,21580.2 L1553.41,21579.6 C1548.19,21577.6 1544.77,21576.3 1538.34,21576.3 C1527.81,21576.3 1518.84,21580.3 1518.84,21590.1 C1518.84,21599.3 1526.41,21601.9 1533.72,21604.1 C1537.27,21605.2 1544.38,21607.5 1544.38,21610.8 C1544.38,21615.2 1539.67,21616.7 1534.86,21616.7 M1490.11,21584.6 L1490.11,21623.4 L1498.14,21623.4 L1511.88,21617.3 L1509.27,21610.7 L1498.34,21615.5 L1498.34,21584.6 L1510.75,21584.6 L1510.75,21577 L1478.92,21577 L1478.92,21584.6 L1490.11,21584.6"/>
</g>

<g fill="none" stroke="#000000" stroke-opacity="1" stroke-width="1.51181" stroke-linecap="round" stroke-linejoin="round" transform="matrix(1,0,0,1,0,0)"
font-family="Arial" font-size="10.6667" font-weight="400" font-style="normal" 
>
</g>

<g fill="none" stroke="#000000" stroke-opacity="1" stroke-width="1.51181" stroke-linecap="round" stroke-linejoin="round" transform="matrix(1,0,0,1,0,0)"
font-family="Arial" font-size="10.6667" font-weight="400" font-style="normal" 
>
</g>

<g fill="#000000" fill-opacity="1" stroke="#000000" stroke-opacity="1" stroke-width="1" stroke-linecap="square" stroke-linejoin="bevel" transform="matrix(1,0,0,1,0,0)"
font-family="Arial" font-size="10.6667" font-weight="400" font-style="normal" 
>
<path vector-effect="none" fill-rule="evenodd" d="M1585.2,21533.4 C1580.73,21533.4 1577.77,21532.4 1574.17,21531 L1571.59,21537.8 L1572.48,21538.2 C1576.45,21539.6 1579.91,21540.5 1585.45,21540.5 C1594.22,21540.5 1601.91,21536.5 1601.91,21528.1 C1601.91,21519.3 1594.91,21516.9 1588.05,21514.8 C1584.45,21513.8 1577.89,21511.8 1577.89,21508.3 C1577.89,21504 1583.19,21502.5 1587.84,21502.5 C1591,21502.5 1594.97,21503.4 1599.83,21505.2 L1601.02,21505.7 L1603.67,21499 L1602.66,21498.5 C1597.75,21496.6 1594.53,21495.4 1588.48,21495.4 C1578.59,21495.4 1570.14,21499.1 1570.14,21508.3 C1570.14,21517 1577.27,21519.4 1584.14,21521.5 C1587.47,21522.5 1594.16,21524.7 1594.16,21527.8 C1594.16,21531.9 1589.73,21533.4 1585.2,21533.4 M1559.5,21530 C1557.05,21530 1554.84,21532.2 1554.84,21534.6 C1554.84,21537.1 1557.05,21539.3 1559.5,21539.3 C1561.95,21539.3 1564.16,21537.1 1564.16,21534.6 C1564.16,21532.2 1561.95,21530 1559.5,21530 M1563.28,21526.3 L1563.28,21496 L1555.72,21496 L1555.72,21526.3 L1563.28,21526.3 M1549.11,21511.3 C1549.11,21501.6 1543.12,21495.4 1533.42,21495.4 C1530.64,21495.4 1527.88,21496.2 1525.17,21497.7 L1524.66,21496 L1519.11,21496 L1519.11,21541.2 L1526.8,21541.2 L1526.8,21525.7 C1528.69,21526.6 1531.09,21527 1534.05,21527 C1543.06,21527 1549.11,21520.6 1549.11,21511.3 M1532.09,21501.4 C1538.27,21501.4 1541.36,21504.6 1541.36,21510.9 C1541.36,21517.6 1538.33,21521 1532.28,21521 C1530.2,21521 1528.38,21520.7 1526.8,21520 L1526.8,21502.9 C1528.38,21501.9 1530.14,21501.4 1532.09,21501.4 M1497.86,21527 C1506.5,21527 1512.11,21519.9 1512.11,21511.2 C1512.11,21501.4 1506.06,21495.4 1495.84,21495.4 C1492.08,21495.4 1488.48,21496.1 1485.02,21497.3 L1486.34,21502.4 C1488.92,21501.8 1491.75,21501.5 1494.84,21501.5 C1500.64,21501.5 1503.92,21503.9 1504.36,21508.6 L1483.5,21508.6 L1483.5,21511.6 C1483.5,21521.5 1488.36,21527 1497.86,21527 M1504.17,21514 C1503.98,21518.2 1501.58,21521 1497.73,21521 C1493.45,21521 1491.06,21518.8 1491.06,21514 L1504.17,21514 M1440.62,21503.1 L1440.62,21539.6 L1448.19,21539.6 L1461.09,21533.9 L1458.64,21527.7 L1448.38,21532.2 L1448.38,21503.1 L1460.03,21503.1 L1460.03,21496 L1430.09,21496 L1430.09,21503.1 L1440.62,21503.1"/>
</g>

<g fill="none" stroke="#000000" stroke-opacity="1" stroke-width="1.51181" stroke-linecap="round" stroke-linejoin="round" transform="matrix(1,0,0,1,0,0)"
font-family="Arial" font-size="10.6667" font-weight="400" font-style="normal" 
>
</g>

<g fill="none" stroke="#000000" stroke-opacity="1" stroke-width="1.51181" stroke-linecap="round" stroke-linejoin="round" transform="matrix(1,0,0,1,0,0)"
font-family="Arial" font-size="10.6667" font-weight="400" font-style="normal" 
>
</g>

<g fill="#000000" fill-opacity="1" stroke="#000000" stroke-opacity="1" stroke-width="1" stroke-linecap="square" stroke-linejoin="bevel" transform="matrix(1,0,0,1,0,0)"
font-family="Arial" font-size="10.6667" font-weight="400" font-style="normal" 
>
<path vector-effect="none" fill-rule="evenodd" d="M1694.8,21424.4 L1696.19,21420.5 C1693.52,21419.4 1689.48,21418.3 1684.91,21418.3 C1677.95,21418.3 1673.81,21422 1673.81,21426.3 C1673.81,21430.6 1675.94,21432.8 1681.48,21435.1 C1686.67,21437.3 1690.39,21438 1690.39,21441.2 C1690.39,21443.6 1687.28,21444.9 1682.95,21444.9 C1680.09,21444.9 1677.7,21444.1 1676.25,21443.5 L1674.97,21447.2 C1677.34,21448.3 1680.16,21449.1 1683.5,21449.1 C1689.48,21449.1 1695.47,21446.9 1695.47,21440.9 C1695.47,21435.8 1691.38,21434.1 1689,21433.2 C1681.55,21430 1678.88,21429.5 1678.88,21426.7 C1678.88,21423.8 1682.05,21422.5 1685.28,21422.5 C1688.39,21422.5 1691.92,21423.3 1694.8,21424.4 M1664.3,21453.2 C1662.45,21453.2 1661,21454.6 1661,21456.5 C1661,21458.3 1662.45,21459.8 1664.3,21459.8 C1666.12,21459.8 1667.58,21458.3 1667.58,21456.5 C1667.58,21454.6 1666.12,21453.2 1664.3,21453.2 M1666.73,21448.4 L1666.73,21419 L1661.84,21419 L1661.84,21448.4 L1666.73,21448.4 M1644.77,21423 C1648.55,21423 1648.67,21424.9 1648.67,21427.2 L1648.67,21462.8 L1653.73,21462.8 L1653.73,21425.4 C1653.73,21421.2 1651.17,21418.4 1647.2,21418.4 C1644.33,21418.4 1642.33,21419.2 1641.28,21419.9 L1642.33,21423.3 C1643.11,21423.1 1643.61,21423 1644.77,21423 M1590.45,21448.6 C1590.45,21457.6 1596.06,21461.2 1605.39,21461.2 L1618.81,21461.2 L1618.81,21419 L1613.75,21419 L1613.75,21436.4 L1608.56,21436.4 C1598.14,21436.4 1590.45,21438.8 1590.45,21448.6 M1608.14,21440.8 L1613.75,21440.8 L1613.75,21456.8 L1608.14,21456.8 C1600.81,21456.8 1595.58,21455.8 1595.58,21448.9 C1595.58,21441.7 1600.88,21440.8 1608.14,21440.8 M1570.8,21418.5 C1561.7,21418.5 1556.34,21424.8 1556.34,21433.9 C1556.34,21443.2 1561.34,21449.1 1570.55,21449.1 C1579.77,21449.1 1585.08,21443 1585.08,21433.8 C1585.08,21424.6 1579.95,21418.5 1570.8,21418.5 M1570.55,21445.1 C1564.58,21445.1 1561.41,21439.8 1561.41,21433.8 C1561.41,21427.6 1564.52,21422.5 1570.55,21422.5 C1576.78,21422.5 1580.02,21427.5 1580.02,21433.8 C1580.02,21439.9 1576.78,21445.1 1570.55,21445.1 M1539.77,21423 C1543.55,21423 1543.67,21424.9 1543.67,21427.2 L1543.67,21462.8 L1548.73,21462.8 L1548.73,21425.4 C1548.73,21421.2 1546.17,21418.4 1542.2,21418.4 C1539.33,21418.4 1537.33,21419.2 1536.28,21419.9 L1537.33,21423.3 C1538.11,21423.1 1538.61,21423 1539.77,21423 M1511.11,21448.4 L1520.14,21424 L1529.17,21448.4 L1534.47,21448.4 L1522.64,21417.5 L1528.25,21403.2 L1523.12,21403.2 L1506.3,21448.4 L1511.11,21448.4 M1495.95,21425.7 C1498.14,21425.7 1499.67,21424.1 1499.67,21422 C1499.67,21420.2 1498.88,21419 1497.11,21418.4 C1497.91,21416.8 1498.94,21414.7 1500.34,21412.2 L1498.39,21411 C1495.7,21413.2 1492.11,21416.9 1492.11,21421.3 C1492.11,21423.8 1493.56,21425.7 1495.95,21425.7 M1453.67,21418.4 C1450.98,21418.4 1448.12,21418.9 1445.14,21420.1 L1446.3,21423.6 C1448.12,21422.9 1450.02,21422.5 1451.97,21422.5 C1459.22,21422.5 1463.02,21426.4 1463.02,21434.3 C1463.02,21441.2 1459.47,21444.9 1452.39,21444.9 C1450.14,21444.9 1448.12,21444.6 1446.3,21443.8 L1445.08,21447.5 C1447.58,21448.6 1450.14,21449.1 1452.64,21449.1 C1462.58,21449.1 1468.08,21442.7 1468.08,21433.4 C1468.08,21424.1 1462.95,21418.4 1453.67,21418.4 M1433.67,21429.8 L1433.67,21448.4 L1438.73,21448.4 L1438.73,21428.6 C1438.73,21422.4 1435.25,21418.4 1429.03,21418.4 C1425.86,21418.4 1422.44,21419.4 1418.66,21421.4 L1417.5,21419 L1414.02,21419 L1414.02,21448.4 L1419.09,21448.4 L1419.09,21424.9 C1422.08,21423.5 1424.77,21422.7 1427.2,21422.7 C1432.08,21422.7 1433.67,21424.9 1433.67,21429.8 M1395.61,21418.4 C1393.53,21418.4 1391.45,21418.9 1389.2,21419.7 L1390.17,21423.3 C1391.03,21423 1392.38,21422.6 1394.14,21422.6 C1397.92,21422.6 1398.78,21424.6 1398.78,21428.5 L1398.78,21444.4 L1389.14,21444.4 L1389.14,21448.4 L1398.78,21448.4 L1398.78,21456.8 L1403.84,21456.5 L1403.84,21448.4 L1408.78,21448.4 L1408.78,21444.4 L1403.84,21444.4 L1403.84,21428.2 C1403.84,21421.9 1401.7,21418.4 1395.61,21418.4 M1366.19,21457.9 L1364.17,21454.1 C1361.61,21455.8 1358.8,21457.6 1354.41,21457.6 C1349.28,21457.6 1345.69,21455 1345.69,21449.9 C1345.69,21444 1350.44,21438.6 1365.2,21422.3 L1365.2,21419 L1340.19,21419 L1340.19,21423.5 L1358.12,21423.5 C1343.55,21439.8 1340.62,21444.1 1340.62,21449.9 C1340.62,21457.2 1346.17,21462.1 1353.61,21462.1 C1359.59,21462.1 1362.22,21460.4 1366.19,21457.9 "/>
</g>

<g fill="none" stroke="#000000" stroke-opacity="1" stroke-width="1.51181" stroke-linecap="round" stroke-linejoin="round" transform="matrix(1,0,0,1,0,0)"
font-family="Arial" font-size="10.6667" font-weight="400" font-style="normal" 
>
</g>

<g fill="none" stroke="#000000" stroke-opacity="1" stroke-width="1.51181" stroke-linecap="round" stroke-linejoin="round" transform="matrix(1,0,0,1,0,0)"
font-family="Arial" font-size="10.6667" font-weight="400" font-style="normal" 
>
</g>

<g fill="none" stroke="#000000" stroke-opacity="1" stroke-width="1" stroke-linecap="square" stroke-linejoin="bevel" transform="matrix(1,0,0,1,0,0)"
font-family="Arial" font-size="10.6667" font-weight="400" font-style="normal" 
>
<path vector-effect="none" fill-rule="nonzero" d="M2197.9,28191 L2155.9,29456 L1959.9,29590 L1806.9,29696 L1658.9,29798 L1514.9,29899 L1374.9,29998 L1235.9,30097 L1098.9,30196 L961.9,30297 L822.9,30399 L682.9,30504 L538.9,30612 L389.9,30724 L201.9,30868 L228.9,28190 L2197.9,28191 M229.9,28133 L2199.9,28134 L2152.9,29527 L1991.9,29637 L1838.9,29742 L1690.9,29845 L1547.9,29945 L1407.9,30044 L1268.9,30143 L1131.9,30242 L994.9,30342 L856.9,30444 L716.9,30549 L572.9,30657 L424.9,30769 L200.9,30940 L229.9,28133"/>
</g>

<g fill="none" stroke="#000000" stroke-opacity="1" stroke-width="1.51181" stroke-linecap="round" stroke-linejoin="round" transform="matrix(1,0,0,1,0,0)"
font-family="Arial" font-size="10.6667" font-weight="400" font-style="normal" 
>
</g>

<g fill="none" stroke="#000000" stroke-opacity="1" stroke-width="1.51181" stroke-linecap="round" stroke-linejoin="round" transform="matrix(1,0,0,1,0,0)"
font-family="Arial" font-size="10.6667" font-weight="400" font-style="normal" 
>
</g>

<g fill="#000000" fill-opacity="1" stroke="#000000" stroke-opacity="1" stroke-width="1" stroke-linecap="square" stroke-linejoin="bevel" transform="matrix(1,0,0,1,0,0)"
font-family="Arial" font-size="10.6667" font-weight="400" font-style="normal" 
>
<path vector-effect="none" fill-rule="evenodd" d="M1134.93,29265.4 L1110.56,29265.4 L1110.56,29273.9 L1144.15,29273.9 L1144.15,29222 L1134.93,29222 L1134.93,29241.7 L1113.56,29241.7 L1113.56,29250.2 L1134.93,29250.2 L1134.93,29265.4 M1104.43,29269.6 L1100.53,29262.2 C1096.99,29264.5 1093.62,29266.5 1087.99,29266.5 C1082.23,29266.5 1078.78,29264 1078.78,29259 C1078.78,29253.5 1084.56,29246.2 1102.78,29227.8 L1102.78,29222 L1069.03,29222 L1069.03,29230 L1089.2,29230 C1073.31,29247 1069.56,29252.3 1069.56,29259.3 C1069.56,29268.8 1077.2,29275 1087.03,29275 C1095.2,29275 1099.32,29272.6 1104.43,29269.6 "/>
</g>

<g fill="none" stroke="#000000" stroke-opacity="1" stroke-width="1.51181" stroke-linecap="round" stroke-linejoin="round" transform="matrix(1,0,0,1,0,0)"
font-family="Arial" font-size="10.6667" font-weight="400" font-style="normal" 
>
</g>

<g fill="none" stroke="#000000" stroke-opacity="1" stroke-width="1.51181" stroke-linecap="round" stroke-linejoin="round" transform="matrix(1,0,0,1,0,0)"
font-family="Arial" font-size="10.6667" font-weight="400" font-style="normal" 
>
</g>

<g fill="#000000" fill-opacity="1" stroke="#000000" stroke-opacity="1" stroke-width="1" stroke-linecap="square" stroke-linejoin="bevel" transform="matrix(1,0,0,1,0,0)"
font-family="Arial" font-size="10.6667" font-weight="400" font-style="normal" 
>
<path vector-effect="none" fill-rule="evenodd" d="M1213.7,29172.1 L1190.62,29172.1 L1190.62,29180.1 L1222.43,29180.1 L1222.43,29131 L1213.7,29131 L1213.7,29149.7 L1193.46,29149.7 L1193.46,29157.7 L1213.7,29157.7 L1213.7,29172.1 M1183.71,29165.2 L1183.71,29131 L1175.2,29131 L1175.2,29157.3 C1173.42,29158 1171.51,29158.5 1169.51,29158.5 C1166.6,29158.5 1164.2,29157.8 1162.13,29156.6 L1161.7,29156.8 L1159.99,29164.6 C1161.99,29165.5 1164.12,29165.9 1166.32,29165.9 C1169.95,29165.9 1173.35,29164.9 1176.54,29163 L1177.6,29165.2 L1183.71,29165.2 M1139.95,29130.3 C1129.17,29130.3 1122.06,29137.5 1122.06,29148.2 C1122.06,29158.9 1129.03,29165.9 1139.81,29165.9 C1150.74,29165.9 1157.7,29159 1157.7,29148.1 C1157.7,29137.5 1150.74,29130.3 1139.95,29130.3 M1139.95,29159.2 C1134.06,29159.2 1130.79,29154.3 1130.79,29148.1 C1130.79,29141.9 1133.85,29137.1 1139.95,29137.1 C1145.78,29137.1 1148.96,29142.1 1148.96,29148.1 C1148.96,29154.1 1145.78,29159.2 1139.95,29159.2 M1082.98,29150.7 C1082.98,29160 1085.82,29165.9 1095.54,29165.9 C1099.38,29165.9 1103.35,29164.9 1107.34,29163 L1108.6,29165.2 L1114.71,29165.2 L1114.71,29131 L1105.98,29131 L1105.98,29156.7 C1102.51,29158 1099.81,29158.6 1097.82,29158.6 C1093.56,29158.6 1091.71,29155.7 1091.71,29151.7 L1091.71,29131 L1082.98,29131 L1082.98,29150.7 M1049.21,29132.2 L1050.49,29138.2 C1051.78,29137.9 1054.4,29137.2 1056.82,29137.2 C1061.51,29137.2 1062.57,29139.6 1062.57,29142.2 L1062.57,29158.3 L1050.78,29158.3 L1050.78,29165.2 L1062.57,29165.2 L1062.57,29175.9 L1071.31,29175.9 L1071.31,29165.2 L1076.98,29165.2 L1076.98,29158.3 L1071.31,29158.3 L1071.31,29142 C1071.31,29136 1069.81,29130.3 1058.95,29130.3 C1055.68,29130.3 1051.63,29131.3 1049.21,29132.2 M1024.63,29176.1 L1020.95,29169.1 C1017.6,29171.2 1014.42,29173.1 1009.09,29173.1 C1003.62,29173.1 1000.35,29170.8 1000.35,29166 C1000.35,29160.8 1005.82,29153.9 1023.07,29136.5 L1023.07,29131 L991.119,29131 L991.119,29138.6 L1010.23,29138.6 C995.166,29154.7 991.619,29159.7 991.619,29166.4 C991.619,29175.3 998.869,29181.1 1008.17,29181.1 C1015.9,29181.1 1019.81,29178.9 1024.63,29176.1 "/>
</g>

<g fill="none" stroke="#000000" stroke-opacity="1" stroke-width="1.51181" stroke-linecap="round" stroke-linejoin="round" transform="matrix(1,0,0,1,0,0)"
font-family="Arial" font-size="10.6667" font-weight="400" font-style="normal" 
>
</g>

<g fill="none" stroke="#000000" stroke-opacity="1" stroke-width="1.51181" stroke-linecap="round" stroke-linejoin="round" transform="matrix(1,0,0,1,0,0)"
font-family="Arial" font-size="10.6667" font-weight="400" font-style="normal" 
>
</g>

<g fill="#000000" fill-opacity="1" stroke="#000000" stroke-opacity="1" stroke-width="1" stroke-linecap="square" stroke-linejoin="bevel" transform="matrix(1,0,0,1,0,0)"
font-family="Arial" font-size="10.6667" font-weight="400" font-style="normal" 
>
<path vector-effect="none" fill-rule="evenodd" d="M1307.63,29049.1 L1309.23,29044.7 C1306.2,29043.5 1301.63,29042.2 1296.46,29042.2 C1288.59,29042.2 1283.9,29046.5 1283.9,29051.2 C1283.9,29056.1 1286.32,29058.6 1292.6,29061.2 C1298.46,29063.7 1302.67,29064.5 1302.67,29068.1 C1302.67,29070.8 1299.15,29072.3 1294.26,29072.3 C1291.01,29072.3 1288.32,29071.4 1286.67,29070.7 L1285.21,29074.9 C1287.9,29076.1 1291.07,29077.1 1294.87,29077.1 C1301.63,29077.1 1308.4,29074.6 1308.4,29067.8 C1308.4,29062 1303.78,29060.1 1301.09,29059 C1292.67,29055.4 1289.63,29054.9 1289.63,29051.7 C1289.63,29048.5 1293.21,29047 1296.87,29047 C1300.4,29047 1304.4,29047.9 1307.63,29049.1 M1272.81,29081.6 C1270.74,29081.6 1269.09,29083.3 1269.09,29085.4 C1269.09,29087.4 1270.74,29089.1 1272.81,29089.1 C1274.88,29089.1 1276.54,29087.4 1276.54,29085.4 C1276.54,29083.3 1274.88,29081.6 1272.81,29081.6 M1275.57,29076.3 L1275.57,29043 L1270.06,29043 L1270.06,29076.3 L1275.57,29076.3 M1250.43,29047.5 C1254.71,29047.5 1254.84,29049.7 1254.84,29052.2 L1254.84,29092.5 L1260.57,29092.5 L1260.57,29050.2 C1260.57,29045.5 1257.67,29042.3 1253.18,29042.3 C1249.95,29042.3 1247.67,29043.3 1246.49,29044 L1247.67,29047.8 C1248.56,29047.6 1249.12,29047.5 1250.43,29047.5 M1188.45,29076.5 C1188.45,29086.7 1194.79,29090.8 1205.35,29090.8 L1220.54,29090.8 L1220.54,29043 L1214.81,29043 L1214.81,29062.7 L1208.95,29062.7 C1197.15,29062.7 1188.45,29065.4 1188.45,29076.5 M1208.46,29067.7 L1214.81,29067.7 L1214.81,29085.7 L1208.46,29085.7 C1200.18,29085.7 1194.24,29084.6 1194.24,29076.8 C1194.24,29068.7 1200.24,29067.7 1208.46,29067.7 M1166.95,29042.4 C1156.67,29042.4 1150.59,29049.6 1150.59,29059.8 C1150.59,29070.3 1156.24,29077.1 1166.67,29077.1 C1177.09,29077.1 1183.09,29070.2 1183.09,29059.7 C1183.09,29049.3 1177.29,29042.4 1166.95,29042.4 M1166.67,29072.5 C1159.9,29072.5 1156.32,29066.5 1156.32,29059.7 C1156.32,29052.7 1159.84,29046.9 1166.67,29046.9 C1173.7,29046.9 1177.37,29052.6 1177.37,29059.7 C1177.37,29066.7 1173.7,29072.5 1166.67,29072.5 M1132.43,29047.5 C1136.71,29047.5 1136.84,29049.7 1136.84,29052.2 L1136.84,29092.5 L1142.57,29092.5 L1142.57,29050.2 C1142.57,29045.5 1139.67,29042.3 1135.18,29042.3 C1131.95,29042.3 1129.67,29043.3 1128.49,29044 L1129.67,29047.8 C1130.56,29047.6 1131.12,29047.5 1132.43,29047.5 M1099.24,29076.3 L1109.46,29048.7 L1119.67,29076.3 L1125.68,29076.3 L1112.29,29041.3 L1118.63,29025.1 L1112.84,29025.1 L1093.79,29076.3 L1099.24,29076.3 M1082.29,29050.6 C1084.78,29050.6 1086.49,29048.8 1086.49,29046.4 C1086.49,29044.4 1085.6,29043 1083.6,29042.3 C1084.49,29040.5 1085.67,29038.1 1087.26,29035.3 L1085.06,29033.9 C1082.01,29036.4 1077.95,29040.6 1077.95,29045.6 C1077.95,29048.5 1079.6,29050.6 1082.29,29050.6 M1034.81,29042.3 C1031.78,29042.3 1028.53,29042.9 1025.15,29044.2 L1026.46,29048.2 C1028.53,29047.4 1030.67,29047 1032.87,29047 C1041.09,29047 1045.37,29051.3 1045.37,29060.3 C1045.37,29068.1 1041.35,29072.3 1033.35,29072.3 C1030.81,29072.3 1028.53,29071.9 1026.46,29071 L1025.07,29075.2 C1027.9,29076.5 1030.81,29077.1 1033.63,29077.1 C1044.88,29077.1 1051.09,29069.8 1051.09,29059.3 C1051.09,29048.7 1045.29,29042.3 1034.81,29042.3 M1012.84,29055.2 L1012.84,29076.3 L1018.57,29076.3 L1018.57,29053.8 C1018.57,29046.8 1014.63,29042.3 1007.6,29042.3 C1004.01,29042.3 1000.15,29043.5 995.869,29045.7 L994.556,29043 L990.619,29043 L990.619,29076.3 L996.353,29076.3 L996.353,29049.6 C999.728,29048 1002.78,29047.2 1005.53,29047.2 C1011.06,29047.2 1012.84,29049.6 1012.84,29055.2 M970.119,29042.3 C967.775,29042.3 965.431,29042.9 962.869,29043.8 L963.978,29047.8 C964.947,29047.5 966.463,29047.1 968.463,29047.1 C972.744,29047.1 973.697,29049.3 973.697,29053.8 L973.697,29071.7 L962.806,29071.7 L962.806,29076.3 L973.697,29076.3 L973.697,29085.7 L979.431,29085.4 L979.431,29076.3 L985.025,29076.3 L985.025,29071.7 L979.431,29071.7 L979.431,29053.3 C979.431,29046.3 977.009,29042.3 970.119,29042.3 M936.947,29087 L934.666,29082.7 C931.775,29084.6 928.603,29086.7 923.634,29086.7 C917.838,29086.7 913.759,29083.7 913.759,29077.9 C913.759,29071.2 919.15,29065.2 935.838,29046.7 L935.838,29043 L907.556,29043 L907.556,29048 L927.838,29048 C911.353,29066.5 908.041,29071.4 908.041,29077.9 C908.041,29086.3 914.322,29091.7 922.728,29091.7 C929.494,29091.7 932.463,29089.8 936.947,29087 "/>
</g>

<g fill="none" stroke="#000000" stroke-opacity="1" stroke-width="1.51181" stroke-linecap="round" stroke-linejoin="round" transform="matrix(1,0,0,1,0,0)"
font-family="Arial" font-size="10.6667" font-weight="400" font-style="normal" 
>
</g>

<g fill="none" stroke="#000000" stroke-opacity="1" stroke-width="1.51181" stroke-linecap="round" stroke-linejoin="round" transform="matrix(1,0,0,1,0,0)"
font-family="Arial" font-size="10.6667" font-weight="400" font-style="normal" 
>
</g>
</g>
</svg>
