<?xml version="1.0" encoding="UTF-8" standalone="no"?>
<svg
   xmlns:dc="http://purl.org/dc/elements/1.1/"
   xmlns:cc="http://creativecommons.org/ns#"
   xmlns:rdf="http://www.w3.org/1999/02/22-rdf-syntax-ns#"
   xmlns:svg="http://www.w3.org/2000/svg"
   xmlns="http://www.w3.org/2000/svg"
   xmlns:sodipodi="http://sodipodi.sourceforge.net/DTD/sodipodi-0.dtd"
   xmlns:inkscape="http://www.inkscape.org/namespaces/inkscape"
   width="549.59985mm"
   height="3366.9863mm"
   viewBox="0 0 2077.2279 12725.623"
   version="1.2"
   id="svg4288"
   inkscape:version="0.91 r13725"
   sodipodi:docname="mid_Front_large1.svg">
  <metadata
     id="metadata4400">
    <rdf:RDF>
      <cc:Work
         rdf:about="">
        <dc:format>image/svg+xml</dc:format>
        <dc:type
           rdf:resource="http://purl.org/dc/dcmitype/StillImage" />
        <dc:title>Valentina. Pattern layout</dc:title>
      </cc:Work>
    </rdf:RDF>
  </metadata>
  <sodipodi:namedview
     pagecolor="#ffffff"
     bordercolor="#666666"
     borderopacity="1"
     objecttolerance="10"
     gridtolerance="10"
     guidetolerance="10"
     inkscape:pageopacity="0"
     inkscape:pageshadow="2"
     inkscape:window-width="1920"
     inkscape:window-height="1136"
     id="namedview4398"
     showgrid="false"
     fit-margin-top="0"
     fit-margin-left="0"
     fit-margin-right="0"
     fit-margin-bottom="0"
     inkscape:zoom="0.10152202"
     inkscape:cx="-675.12193"
     inkscape:cy="7300.4236"
     inkscape:window-x="1366"
     inkscape:window-y="27"
     inkscape:window-maximized="1"
     inkscape:current-layer="svg4288" />
  <title
     id="title4290">Valentina. Pattern layout</title>
  <defs
     id="defs4292" />
  <g
     style="font-style:normal;font-weight:400;font-size:10.66670036px;font-family:Arial;fill:none;fill-rule:evenodd;stroke:#000000;stroke-width:1.51180995;stroke-linecap:round;stroke-linejoin:round;stroke-opacity:1"
     id="g4296"
     font-style="normal"
     font-weight="400"
     font-size="10.6667"
     transform="translate(-52.617257,-20.516523)" />
  <g
     style="font-style:normal;font-weight:400;font-size:10.66670036px;font-family:Arial;fill:none;fill-rule:evenodd;stroke:#000000;stroke-width:1.51180995;stroke-linecap:round;stroke-linejoin:round;stroke-opacity:1"
     id="g4298"
     font-style="normal"
     font-weight="400"
     font-size="10.6667"
     transform="translate(-52.617257,-20.516523)" />
  <g
     style="font-style:normal;font-weight:400;font-size:10.66670036px;font-family:Arial;fill:none;fill-rule:evenodd;stroke:#000000;stroke-width:1.51180995;stroke-linecap:round;stroke-linejoin:round;stroke-opacity:1"
     id="g4300"
     font-style="normal"
     font-weight="400"
     font-size="10.6667"
     transform="translate(-52.617257,-20.516523)" />
  <g
     style="font-style:normal;font-weight:400;font-size:10.66670036px;font-family:Arial;fill:none;fill-rule:evenodd;stroke:#000000;stroke-width:1.51180995;stroke-linecap:round;stroke-linejoin:round;stroke-opacity:1"
     id="g4306"
     font-style="normal"
     font-weight="400"
     font-size="10.6667"
     transform="translate(-52.617257,-20.516523)" />
  <g
     style="font-style:normal;font-weight:400;font-size:10.66670036px;font-family:Arial;fill:none;fill-rule:evenodd;stroke:#000000;stroke-width:1.51180995;stroke-linecap:round;stroke-linejoin:round;stroke-opacity:1"
     id="g4308"
     font-style="normal"
     font-weight="400"
     font-size="10.6667"
     transform="translate(-52.617257,-20.516523)" />
  <g
     style="font-style:normal;font-weight:400;font-size:10.66670036px;font-family:Arial;fill:none;fill-rule:evenodd;stroke:#000000;stroke-width:1.51180995;stroke-linecap:round;stroke-linejoin:round;stroke-opacity:1"
     id="g4314"
     font-style="normal"
     font-weight="400"
     font-size="10.6667"
     transform="translate(-52.617257,-20.516523)" />
  <g
     style="font-style:normal;font-weight:400;font-size:10.66670036px;font-family:Arial;fill:none;fill-rule:evenodd;stroke:#000000;stroke-width:1.51180995;stroke-linecap:round;stroke-linejoin:round;stroke-opacity:1"
     id="g4316"
     font-style="normal"
     font-weight="400"
     font-size="10.6667"
     transform="translate(-52.617257,-20.516523)" />
  <g
     style="font-style:normal;font-weight:400;font-size:10.66670036px;font-family:Arial;fill:none;fill-rule:evenodd;stroke:#000000;stroke-width:1.51180995;stroke-linecap:round;stroke-linejoin:round;stroke-opacity:1"
     id="g4322"
     font-style="normal"
     font-weight="400"
     font-size="10.6667"
     transform="translate(-52.617257,-20.516523)" />
  <g
     style="font-style:normal;font-weight:400;font-size:10.66670036px;font-family:Arial;fill:none;fill-rule:evenodd;stroke:#000000;stroke-width:1.51180995;stroke-linecap:round;stroke-linejoin:round;stroke-opacity:1"
     id="g4324"
     font-style="normal"
     font-weight="400"
     font-size="10.6667"
     transform="translate(-52.617257,-20.516523)" />
  <g
     id="g4453"
     transform="matrix(1,0,0,-1,-294.30261,6353.9871)">
    <g
       font-size="10.6667"
       font-weight="400"
       font-style="normal"
       id="g4302"
       style="font-style:normal;font-weight:400;font-size:10.66670036px;font-family:Arial;fill:none;fill-rule:evenodd;stroke:#000000;stroke-width:1;stroke-linecap:square;stroke-linejoin:bevel;stroke-opacity:1">
      <path
         vector-effect="none"
         d="m 2298.88,56.6126 -28.1,6239.3174 -131.13,-13.26 -128.27,-12.34 -134.29,-13.21 -213.78,-20.57 -314.15,-28.28 -541.175,-46.75 -432.883,-37.59 278.994,-770.73 157.05,-439.06 106.344,-295.69 65.912,-184.72 62.238,-176.44 58.26,-167.21 55.5,-161.79 53.08,-154.17 50.92,-150.66 48.45,-146.19 47.85,-144.29 45.33,-142.98 45.04,-142.03 45.33,-142.99 43.74,-144.54 44.94,-148.36 44.89,-151.51 45.76,-157.54 47.57,-163.26 49.03,-171.19 50.5,-179.11 52.87,-189.9 83.46,-302.94 L 2082.8,847.283 2298.88,56.6126 M 2255.99,0 2299,0 l -28.64,6353.49 -135.9,-14.76 -129.22,-12.65 -134.29,-13.21 -213.13,-19.32 -314.14,-28.27 -539.927,-47.4 -507.607,-43.46 304.22,-840.35 158.004,-438.77 105.39,-295.99 65.913,-184.71 61.936,-175.49 58.561,-168.16 56.15,-160.54 52.43,-155.43 50.61,-149.7 48.46,-146.19 47.54,-143.34 46.29,-142.68 45.04,-142.03 44.08,-142.33 43.73,-144.54 44.94,-148.36 44.9,-151.52 46.4,-156.28 46.62,-163.56 49.03,-171.19 50.5,-179.11 52.87,-189.9 84.42,-302.64 L 2027.86,831.961 2255.99,0"
         id="path4304"
         inkscape:connector-curvature="0"
         style="fill-rule:nonzero" />
    </g>
    <g
       font-size="10.6667"
       font-weight="400"
       font-style="normal"
       id="g4310"
       style="font-style:normal;font-weight:400;font-size:10.66670036px;font-family:Arial;fill:#000000;fill-opacity:1;fill-rule:evenodd;stroke:#000000;stroke-width:1;stroke-linecap:square;stroke-linejoin:bevel;stroke-opacity:1">
      <path
         vector-effect="none"
         d="m 1794.33,4446.95 -5.6,17.66 6.15,1.95 7.73,-24.35 -37.61,-11.92 -2.12,6.68 14.3,4.54 -4.92,15.49 6.14,1.94 4.91,-15.49 11.02,3.5 m -37.48,24.86 c 0.81,-2.56 2.54,-2.55 5.11,-1.74 l 30.32,9.62 2.12,-6.69 -32.23,-10.22 c -3.69,-1.17 -7.69,-1.18 -9.45,4.36 -0.95,3 -0.56,6.28 -0.56,6.28 l 4.3,0.17 c 0,0 0.09,-0.85 0.39,-1.78 m 28.14,15.2 -6.27,1.13 c 0.81,3.08 1.51,5.99 0.22,10.05 -1.33,4.19 -3.92,6.12 -7.56,4.97 -3.98,-1.26 -7.97,-7.14 -17.1,-24.55 l -4.18,-1.33 -7.75,24.44 5.81,1.84 4.63,-14.61 c 8.7,15.43 11.63,19.36 16.74,20.98 6.85,2.17 13.06,-1.96 15.32,-9.08 1.88,-5.93 1.14,-9.45 0.14,-13.84"
         id="path4312"
         inkscape:connector-curvature="0"
         style="fill-rule:evenodd" />
    </g>
    <g
       font-size="10.6667"
       font-weight="400"
       font-style="normal"
       id="g4318"
       style="font-style:normal;font-weight:400;font-size:10.66670036px;font-family:Arial;fill:#000000;fill-opacity:1;fill-rule:evenodd;stroke:#000000;stroke-width:1;stroke-linecap:square;stroke-linejoin:bevel;stroke-opacity:1">
      <path
         vector-effect="none"
         d="m 1790.86,4225.27 -5.2,16.41 5.7,1.81 7.18,-22.64 -34.96,-11.09 -1.97,6.23 13.28,4.21 -4.56,14.39 5.71,1.81 4.56,-14.39 10.26,3.26 m -11.69,19.65 -24.29,-7.71 -1.92,6.07 18.69,5.92 c 0.15,1.44 0.03,2.9 -0.42,4.31 -0.65,2.07 -1.66,3.66 -2.99,4.84 l 0.01,0.33 5.17,2.98 c 1.1,-1.2 1.9,-2.62 2.39,-4.19 0.82,-2.57 0.88,-5.23 0.18,-7.95 l 1.8,-0.25 1.38,-4.35 m -34.7,23.37 c -2.43,7.67 1.12,14.35 8.75,16.77 7.58,2.4 14.15,-0.96 16.58,-8.63 2.47,-7.79 -0.92,-14.3 -8.65,-16.75 -7.57,-2.4 -14.24,0.92 -16.68,8.61 m 20.55,6.51 c -1.32,4.19 -5.54,5.41 -9.94,4.02 -4.44,-1.41 -7.13,-4.66 -5.75,-8.99 1.31,-4.14 5.56,-5.3 9.85,-3.94 4.25,1.34 7.16,4.77 5.84,8.91 m -19.03,39 c 6.63,2.1 11.51,1.42 13.71,-5.49 0.86,-2.74 1.04,-5.78 0.52,-9.06 l 1.86,-0.42 1.38,-4.34 -24.3,-7.71 -1.97,6.21 18.29,5.8 c 0.13,2.76 -0.03,4.83 -0.48,6.24 -0.97,3.04 -3.45,3.69 -6.28,2.8 l -14.75,-4.68 -1.97,6.21 13.99,4.44 m -20.56,19.28 4.58,0.45 c 0.04,-0.99 0.17,-3.01 0.71,-4.72 1.06,-3.34 2.97,-3.57 4.85,-2.98 l 11.47,3.64 -2.66,8.39 4.84,1.53 2.66,-8.38 7.62,2.41 1.97,-6.21 -7.62,-2.41 1.27,-4.04 -4.84,-1.54 -1.28,4.04 -11.61,-3.68 c -4.31,-1.37 -8.68,-1.59 -11.13,6.14 -0.74,2.32 -0.94,5.44 -0.83,7.36 m -5.15,28 c 0.75,-2.37 2.35,-2.37 4.74,-1.61 l 28.18,8.93 1.97,-6.21 -29.96,-9.49 c -3.44,-1.09 -7.15,-1.11 -8.79,4.04 -0.88,2.79 -0.52,5.85 -0.52,5.85 l 4.01,0.16 c 0,0 0.09,-0.81 0.37,-1.67 m 2.44,29.62 c 7.03,2.23 10.99,-0.44 13.4,-8.03 0.67,-2.13 0.97,-5.03 0.93,-8.72 l -4.56,-0.37 c 0.15,2.53 -0.06,4.75 -0.67,6.67 -1.46,4.6 -2.93,5.58 -7.22,4.21 l 1.33,-5.08 c 1.48,-5.74 0.76,-11.04 -4.64,-12.75 -4.65,-1.47 -8.5,1.58 -10.04,6.44 -0.91,2.87 -0.91,5.48 -0.06,7.87 l -1.93,0.17 -1.54,4.84 15,4.75 m -7.52,-9.21 c -0.4,-1.58 -0.54,-3.22 0.17,-5.46 0.71,-2.22 2.24,-3.73 4.41,-3.04 1.86,0.59 2.44,2.49 1.58,5.73 l -1.07,4.38 -5.09,-1.61 m 14.71,18.8 -24.3,-7.7 -1.92,6.06 18.69,5.93 c 0.15,1.44 0.04,2.9 -0.41,4.31 -0.66,2.07 -1.67,3.65 -2.99,4.84 l 0.01,0.33 5.16,2.98 c 1.11,-1.21 1.9,-2.63 2.4,-4.19 0.81,-2.58 0.87,-5.23 0.18,-7.96 l 1.8,-0.25 1.38,-4.35 m -41.87,18.27 c 0.55,-1.73 1.6,-3.67 3.22,-5.77 l 0.68,-0.9 -3.97,-3.09 -0.71,0.84 c -1.92,2.39 -3.34,5.1 -4.27,8.04 -2.72,8.58 0.67,14.88 8.55,17.38 l 24.91,7.89 1.36,-4.28 -1.3,-1.02 c 2.08,-1.97 3.53,-4.28 4.35,-6.85 2.29,-7.23 -1.34,-13.32 -8.87,-15.71 -7.78,-2.47 -14.3,0.74 -16.77,8.51 -0.73,2.33 -0.64,3.64 -0.4,5.66 -6.21,-1.97 -8.74,-4.54 -6.78,-10.7 m 11.64,7.64 c 1.57,-4.96 4.93,-6.62 9.98,-5.02 5.36,1.7 7.32,5 5.78,9.84 -0.5,1.57 -1.24,2.9 -2.28,4.06 l -13.59,-4.31 c -0.41,-1.53 -0.39,-3.01 0.11,-4.57 m 11.91,33.84 c 2.19,-6.92 -2.05,-13.21 -9.08,-15.44 -7.87,-2.5 -14.21,0.82 -16.8,9.02 -0.96,3.02 -1.33,6.08 -1.24,9.16 l 4.48,0.26 c 0.15,-2.23 0.62,-4.59 1.4,-7.07 1.48,-4.64 4.23,-6.65 8.12,-5.81 l -5.3,16.72 2.38,0.76 c 7.93,2.51 13.61,0.04 16.04,-7.6 m -8.86,-8.37 c 3.38,1.24 4.99,3.86 4.01,6.94 -1.09,3.44 -3.45,4.81 -7.34,3.58 l 3.33,-10.52 m -7.45,63.11 c 6.06,1.92 10.68,-1.96 13,-9.27 l 3.82,-12.04 -34.96,-11.08 -3.54,11.17 c -1.88,5.91 -2.22,10.3 -1.04,13.24 1.19,2.94 2.98,4.83 5.6,5.66 4.81,1.53 9.31,-0.55 11.45,-4.37 0.29,3.47 2.65,5.73 5.67,6.69 m 7.67,-12.24 c -1.38,4.33 -3.01,6.99 -6.14,6 -3.33,-1.06 -3.13,-4.34 -1.8,-8.52 l 1.47,-4.65 7.94,2.52 -1.47,4.65 m -13.5,-4.79 c -1.71,5.41 -3.98,10.13 -8.14,8.81 -4.73,-1.5 -3.48,-6.54 -1.76,-11.95 l 1.32,-4.19 9.91,3.14 -1.33,4.19 m -25.8,25.44 c -1.11,3.48 -0.77,5.42 -0.2,8.54 l -2.08,0.41 -1.35,4.24 24.29,7.7 1.98,-6.22 -18.08,-5.74 c -0.45,-1.91 -0.42,-3.74 0.14,-5.51 1.02,-3.23 3.54,-3.83 6.47,-2.9 l 14.5,4.6 1.97,-6.21 -13.63,-4.32 c -6.72,-2.13 -11.75,-1.73 -14.01,5.41 m -10.45,37.71 4.58,0.45 c 0.03,-0.99 0.16,-3.01 0.71,-4.72 1.05,-3.34 2.96,-3.57 4.84,-2.97 l 11.47,3.63 -2.66,8.39 4.84,1.53 2.66,-8.38 7.63,2.42 1.96,-6.21 -7.62,-2.42 1.28,-4.04 -4.84,-1.53 -1.28,4.03 -11.62,-3.68 c -4.3,-1.37 -8.68,-1.59 -11.13,6.14 -0.73,2.33 -0.93,5.44 -0.82,7.36 m -6.95,21.93 4.57,0.45 c 0.04,-0.99 0.17,-3.01 0.72,-4.73 1.05,-3.33 2.96,-3.56 4.84,-2.97 l 11.47,3.64 -2.66,8.38 4.84,1.54 2.66,-8.39 7.62,2.42 1.97,-6.21 -7.62,-2.42 1.28,-4.03 -4.84,-1.54 -1.28,4.04 -11.62,-3.69 c -4.31,-1.36 -8.68,-1.58 -11.13,6.15 -0.73,2.32 -0.94,5.44 -0.82,7.36 m -6.36,15.28 c -2.43,7.67 1.12,14.35 8.75,16.77 7.58,2.4 14.15,-0.96 16.59,-8.63 2.47,-7.79 -0.93,-14.31 -8.66,-16.76 -7.56,-2.4 -14.24,0.93 -16.68,8.62 m 20.56,6.51 c -1.33,4.19 -5.55,5.41 -9.95,4.01 -4.43,-1.4 -7.13,-4.65 -5.75,-8.99 1.31,-4.14 5.56,-5.3 9.85,-3.94 4.25,1.35 7.16,4.78 5.85,8.92 m -19.04,38.99 c 6.63,2.11 11.52,1.43 13.71,-5.48 0.87,-2.74 1.05,-5.79 0.53,-9.07 l 1.85,-0.41 1.38,-4.35 -24.29,-7.7 -1.97,6.21 18.29,5.8 c 0.12,2.76 -0.04,4.82 -0.49,6.24 -0.96,3.04 -3.45,3.69 -6.28,2.79 l -14.74,-4.67 -1.97,6.21 13.98,4.43 m 12.17,24.45 -5.84,1.03 c 0.77,2.87 1.4,5.56 0.2,9.36 -1.23,3.89 -3.64,5.68 -7.02,4.61 -3.69,-1.17 -7.41,-6.63 -15.89,-22.84 l -3.88,-1.23 -7.22,22.74 5.41,1.72 4.31,-13.6 c 8.08,14.34 10.8,18 15.55,19.5 6.36,2.02 12.14,-1.82 14.24,-8.44 1.74,-5.51 1.06,-8.79 0.14,-12.85"
         id="path4320"
         inkscape:connector-curvature="0"
         style="fill-rule:evenodd" />
    </g>
    <g
       font-size="10.6667"
       font-weight="400"
       font-style="normal"
       id="g4326"
       style="font-style:normal;font-weight:400;font-size:10.66670036px;font-family:Arial;fill:#000000;fill-opacity:1;fill-rule:evenodd;stroke:#000000;stroke-width:1;stroke-linecap:square;stroke-linejoin:bevel;stroke-opacity:1">
      <path
         vector-effect="none"
         d="m 1674.93,4285.84 -2.7,-2.09 c -1.56,1.87 -3.45,4.79 -4.61,8.44 -1.76,5.54 0.16,9.79 3.51,10.85 3.45,1.1 5.75,-0.04 9,-3.88 3.06,-3.59 4.58,-6.37 7.11,-5.57 1.89,0.6 2.17,3.43 1.08,6.87 -0.72,2.3 -2.01,3.97 -2.85,4.98 l 2.63,1.97 c 1.48,-1.61 2.87,-3.65 3.71,-6.32 1.51,-4.76 1.28,-10.08 -3.53,-11.61 -4.04,-1.28 -6.44,1.55 -7.82,3.2 -4.41,5.12 -5.47,7.14 -7.71,6.44 -2.28,-0.73 -2.5,-3.59 -1.69,-6.16 0.79,-2.47 2.32,-5.09 3.87,-7.12 m 15.06,32.15 c -0.46,1.46 0.33,2.99 1.79,3.45 1.46,0.47 2.99,-0.33 3.46,-1.79 0.46,-1.46 -0.33,-2.99 -1.79,-3.45 -1.46,-0.46 -2.99,0.33 -3.46,1.79 m -3.18,-3.15 -23.42,-7.43 -1.24,3.9 23.43,7.43 1.23,-3.9 m -25.86,11.2 c 0.96,-3.01 2.55,-2.61 4.34,-2.05 l 28.39,9 1.28,-4.03 -29.79,-9.45 c -3.31,-1.05 -6.25,0.28 -7.25,3.44 -0.73,2.28 -0.55,4.1 -0.32,5.08 l 2.97,0.04 c 0.07,-0.68 0.09,-1.1 0.38,-2.03 m 6.83,49.36 c 7.19,2.28 11.47,-1.28 13.83,-8.73 l 3.39,-10.69 -33.63,-10.67 -1.28,4.04 13.85,4.39 -1.31,4.14 c -2.64,8.31 -2.63,15.05 5.15,17.52 m -1.72,-16.05 1.42,-4.49 12.69,4.03 -1.42,4.48 c -1.84,5.83 -3.95,9.76 -9.44,8.02 -5.74,-1.82 -5.08,-6.26 -3.25,-12.04 m -27.23,24 c -2.3,7.25 1.39,13.13 8.63,15.42 7.39,2.35 13.42,-0.13 15.75,-7.48 2.32,-7.33 -1.19,-13.09 -8.58,-15.44 -7.3,-2.31 -13.49,0.22 -15.8,7.5 m 21.18,6.93 c -1.51,4.76 -6.55,5.95 -11.36,4.43 -4.91,-1.56 -8.21,-5.33 -6.68,-10.15 1.57,-4.95 6.38,-6.26 11.38,-4.67 4.9,1.55 8.23,5.44 6.66,10.39 m -25.35,18.69 c 0.95,-3.01 2.55,-2.61 4.33,-2.05 l 28.39,9 1.28,-4.03 -29.79,-9.45 c -3.3,-1.05 -6.25,0.28 -7.25,3.44 -0.72,2.28 -0.55,4.1 -0.31,5.08 l 2.97,0.04 c 0.07,-0.68 0.08,-1.1 0.38,-2.03 m 13.09,29.07 -17.16,-13.36 21.72,-1.03 1.34,-4.23 -27.64,1.61 -9.94,-8.08 -1.3,4.09 31.77,24.83 1.21,-3.83 m -21.69,5.63 c 0.56,-1.76 -0.32,-3.36 -2.02,-3.9 -1.41,-0.45 -2.58,-0.13 -3.52,1.13 -1.11,-1.06 -2.5,-2.4 -4.08,-4.13 l -1.52,1.22 c 1.12,2.72 3.13,6.5 6.68,7.62 1.99,0.64 3.86,-0.05 4.46,-1.94 m -16.64,32.23 c -0.67,2.13 -0.96,4.56 -0.79,7.24 l 3.07,-0.05 c -0.08,-1.63 0.1,-3.22 0.6,-4.79 1.83,-5.78 5.85,-7.81 12.17,-5.81 5.49,1.74 7.56,5.5 5.78,11.13 -0.57,1.8 -1.38,3.31 -2.47,4.57 l 2.66,1.91 c 1.51,-1.71 2.59,-3.62 3.22,-5.61 2.51,-7.93 -1.2,-13.91 -8.64,-16.27 -7.44,-2.35 -13.26,0.29 -15.6,7.68 m 4.17,18.43 14.82,4.7 1.28,-4.03 -15.8,-5.01 c -4.95,-1.57 -9,0.19 -10.57,5.15 -0.8,2.53 -0.83,5.52 -0.24,9.02 l -2.18,0.33 -0.88,2.77 23.43,7.43 1.28,-4.04 -18.77,-5.95 c -0.36,-2.74 -0.27,-5.05 0.35,-7 1.23,-3.89 3.33,-4.62 7.28,-3.37 m -18.84,27.84 c -0.53,1.66 -0.66,3.43 -0.55,5.45 l 3.06,0.12 c -0.02,-0.76 0.04,-1.92 0.48,-3.32 0.96,-3.03 2.77,-3.19 5.88,-2.2 l 12.64,4.01 -2.43,7.67 3.2,1.01 2.44,-7.67 6.65,2.11 1.09,-4.09 -6.46,-2.05 1.25,-3.95 -3.21,-1.02 -1.25,3.95 -12.92,-4.1 c -4.96,-1.57 -8.33,-0.77 -9.87,4.08 m 24.24,32.87 -3.56,0.64 c 0.71,2.47 1.46,5.17 0.35,8.67 -1.29,4.08 -4.28,6.28 -8.38,4.98 -4.71,-1.49 -7.74,-6.62 -17.04,-22.52 l -2.62,-0.83 -6.32,19.93 3.55,1.12 4.52,-14.28 c 9.35,15.75 12.07,19.17 16.63,20.62 5.88,1.86 11.13,-1.34 13.01,-7.27 1.51,-4.77 0.86,-7.27 -0.14,-11.06"
         id="path4328"
         inkscape:connector-curvature="0"
         style="fill-rule:evenodd" />
    </g>
  </g>
  <g
     style="font-style:normal;font-weight:400;font-size:10.66670036px;font-family:Arial;fill:none;fill-rule:evenodd;stroke:#000000;stroke-width:1.51180995;stroke-linecap:round;stroke-linejoin:round;stroke-opacity:1"
     id="g4330"
     font-style="normal"
     font-weight="400"
     font-size="10.6667"
     transform="translate(-52.617257,-20.516523)" />
  <g
     style="font-style:normal;font-weight:400;font-size:10.66670036px;font-family:Arial;fill:none;fill-rule:evenodd;stroke:#000000;stroke-width:1.51180995;stroke-linecap:round;stroke-linejoin:round;stroke-opacity:1"
     id="g4332"
     font-style="normal"
     font-weight="400"
     font-size="10.6667"
     transform="translate(-52.617257,-20.516523)" />
  <g
     style="font-style:normal;font-weight:400;font-size:10.66670036px;font-family:Arial;fill:none;fill-rule:evenodd;stroke:#000000;stroke-width:1.51180995;stroke-linecap:round;stroke-linejoin:round;stroke-opacity:1"
     id="g4338"
     font-style="normal"
     font-weight="400"
     font-size="10.6667"
     transform="translate(-52.617257,-20.516523)" />
  <g
     style="font-style:normal;font-weight:400;font-size:10.66670036px;font-family:Arial;fill:none;fill-rule:evenodd;stroke:#000000;stroke-width:1.51180995;stroke-linecap:round;stroke-linejoin:round;stroke-opacity:1"
     id="g4340"
     font-style="normal"
     font-weight="400"
     font-size="10.6667"
     transform="translate(-52.617257,-20.516523)" />
  <g
     style="font-style:normal;font-weight:400;font-size:10.66670036px;font-family:Arial;fill:none;fill-rule:evenodd;stroke:#000000;stroke-width:1.51180995;stroke-linecap:round;stroke-linejoin:round;stroke-opacity:1"
     id="g4346"
     font-style="normal"
     font-weight="400"
     font-size="10.6667"
     transform="translate(-52.617257,-20.516523)" />
  <g
     style="font-style:normal;font-weight:400;font-size:10.66670036px;font-family:Arial;fill:none;fill-rule:evenodd;stroke:#000000;stroke-width:1.51180995;stroke-linecap:round;stroke-linejoin:round;stroke-opacity:1"
     id="g4348"
     font-style="normal"
     font-weight="400"
     font-size="10.6667"
     transform="translate(-52.617257,-20.516523)" />
  <g
     style="font-style:normal;font-weight:400;font-size:10.66670036px;font-family:Arial;fill:none;fill-rule:evenodd;stroke:#000000;stroke-width:1.51180995;stroke-linecap:round;stroke-linejoin:round;stroke-opacity:1"
     id="g4354"
     font-style="normal"
     font-weight="400"
     font-size="10.6667"
     transform="translate(-52.617257,-20.516523)" />
  <g
     style="font-style:normal;font-weight:400;font-size:10.66670036px;font-family:Arial;fill:none;fill-rule:evenodd;stroke:#000000;stroke-width:1.51180995;stroke-linecap:round;stroke-linejoin:round;stroke-opacity:1"
     id="g4356"
     font-style="normal"
     font-weight="400"
     font-size="10.6667"
     transform="translate(-52.617257,-20.516523)" />
  <g
     id="g4463"
     transform="matrix(-0.97984775,0.19974578,0.19974581,0.97984775,-342.82378,-1098.9676)">
    <g
       font-size="10.6667"
       font-weight="400"
       font-style="normal"
       id="g4334"
       style="font-style:normal;font-weight:400;font-size:10.66670036px;font-family:Arial;fill:none;fill-rule:evenodd;stroke:#000000;stroke-width:1;stroke-linecap:square;stroke-linejoin:bevel;stroke-opacity:1">
      <path
         vector-effect="none"
         d="m 868.073,6418.14 90.504,931.25 52.053,530.32 36.31,356.57 22.66,223.59 22.26,211.39 22.43,201.96 21.22,192.82 21.15,185.61 21.36,179.77 21.86,175.34 21.83,171.73 22.08,169.51 23.46,169.2 24.01,168.4 25.43,171.7 26.02,174.5 28.28,178.3 29.74,185.2 31.74,191.3 32.96,200.5 36.38,209.8 37.89,220.4 61.8,354.1 92.76,524.6 164.17,920.7 -1637.954,-753.9 647.597,-6444.66 m -51.099,-57.14 102.626,0 94.95,983.07 52.6,529.48 35.76,357.41 23.21,222.76 22.25,211.38 22.43,201.96 21.23,192.82 21.14,185.61 21.36,179.78 21.03,174.79 22.37,170.89 22.08,169.51 22.63,168.64 24.85,169 25.14,170.3 26.01,174.4 28.28,178.3 29.74,185.3 31.75,191.3 33.5,199.6 35,210.2 38.72,220.9 61.51,352.7 92.76,524.6 183.37,1028.7 L 159.828,12897.3 816.974,6361"
         id="path4336"
         inkscape:connector-curvature="0"
         style="fill-rule:nonzero" />
    </g>
    <g
       font-size="10.6667"
       font-weight="400"
       font-style="normal"
       id="g4342"
       style="font-style:normal;font-weight:400;font-size:10.66670036px;font-family:Arial;fill:#000000;fill-opacity:1;fill-rule:evenodd;stroke:#000000;stroke-width:1;stroke-linecap:square;stroke-linejoin:bevel;stroke-opacity:1">
      <path
         vector-effect="none"
         d="m 1096.27,11949.4 -11.18,17.2 5.96,3.8 15.41,-23.6 -36.53,-23.8 -4.23,6.5 13.88,9 -9.8,15.1 5.97,3.9 9.8,-15.1 10.72,7 m -47.06,15.1 c 1.62,-2.5 3.46,-2 5.94,-0.3 l 29.46,19.1 4.23,-6.5 -31.31,-20.3 c -3.59,-2.4 -7.85,-3.6 -11.35,1.8 -1.9,2.9 -2.46,6.5 -2.46,6.5 l 4.55,1.5 c 0,0 0.36,-0.9 0.94,-1.8 m 30.19,23.8 -5.96,-3.8 -7.84,12 -30.57,-19.9 -4.23,6.5 30.57,19.9 -7.84,12 5.96,3.9 19.91,-30.6"
         id="path4344"
         inkscape:connector-curvature="0"
         style="fill-rule:evenodd" />
    </g>
    <g
       font-size="10.6667"
       font-weight="400"
       font-style="normal"
       id="g4350"
       style="font-style:normal;font-weight:400;font-size:10.66670036px;font-family:Arial;fill:#000000;fill-opacity:1;fill-rule:evenodd;stroke:#000000;stroke-width:1;stroke-linecap:square;stroke-linejoin:bevel;stroke-opacity:1">
      <path
         vector-effect="none"
         d="m 1122.76,11767 -10.47,16.1 5.58,3.6 14.43,-22.1 -34.22,-22.3 -3.96,6.1 13,8.5 -9.17,14 5.59,3.7 9.17,-14.1 10.05,6.5 m -18.78,18.2 -23.78,-15.4 -3.86,5.9 18.29,11.9 c -0.26,1.6 -0.84,3.1 -1.74,4.5 -1.31,2 -2.86,3.4 -4.63,4.3 l -0.09,0.4 4.66,4.7 c 1.55,-1 2.81,-2.2 3.82,-3.8 1.63,-2.5 2.48,-5.3 2.54,-8.5 l 2.02,0.3 2.77,-4.3 m -44.52,15.3 c -4.9,7.5 -3.07,15.8 4.41,20.6 7.41,4.9 15.46,3.2 20.35,-4.3 4.96,-7.6 3.27,-15.6 -4.3,-20.5 -7.41,-4.9 -15.57,-3.3 -20.46,4.2 m 20.12,13.1 c -2.67,4.1 -7.55,4.2 -11.86,1.4 -4.35,-2.8 -6.27,-7.1 -3.51,-11.4 2.64,-4 7.55,-4 11.75,-1.3 4.15,2.7 6.27,7.3 3.62,11.3 m -31.72,35.8 c 6.48,4.2 11.92,4.9 16.33,-1.8 1.74,-2.7 2.85,-5.9 3.26,-9.6 l 2.11,0.1 2.77,-4.3 -23.77,-15.4 -3.97,6 17.9,11.7 c -0.69,3 -1.46,5.2 -2.36,6.6 -1.94,2.9 -4.81,2.9 -7.57,1.1 l -14.44,-9.4 -3.96,6.1 13.7,8.9 m -28.13,15.1 4.78,1.8 c 0.33,-1 1.08,-3.2 2.17,-4.8 2.13,-3.3 4.25,-3 6.08,-1.8 l 11.22,7.3 -5.34,8.2 4.74,3.1 5.34,-8.2 7.48,4.9 3.96,-6.1 -7.48,-4.9 2.58,-3.9 -4.74,-3.1 -2.58,3.9 -11.38,-7.4 c -4.2,-2.7 -8.83,-4.2 -13.76,3.3 -1.47,2.3 -2.62,5.6 -3.07,7.7 m -14.29,29.2 c 1.51,-2.4 3.24,-1.9 5.55,-0.4 l 27.59,18 3.97,-6.1 -29.32,-19.1 c -3.36,-2.2 -7.35,-3.3 -10.64,1.8 -1.77,2.7 -2.28,6.1 -2.28,6.1 l 4.25,1.3 c 0,0 0.33,-0.8 0.88,-1.6 m -6.267,32.6 c 6.857,4.5 11.917,2.8 16.747,-4.6 1.36,-2.1 2.55,-5.1 3.58,-9.1 l -4.76,-1.8 c -0.61,2.8 -1.49,5.1 -2.71,7 -2.93,4.5 -4.8,5.1 -9.01,2.4 l 2.94,-5.1 c 3.31,-5.7 4.11,-11.6 -1.18,-15 -4.54,-3 -9.593,-0.9 -12.688,3.9 -1.833,2.8 -2.604,5.6 -2.396,8.4 l -2.128,-0.4 -3.086,4.8 14.691,9.5 m -5.341,-12.1 c 0.037,-1.8 0.386,-3.6 1.801,-5.8 1.415,-2.2 3.518,-3.3 5.637,-2 1.84,1.2 1.87,3.4 -0.01,6.6 l -2.439,4.4 -4.989,-3.2 m 10.288,24.4 -23.774,-15.5 -3.862,5.9 18.292,12 c -0.26,1.6 -0.842,3.1 -1.746,4.5 -1.313,2 -2.858,3.4 -4.625,4.3 l -0.091,0.3 4.658,4.8 c 1.545,-1 2.81,-2.3 3.816,-3.8 1.637,-2.5 2.486,-5.4 2.548,-8.5 l 2.014,0.2 2.77,-4.2 m -50.679,7.7 c 1.091,-1.7 2.806,-3.5 5.161,-5.3 l 0.98,-0.7 -3.334,-4.5 -1.006,0.7 c -2.774,2 -5.105,4.5 -6.972,7.3 -5.474,8.4 -3.708,16.2 4.004,21.2 l 24.381,15.9 2.736,-4.2 -1.077,-1.5 c 2.801,-1.5 5.054,-3.5 6.691,-6 4.604,-7.1 2.519,-14.7 -4.84,-19.5 -7.62,-5 -15.569,-3.5 -20.532,4.1 -1.483,2.3 -1.771,3.7 -2.107,6 -6.088,-4 -8.016,-7.5 -4.085,-13.5 m 10.219,11.6 c 3.155,-4.8 7.259,-5.6 12.196,-2.4 5.25,3.4 6.365,7.5 3.27,12.3 -0.997,1.5 -2.189,2.7 -3.661,3.7 l -13.29,-8.7 c 0.011,-1.7 0.488,-3.3 1.485,-4.9 m 2.988,39.5 c 4.408,-6.8 1.734,-14.8 -5.14,-19.3 -7.712,-5 -15.499,-3.3 -20.717,4.7 -1.927,2.9 -3.219,6.1 -4.041,9.4 l 4.719,1.6 c 0.824,-2.3 2.038,-4.7 3.615,-7.1 2.959,-4.6 6.511,-5.9 10.438,-3.8 l -10.658,16.3 2.331,1.5 c 7.765,5.1 14.593,4.1 19.453,-3.3 m -7.017,-11.7 c 3.263,2.4 4.218,5.7 2.248,8.7 -2.183,3.3 -5.139,4.1 -8.949,1.6 l 6.701,-10.3 m -0.243,44.4 -5.578,-3.6 -7.341,11.3 -28.636,-18.7 -3.965,6.1 28.636,18.6 -7.341,11.3 5.578,3.7 18.647,-28.7 m -62.541,20.2 c -4.894,7.5 -3.068,15.7 4.409,20.6 7.411,4.8 15.463,3.1 20.357,-4.4 4.953,-7.6 3.263,-15.6 -4.305,-20.5 -7.411,-4.8 -15.567,-3.3 -20.461,4.3 m 20.125,13.1 c -2.669,4.1 -7.557,4.1 -11.865,1.3 -4.347,-2.8 -6.27,-7.1 -3.507,-11.4 2.643,-4 7.549,-4 11.752,-1.2 4.151,2.7 6.263,7.2 3.62,11.3 m -9.986,24.4 2.703,-4.2 -36.584,-23.8 -3.862,5.9 13.552,8.9 c -1.917,1 -3.273,2.3 -4.629,4.3 -5.056,7.8 -3.325,15.2 4.348,20.2 9.637,6.3 16.973,1.4 19.966,-3.2 1.867,-2.9 2.248,-6.1 2.415,-8.4 l 2.091,0.3 m -8.241,3.3 c -2.575,4 -6.086,5.9 -12.266,1.9 -5.591,-3.6 -5.658,-8.2 -3.074,-12.1 1.091,-1.7 2.498,-2.7 3.847,-3.4 l 13.355,8.7 c -0.442,2 -1.018,3.7 -1.862,4.9"
         id="path4352"
         inkscape:connector-curvature="0"
         style="fill-rule:evenodd" />
    </g>
    <g
       font-size="10.6667"
       font-weight="400"
       font-style="normal"
       id="g4358"
       style="font-style:normal;font-weight:400;font-size:10.66670036px;font-family:Arial;fill:#000000;fill-opacity:1;fill-rule:evenodd;stroke:#000000;stroke-width:1;stroke-linecap:square;stroke-linejoin:bevel;stroke-opacity:1">
      <path
         vector-effect="none"
         d="m 1018.57,11739.8 -2.3,-3 c -2.21,1.5 -5.13,4.1 -7.47,7.7 -3.54,5.4 -2.75,10.6 0.55,12.7 3.39,2.2 6.21,1.7 10.85,-1.5 4.37,-2.9 6.83,-5.5 9.32,-3.9 1.86,1.2 1.33,4.4 -0.88,7.8 -1.46,2.2 -3.34,3.6 -4.57,4.5 l 2.27,2.9 c 2.06,-1.3 4.16,-3.1 5.87,-5.7 3.05,-4.7 4.38,-10.5 -0.35,-13.6 -3.97,-2.6 -7.38,-0.2 -9.37,1.1 -6.26,4.2 -8.02,6.1 -10.22,4.7 -2.25,-1.5 -1.62,-4.6 0.02,-7.2 1.59,-2.4 4.01,-4.8 6.28,-6.5 m 6.54,39.3 c -0.93,1.4 -0.52,3.3 0.9,4.2 1.44,1 3.32,0.6 4.26,-0.9 0.93,-1.4 0.54,-3.3 -0.9,-4.2 -1.42,-0.9 -3.33,-0.5 -4.26,0.9 m -2.47,-4.4 -23.032,-14.9 -2.49,3.8 23.032,15 2.49,-3.9 m -31.601,5 c 1.927,-3 3.527,-2.1 5.295,-0.9 l 27.906,18.2 2.58,-4 -29.291,-19.1 c -3.247,-2.1 -6.799,-1.5 -8.82,1.6 -1.458,2.2 -1.822,4.2 -1.879,5.3 l 3.2,1 c 0.265,-0.8 0.421,-1.2 1.009,-2.1 m -7.761,55.8 c 7.07,4.6 12.763,2 17.522,-5.3 l 6.85,-10.5 -33.066,-21.5 -2.584,3.9 13.618,8.9 -2.643,4.1 c -5.32,8.1 -7.331,15.4 0.303,20.4 m 2.958,-17.8 2.865,-4.4 12.469,8.1 -2.869,4.4 c -3.726,5.7 -7.162,9.3 -12.557,5.8 -5.643,-3.6 -3.608,-8.2 0.092,-13.9 m -36.222,17.3 c -4.629,7.1 -2.399,14.5 4.711,19.2 7.267,4.7 14.499,3.8 19.197,-3.4 4.689,-7.2 2.621,-14.5 -4.633,-19.2 -7.162,-4.7 -14.611,-3.8 -19.275,3.4 m 20.765,13.8 c -3.052,4.6 -8.836,4.4 -13.563,1.3 -4.831,-3.1 -7.252,-8.2 -4.166,-12.9 3.172,-4.9 8.733,-4.8 13.656,-1.6 4.819,3.1 7.245,8.3 4.073,13.2 m -32.67,12.2 c 1.927,-3 3.527,-2.1 5.294,-0.9 l 27.903,18.1 2.584,-3.9 -29.291,-19.1 c -3.247,-2.1 -6.799,-1.6 -8.82,1.5 -1.458,2.3 -1.822,4.3 -1.879,5.4 l 3.2,0.9 c 0.265,-0.7 0.42,-1.1 1.009,-2 m 5.255,35.5 -14.513,-19.5 23.721,5.4 2.711,-4.2 -30.259,-6.5 -8.318,-11.7 -2.617,4 26.819,36.3 2.456,-3.8 m -25.02,-0.5 c 1.125,-1.7 0.657,-3.7 -1.006,-4.8 -1.387,-0.9 -2.744,-0.9 -4.119,0.2 -0.896,-1.5 -1.991,-3.3 -3.186,-5.7 l -2.006,0.9 c 0.403,3.2 1.438,7.9 4.934,10.2 1.951,1.3 4.172,1.1 5.383,-0.8 m -27.361,29.5 c -1.373,2.1 -2.412,4.7 -3.022,7.6 l 3.312,0.9 c 0.414,-1.8 1.09,-3.5 2.087,-5 3.701,-5.7 8.626,-6.7 14.845,-2.7 5.395,3.6 6.507,8.2 2.901,13.8 -1.151,1.7 -2.462,3.1 -4.029,4.2 l 2.298,2.8 c 2.13,-1.4 3.866,-3.1 5.145,-5.1 5.073,-7.8 2.855,-15.3 -4.451,-20.1 -7.307,-4.7 -14.363,-3.6 -19.086,3.6 m -1.182,21.4 14.573,9.5 2.583,-4 -15.529,-10.1 c -4.871,-3.2 -9.747,-2.5 -12.919,2.4 -1.62,2.5 -2.556,5.7 -2.964,9.6 l -2.448,-0.3 -1.773,2.8 23.032,15 2.583,-4 -18.449,-12 c 0.426,-3.1 1.227,-5.5 2.472,-7.5 2.49,-3.8 4.963,-3.9 8.839,-1.4 m -28.43,24.1 c -1.057,1.6 -1.734,3.5 -2.218,5.7 l 3.258,1 c 0.199,-0.8 0.601,-2 1.497,-3.4 1.935,-3 3.954,-2.6 7.005,-0.6 l 12.426,8.1 -4.92,7.5 3.156,2.1 4.92,-7.6 6.533,4.3 2.4,-4.1 -6.35,-4.1 2.515,-3.9 -3.155,-2.1 -2.516,3.9 -12.714,-8.3 c -4.871,-3.1 -8.725,-3.3 -11.837,1.5 m 15.649,43.7 -4.043,-0.4 c 0.031,2.9 0.026,6 -2.208,9.4 -2.617,4 -6.493,5.5 -10.513,2.9 -4.635,-3 -6.364,-9.4 -11.641,-29.3 l -2.58,-1.7 -12.746,19.6 3.483,2.2 9.14,-14 c 5.37,19.8 7.27,24.3 11.761,27.2 5.787,3.8 12.389,1.9 16.183,-4 3.052,-4.7 3.095,-7.6 3.164,-11.9"
         id="path4360"
         inkscape:connector-curvature="0"
         style="fill-rule:evenodd" />
    </g>
  </g>
  <g
     style="font-style:normal;font-weight:400;font-size:10.66670036px;font-family:Arial;fill:none;fill-rule:evenodd;stroke:#000000;stroke-width:1.51180995;stroke-linecap:round;stroke-linejoin:round;stroke-opacity:1"
     id="g4362"
     font-style="normal"
     font-weight="400"
     font-size="10.6667"
     transform="translate(-52.617257,-20.516523)" />
  <g
     style="font-style:normal;font-weight:400;font-size:10.66670036px;font-family:Arial;fill:none;fill-rule:evenodd;stroke:#000000;stroke-width:1.51180995;stroke-linecap:round;stroke-linejoin:round;stroke-opacity:1"
     id="g4364"
     font-style="normal"
     font-weight="400"
     font-size="10.6667"
     transform="translate(-52.617257,-20.516523)" />
  <g
     style="font-style:normal;font-weight:400;font-size:10.66670036px;font-family:Arial;fill:none;fill-rule:evenodd;stroke:#000000;stroke-width:1.51180995;stroke-linecap:round;stroke-linejoin:round;stroke-opacity:1"
     id="g4370"
     font-style="normal"
     font-weight="400"
     font-size="10.6667"
     transform="translate(-52.617257,-20.516523)" />
  <g
     style="font-style:normal;font-weight:400;font-size:10.66670036px;font-family:Arial;fill:none;fill-rule:evenodd;stroke:#000000;stroke-width:1.51180995;stroke-linecap:round;stroke-linejoin:round;stroke-opacity:1"
     id="g4372"
     font-style="normal"
     font-weight="400"
     font-size="10.6667"
     transform="translate(-52.617257,-20.516523)" />
  <g
     style="font-style:normal;font-weight:400;font-size:10.66670036px;font-family:Arial;fill:none;fill-rule:evenodd;stroke:#000000;stroke-width:1.51180995;stroke-linecap:round;stroke-linejoin:round;stroke-opacity:1"
     id="g4378"
     font-style="normal"
     font-weight="400"
     font-size="10.6667"
     transform="translate(-52.617257,-20.516523)" />
  <g
     style="font-style:normal;font-weight:400;font-size:10.66670036px;font-family:Arial;fill:none;fill-rule:evenodd;stroke:#000000;stroke-width:1.51180995;stroke-linecap:round;stroke-linejoin:round;stroke-opacity:1"
     id="g4380"
     font-style="normal"
     font-weight="400"
     font-size="10.6667"
     transform="translate(-52.617257,-20.516523)" />
  <g
     style="font-style:normal;font-weight:400;font-size:10.66670036px;font-family:Arial;fill:none;fill-rule:evenodd;stroke:#000000;stroke-width:1.51180995;stroke-linecap:round;stroke-linejoin:round;stroke-opacity:1"
     id="g4386"
     font-style="normal"
     font-weight="400"
     font-size="10.6667"
     transform="translate(-52.617257,-20.516523)" />
  <g
     style="font-style:normal;font-weight:400;font-size:10.66670036px;font-family:Arial;fill:none;fill-rule:evenodd;stroke:#000000;stroke-width:1.51180995;stroke-linecap:round;stroke-linejoin:round;stroke-opacity:1"
     id="g4388"
     font-style="normal"
     font-weight="400"
     font-size="10.6667"
     transform="translate(-52.617257,-20.516523)" />
  <g
     id="g4473"
     transform="matrix(-0.9575905,0.28813263,0.28813267,0.9575905,-3072.6599,-12979.67)">
    <g
       font-size="10.6667"
       font-weight="400"
       font-style="normal"
       id="g4366"
       style="font-style:normal;font-weight:400;font-size:10.66670036px;font-family:Arial;fill:none;fill-rule:evenodd;stroke:#000000;stroke-width:1;stroke-linecap:square;stroke-linejoin:bevel;stroke-opacity:1">
      <path
         vector-effect="none"
         d="m 872.057,13778.6 1169.803,6370.6 -92.38,-12.4 -119.38,-16.5 -116.79,-14.6 -113.64,-14.7 -112.97,-13.5 -113.26,-12.5 -113.26,-12.6 -114.51,-11.8 -116.72,-11.5 -112.594,-11.3 -44.299,-6239.2 m -0.54,-56.6 48.083,0 1192.02,6493.4 -169.83,-22.4 -119.38,-16.5 -115.55,-15.3 -113.93,-13.8 -112.97,-13.4 -112.01,-13.2 -113.56,-11.6 -114.21,-12.8 -116.72,-11.5 -106.855,-9.5 -45.088,-6353.4"
         id="path4368"
         inkscape:connector-curvature="0"
         style="fill-rule:nonzero" />
    </g>
    <g
       font-size="10.6667"
       font-weight="400"
       font-style="normal"
       id="g4374"
       style="font-style:normal;font-weight:400;font-size:10.66670036px;font-family:Arial;fill:#000000;fill-opacity:1;fill-rule:evenodd;stroke:#000000;stroke-width:1;stroke-linecap:square;stroke-linejoin:bevel;stroke-opacity:1">
      <path
         vector-effect="none"
         d="m 1415.57,18822.6 -5.49,18 6.28,1.9 7.57,-24.8 -38.41,-11.7 -2.07,6.8 14.59,4.4 -4.81,15.9 6.27,1.9 4.82,-15.8 11.25,3.4 m -37.67,25.2 c 0.79,-2.6 2.55,-2.6 5.16,-1.8 l 30.96,9.4 2.07,-6.8 -32.9,-10 c -3.76,-1.2 -7.84,-1.2 -9.56,4.5 -0.93,3 -0.5,6.4 -0.5,6.4 l 4.39,0.1 c 0,0 0.09,-0.9 0.38,-1.8 m -5.89,25.1 32.14,9.8 2.03,-6.7 -1.59,-12.9 -6.1,0.5 1.24,10.2 -25.64,-7.8 3.12,-10.2 -6.26,-1.9 -8.02,26.3 6.26,1.9 2.82,-9.2"
         id="path4376"
         inkscape:connector-curvature="0"
         style="fill-rule:evenodd" />
    </g>
    <g
       font-size="10.6667"
       font-weight="400"
       font-style="normal"
       id="g4382"
       style="font-style:normal;font-weight:400;font-size:10.66670036px;font-family:Arial;fill:#000000;fill-opacity:1;fill-rule:evenodd;stroke:#000000;stroke-width:1;stroke-linecap:square;stroke-linejoin:bevel;stroke-opacity:1">
      <path
         vector-effect="none"
         d="m 1410.46,18594.4 -5.11,16.8 5.85,1.8 7.04,-23.1 -35.75,-10.9 -1.94,6.3 13.59,4.2 -4.48,14.7 5.83,1.8 4.48,-14.7 10.49,3.1 m -11.8,20.6 -24.85,-7.5 -1.88,6.2 19.12,5.8 c 0.17,1.5 0.04,3 -0.39,4.4 -0.65,2.1 -1.65,3.7 -2.97,5 l 0.01,0.3 5.3,3 c 1.11,-1.3 1.89,-2.7 2.37,-4.3 0.8,-2.7 0.84,-5.4 0.1,-8.1 l 1.84,-0.3 1.35,-4.5 m -35.26,24.8 c -2.4,7.9 1.31,14.7 9.11,17 7.75,2.4 14.4,-1.1 16.79,-9 2.42,-7.9 -1.09,-14.5 -9,-16.9 -7.74,-2.4 -14.51,1.1 -16.9,8.9 m 21.03,6.4 c -1.31,4.3 -5.59,5.6 -10.09,4.2 -4.54,-1.3 -7.34,-4.6 -5.98,-9.1 1.29,-4.2 5.61,-5.4 10.01,-4.1 4.33,1.3 7.35,4.8 6.06,9 m -18.77,39.4 c 6.77,2.1 11.73,1.4 13.89,-5.7 0.85,-2.8 1.01,-5.9 0.44,-9.3 l 1.89,-0.4 1.35,-4.5 -24.85,-7.5 -1.93,6.3 18.7,5.7 c 0.15,2.9 0.02,5 -0.42,6.4 -0.94,3.1 -3.46,3.8 -6.36,2.9 l -15.08,-4.6 -1.94,6.4 14.31,4.3 m -20.84,20.3 4.67,0.4 c 0.02,-1 0.13,-3 0.67,-4.8 1.03,-3.4 2.98,-3.6 4.89,-3.1 l 11.73,3.6 -2.6,8.6 4.94,1.5 2.61,-8.6 7.8,2.4 1.94,-6.4 -7.81,-2.3 1.26,-4.2 -4.94,-1.5 -1.26,4.2 -11.89,-3.7 c -4.39,-1.3 -8.86,-1.5 -11.27,6.4 -0.72,2.4 -0.88,5.6 -0.74,7.5 m -5.31,29.9 c 0.73,-2.5 2.38,-2.5 4.81,-1.7 l 28.82,8.8 1.93,-6.4 -30.63,-9.3 c -3.51,-1.1 -7.31,-1.1 -8.91,4.2 -0.87,2.8 -0.46,6 -0.46,6 l 4.1,0.1 c 0,0 0.07,-0.8 0.34,-1.7 m 2.93,29.8 c 7.19,2.2 11.19,-0.6 13.55,-8.3 0.66,-2.2 0.94,-5.1 0.84,-8.9 l -4.63,-0.3 c 0.17,2.6 -0.01,4.8 -0.61,6.8 -1.43,4.7 -2.93,5.7 -7.31,4.4 l 1.29,-5.2 c 1.46,-5.9 0.67,-11.3 -4.86,-13 -4.76,-1.4 -8.66,1.7 -10.17,6.7 -0.9,2.9 -0.86,5.6 0.05,8 l -1.98,0.2 -1.51,5 15.34,4.6 m -7.77,-9.3 c -0.43,-1.6 -0.59,-3.3 0.11,-5.5 0.69,-2.3 2.24,-3.9 4.46,-3.2 1.91,0.6 2.51,2.5 1.67,5.8 l -1.02,4.5 -5.22,-1.6 m 15.36,18.5 -24.84,-7.6 -1.89,6.2 19.12,5.9 c 0.18,1.4 0.05,2.9 -0.39,4.4 -0.64,2.1 -1.64,3.7 -2.97,4.9 l 0.02,0.4 5.3,2.9 c 1.11,-1.2 1.88,-2.7 2.37,-4.3 0.8,-2.6 0.84,-5.3 0.1,-8.1 l 1.83,-0.3 1.35,-4.4 m -42.62,19.7 c 0.53,-1.8 1.6,-3.8 3.22,-5.9 l 0.67,-1 -4.08,-3.1 -0.7,0.9 c -1.95,2.5 -3.35,5.3 -4.26,8.3 -2.68,8.7 0.86,15.1 8.91,17.6 l 25.48,7.7 1.33,-4.4 -1.32,-1 c 2.07,-2 3.53,-4.4 4.33,-7 2.25,-7.4 -1.51,-13.6 -9.21,-15.9 -7.95,-2.5 -14.57,0.9 -16.99,8.9 -0.73,2.3 -0.61,3.7 -0.34,5.7 -6.35,-1.9 -8.96,-4.5 -7.04,-10.8 m 11.97,7.6 c 1.53,-5 4.94,-6.8 10.11,-5.2 5.47,1.7 7.51,5 6,10 -0.49,1.6 -1.24,2.9 -2.29,4.1 l -13.89,-4.2 c -0.44,-1.5 -0.42,-3.1 0.07,-4.7 m 12.68,33.8 c 2.15,-7.1 -2.23,-13.4 -9.41,-15.6 -8.05,-2.5 -14.48,1 -17.03,9.4 -0.94,3.1 -1.27,6.2 -1.15,9.3 l 4.57,0.2 c 0.13,-2.2 0.58,-4.6 1.35,-7.2 1.45,-4.7 4.22,-6.8 8.21,-6 l -5.21,17.1 2.44,0.7 c 8.1,2.5 13.85,-0.1 16.23,-7.9 m -9.12,-8.4 c 3.47,1.2 5.14,3.9 4.18,7 -1.06,3.5 -3.47,5 -7.45,3.7 l 3.27,-10.7 m -7.19,65.5 c 6.21,1.9 10.87,-2.1 13.15,-9.6 l 3.74,-12.3 -35.76,-10.8 -3.47,11.4 c -1.84,6 -2.13,10.5 -0.89,13.5 1.23,2.9 3.08,4.9 5.77,5.7 4.91,1.5 9.46,-0.7 11.61,-4.6 0.34,3.5 2.76,5.8 5.85,6.7 m 7.67,-12.5 c -1.36,4.4 -2.97,7.1 -6.18,6.2 -3.41,-1.1 -3.25,-4.4 -1.94,-8.7 l 1.45,-4.8 8.11,2.5 -1.44,4.8 m -13.81,-4.7 c -1.68,5.5 -3.94,10.3 -8.18,9 -4.86,-1.5 -3.62,-6.6 -1.94,-12.1 l 1.31,-4.3 10.12,3.1 -1.31,4.3 m -26.1,26.5 c -1.08,3.6 -0.72,5.6 -0.1,8.7 l -2.11,0.4 -1.32,4.4 24.84,7.6 1.94,-6.4 -18.49,-5.6 c -0.49,-2 -0.48,-3.8 0.07,-5.6 1.01,-3.4 3.57,-4 6.56,-3.1 l 14.83,4.5 1.93,-6.3 -13.94,-4.3 c -6.86,-2.1 -11.99,-1.6 -14.21,5.7 m -10.03,38 4.68,0.4 c 0.01,-1 0.13,-3 0.66,-4.8 1.04,-3.4 2.98,-3.7 4.89,-3.1 l 11.74,3.6 -2.61,8.6 4.95,1.5 2.61,-8.6 7.8,2.4 1.93,-6.4 -7.8,-2.3 1.26,-4.2 -4.95,-1.5 -1.26,4.1 -11.88,-3.6 c -4.4,-1.3 -8.87,-1.5 -11.27,6.4 -0.73,2.4 -0.89,5.6 -0.75,7.5 m -6.99,23 4.68,0.4 c 0.01,-1 0.13,-3.1 0.66,-4.8 1.04,-3.4 2.98,-3.7 4.9,-3.1 l 11.73,3.6 -2.61,8.5 4.95,1.5 2.61,-8.5 7.8,2.3 1.93,-6.3 -7.8,-2.4 1.26,-4.1 -4.95,-1.5 -1.26,4.1 -11.88,-3.6 c -4.39,-1.3 -8.86,-1.5 -11.27,6.4 -0.72,2.4 -0.89,5.5 -0.75,7.5 m -6.46,16.2 c -2.39,7.8 1.32,14.6 9.12,17 7.74,2.3 14.39,-1.2 16.79,-9 2.42,-8 -1.09,-14.6 -9,-17 -7.74,-2.4 -14.52,1.1 -16.91,9 m 21.04,6.4 c -1.31,4.2 -5.59,5.5 -10.09,4.2 -4.54,-1.4 -7.34,-4.7 -5.98,-9.1 1.28,-4.3 5.61,-5.5 10.01,-4.2 4.33,1.4 7.34,4.8 6.06,9.1 m -18.77,39.4 c 6.77,2 11.73,1.3 13.89,-5.8 0.84,-2.8 1.01,-5.9 0.44,-9.2 l 1.88,-0.5 1.35,-4.4 -24.84,-7.6 -1.93,6.4 18.7,5.6 c 0.15,2.9 0.02,5 -0.42,6.4 -0.94,3.1 -3.46,3.8 -6.36,2.9 l -15.08,-4.6 -1.94,6.4 14.31,4.4 m -19.75,34.5 29.91,9.1 1.89,-6.2 -1.49,-12.1 -5.68,0.5 1.16,9.6 -23.86,-7.3 2.91,-9.6 -5.84,-1.7 -7.47,24.5 5.84,1.8 2.63,-8.6"
         id="path4384"
         inkscape:connector-curvature="0"
         style="fill-rule:evenodd" />
    </g>
    <g
       font-size="10.6667"
       font-weight="400"
       font-style="normal"
       id="g4390"
       style="font-style:normal;font-weight:400;font-size:10.66670036px;font-family:Arial;fill:#000000;fill-opacity:1;fill-rule:evenodd;stroke:#000000;stroke-width:1;stroke-linecap:square;stroke-linejoin:bevel;stroke-opacity:1">
      <path
         vector-effect="none"
         d="m 1292.69,18659.7 -2.79,-2.2 c -1.57,2 -3.46,5 -4.6,8.7 -1.72,5.7 0.28,10 3.72,11 3.53,1.1 5.85,-0.1 9.13,-4 3.07,-3.7 4.59,-6.6 7.17,-5.8 1.95,0.6 2.26,3.5 1.19,7 -0.71,2.3 -1.99,4.1 -2.85,5.1 l 2.72,2 c 1.49,-1.7 2.87,-3.8 3.7,-6.5 1.49,-4.9 1.18,-10.3 -3.74,-11.8 -4.13,-1.3 -6.55,1.7 -7.93,3.4 -4.43,5.2 -5.5,7.3 -7.79,6.6 -2.33,-0.7 -2.59,-3.6 -1.79,-6.2 0.78,-2.6 2.3,-5.3 3.86,-7.3 m 15.87,32.1 c -0.45,1.5 0.38,3 1.86,3.5 1.5,0.5 3.06,-0.4 3.51,-1.9 0.46,-1.5 -0.38,-3 -1.87,-3.5 -1.48,-0.4 -3.04,0.4 -3.5,1.9 m -3.28,-3.2 -23.97,-7.3 -1.21,4 23.97,7.3 1.21,-4 m -26.17,11.5 c 0.94,-3 2.57,-2.7 4.4,-2.1 l 29.06,8.8 1.26,-4.1 -30.51,-9.3 c -3.38,-1 -6.35,0.4 -7.33,3.6 -0.71,2.4 -0.52,4.2 -0.27,5.2 l 3.04,0 c 0.04,-0.7 0.06,-1.1 0.35,-2.1 m 7.41,50.7 c 7.37,2.2 11.69,-1.4 14.01,-9 l 3.33,-11 -34.43,-10.5 -1.25,4.2 14.18,4.3 -1.28,4.2 c -2.59,8.5 -2.51,15.4 5.44,17.8 m -1.93,-16.3 1.39,-4.6 12.99,3.9 -1.39,4.6 c -1.82,6 -3.92,10 -9.54,8.3 -5.87,-1.8 -5.25,-6.3 -3.45,-12.2 m -27.33,24.2 c -2.25,7.4 1.59,13.4 9.01,15.6 7.56,2.3 13.67,-0.3 15.96,-7.8 2.29,-7.5 -1.38,-13.3 -8.94,-15.6 -7.46,-2.3 -13.75,0.3 -16.03,7.8 m 21.68,6.8 c -1.48,4.9 -6.59,6.2 -11.52,4.7 -5.03,-1.6 -8.42,-5.4 -6.93,-10.3 1.55,-5.1 6.43,-6.5 11.54,-4.9 5.04,1.5 8.46,5.4 6.91,10.5 m -25.45,18.8 c 0.93,-3.1 2.56,-2.7 4.4,-2.1 l 29.06,8.8 1.26,-4.1 -30.51,-9.3 c -3.38,-1 -6.35,0.4 -7.33,3.6 -0.72,2.4 -0.52,4.2 -0.27,5.2 l 3.03,0 c 0.05,-0.7 0.07,-1.1 0.36,-2.1 m 13.48,30.2 -17.65,-13.4 22.13,-1.3 1.32,-4.4 -28.15,2 -10.26,-8.1 -1.26,4.2 32.68,24.9 1.19,-3.9 m -22.18,6.5 c 0.54,-1.8 -0.37,-3.5 -2.11,-4 -1.44,-0.4 -2.64,-0.1 -3.57,1.2 -1.15,-1 -2.58,-2.4 -4.22,-4.2 l -1.53,1.3 c 1.17,2.8 3.27,6.6 6.88,7.7 2.05,0.6 3.96,-0.1 4.55,-2 m -16.42,32.5 c -0.67,2.2 -0.93,4.7 -0.73,7.4 l 3.12,-0.1 c -0.09,-1.7 0.08,-3.3 0.56,-4.9 1.8,-5.9 5.88,-8 12.34,-6.1 5.62,1.7 7.78,5.6 6.02,11.3 -0.56,1.9 -1.36,3.4 -2.46,4.7 l 2.74,1.9 c 1.51,-1.7 2.6,-3.7 3.22,-5.7 2.47,-8.1 -1.39,-14.2 -9.01,-16.5 -7.61,-2.3 -13.5,0.4 -15.8,8 m 4.29,19.3 15.17,4.6 1.26,-4.1 -16.16,-5 c -5.08,-1.5 -9.18,0.4 -10.72,5.4 -0.78,2.6 -0.8,5.7 -0.14,9.2 l -2.23,0.4 -0.86,2.8 23.98,7.3 1.25,-4.1 -19.19,-5.9 c -0.41,-2.7 -0.34,-5.1 0.27,-7.1 1.21,-4 3.35,-4.8 7.37,-3.5 m -18.7,28.1 c -0.52,1.7 -0.65,3.5 -0.51,5.5 l 3.13,0.1 c -0.04,-0.8 -0.01,-2 0.43,-3.4 0.94,-3.1 2.8,-3.3 5.98,-2.3 l 12.95,3.9 -2.39,7.9 3.27,1 2.39,-7.9 6.82,2.1 1.06,-4.2 -6.62,-2 1.22,-4 -3.27,-1 -1.23,4 -13.24,-4 c -5.07,-1.6 -8.48,-0.7 -9.99,4.3 m 24.99,33.5 -3.62,0.7 c 0.75,2.5 1.55,5.3 0.46,8.8 -1.27,4.2 -4.3,6.5 -8.49,5.2 -4.83,-1.4 -7.97,-6.6 -17.64,-22.7 l -2.69,-0.8 -6.21,20.4 3.64,1.1 4.45,-14.7 c 9.71,16 12.52,19.4 17.2,20.9 6.02,1.8 11.32,-1.5 13.17,-7.6 1.49,-4.9 0.79,-7.4 -0.27,-11.3"
         id="path4392"
         inkscape:connector-curvature="0"
         style="fill-rule:evenodd" />
    </g>
  </g>
  <g
     style="font-style:normal;font-weight:400;font-size:10.66670036px;font-family:Arial;fill:none;fill-rule:evenodd;stroke:#000000;stroke-width:1.51180995;stroke-linecap:round;stroke-linejoin:round;stroke-opacity:1"
     id="g4394"
     font-style="normal"
     font-weight="400"
     font-size="10.6667"
     transform="translate(-52.617257,-20.516523)" />
  <g
     style="font-style:normal;font-weight:400;font-size:10.66670036px;font-family:Arial;fill:none;fill-rule:evenodd;stroke:#000000;stroke-width:1.51180995;stroke-linecap:round;stroke-linejoin:round;stroke-opacity:1"
     id="g4396"
     font-style="normal"
     font-weight="400"
     font-size="10.6667"
     transform="translate(-52.617257,-20.516523)" />
</svg>
