<?xml version="1.0" encoding="UTF-8" standalone="no"?>
<svg width="609.6mm" height="1944.16mm"
 viewBox="0 0 2304 7348"
 xmlns="http://www.w3.org/2000/svg" xmlns:xlink="http://www.w3.org/1999/xlink"  version="1.2" baseProfile="tiny">
<title>Valentina. Pattern layout</title>
<defs>
</defs>
<g fill="none" stroke="black" stroke-width="1" fill-rule="evenodd" stroke-linecap="square" stroke-linejoin="bevel" >

<g fill="none" stroke="#000000" stroke-opacity="1" stroke-width="1.51181" stroke-linecap="round" stroke-linejoin="round" transform="matrix(1,0,0,1,0,0)"
font-family="Arial" font-size="10.6667" font-weight="400" font-style="normal" 
>
</g>

<g fill="none" stroke="#000000" stroke-opacity="1" stroke-width="1.51181" stroke-linecap="round" stroke-linejoin="round" transform="matrix(1,0,0,1,0,0)"
font-family="Arial" font-size="10.6667" font-weight="400" font-style="normal" 
>
</g>

<g fill="none" stroke="#000000" stroke-opacity="1" stroke-width="1.51181" stroke-linecap="round" stroke-linejoin="round" transform="matrix(1,0,0,1,0,0)"
font-family="Arial" font-size="10.6667" font-weight="400" font-style="normal" 
>
</g>

<g fill="none" stroke="#000000" stroke-opacity="1" stroke-width="1" stroke-linecap="square" stroke-linejoin="bevel" transform="matrix(1,0,0,1,0,0)"
font-family="Arial" font-size="10.6667" font-weight="400" font-style="normal" 
>
<path vector-effect="none" fill-rule="nonzero" d="M2192,61 L1634,925 L1317,1417 L1104,1749 L971,1957 L845,2154 L726,2343 L613,2524 L504,2699 L400,2868 L299,3033 L200,3196 L104,3357 L56,3438 L265,132 L2192,61 M2299,0 L1681,956 L1364,1448 L1151,1780 L1019,1987 L893,2185 L774,2373 L661,2554 L552,2728 L448,2898 L347,3063 L249,3225 L152,3386 L48,3562 L269,76 L2299,0"/>
</g>

<g fill="none" stroke="#000000" stroke-opacity="1" stroke-width="1.51181" stroke-linecap="round" stroke-linejoin="round" transform="matrix(1,0,0,1,0,0)"
font-family="Arial" font-size="10.6667" font-weight="400" font-style="normal" 
>
</g>

<g fill="none" stroke="#000000" stroke-opacity="1" stroke-width="1.51181" stroke-linecap="round" stroke-linejoin="round" transform="matrix(1,0,0,1,0,0)"
font-family="Arial" font-size="10.6667" font-weight="400" font-style="normal" 
>
</g>

<g fill="#000000" fill-opacity="1" stroke="#000000" stroke-opacity="1" stroke-width="1" stroke-linecap="square" stroke-linejoin="bevel" transform="matrix(1,0,0,1,0,0)"
font-family="Arial" font-size="10.6667" font-weight="400" font-style="normal" 
>
<path vector-effect="none" fill-rule="evenodd" d="M1167.91,557.188 C1167.91,564.75 1173.95,568.594 1183.09,568.594 L1198.09,568.594 L1198.09,525 L1184.17,525 C1176.8,525 1171.69,526.203 1168.8,528.594 C1165.89,530.984 1164.39,533.688 1164.39,536.969 C1164.39,542.953 1168.36,547.297 1173.45,548.375 C1169.61,549.953 1167.91,553.422 1167.91,557.188 M1184.55,561.484 C1179.12,561.484 1175.53,560.594 1175.53,556.688 C1175.53,552.531 1179.31,551.594 1184.55,551.594 L1190.34,551.594 L1190.34,561.484 L1184.55,561.484 M1185.11,544.469 C1178.38,544.469 1172.19,543.594 1172.19,538.422 C1172.19,532.5 1178.38,532.125 1185.11,532.125 L1190.34,532.125 L1190.34,544.469 L1185.11,544.469 M1138.62,532.125 L1138.62,568.594 L1146.19,568.594 L1159.09,562.859 L1156.64,556.688 L1146.38,561.234 L1146.38,532.125 L1158.03,532.125 L1158.03,525 L1128.09,525 L1128.09,532.125 L1138.62,532.125"/>
</g>

<g fill="none" stroke="#000000" stroke-opacity="1" stroke-width="1.51181" stroke-linecap="round" stroke-linejoin="round" transform="matrix(1,0,0,1,0,0)"
font-family="Arial" font-size="10.6667" font-weight="400" font-style="normal" 
>
</g>

<g fill="none" stroke="#000000" stroke-opacity="1" stroke-width="1.51181" stroke-linecap="round" stroke-linejoin="round" transform="matrix(1,0,0,1,0,0)"
font-family="Arial" font-size="10.6667" font-weight="400" font-style="normal" 
>
</g>

<g fill="#000000" fill-opacity="1" stroke="#000000" stroke-opacity="1" stroke-width="1" stroke-linecap="square" stroke-linejoin="bevel" transform="matrix(1,0,0,1,0,0)"
font-family="Arial" font-size="10.6667" font-weight="400" font-style="normal" 
>
<path vector-effect="none" fill-rule="evenodd" d="M1222.61,480.156 C1222.61,487.234 1228.27,490.828 1236.83,490.828 L1250.88,490.828 L1250.88,450 L1237.83,450 C1230.92,450 1226.14,451.125 1223.44,453.359 C1220.72,455.609 1219.3,458.141 1219.3,461.219 C1219.3,466.812 1223.02,470.891 1227.8,471.891 C1224.2,473.359 1222.61,476.609 1222.61,480.156 M1238.19,484.172 C1233.11,484.172 1229.75,483.344 1229.75,479.688 C1229.75,475.781 1233.28,474.906 1238.19,474.906 L1243.61,474.906 L1243.61,484.172 L1238.19,484.172 M1238.72,468.234 C1232.41,468.234 1226.62,467.406 1226.62,462.562 C1226.62,457.016 1232.41,456.672 1238.72,456.672 L1243.61,456.672 L1243.61,468.234 L1238.72,468.234 M1189.69,467.531 C1189.69,475.719 1193.88,479.031 1202.72,479.031 C1205.2,479.031 1208.39,478.375 1212.28,477.078 L1211.16,472.125 C1208.5,473.125 1206.08,473.656 1203.84,473.656 C1198.47,473.656 1196.94,472.422 1196.94,467.406 L1202.78,467.109 C1209.39,466.75 1214.75,464.219 1214.75,457.906 C1214.75,452.484 1210.22,449.406 1204.55,449.406 C1201.19,449.406 1198.41,450.297 1196.17,452 L1195.34,450 L1189.69,450 L1189.69,467.531 M1196.94,456.438 C1198.47,455.484 1200.19,454.781 1202.78,454.781 C1205.38,454.781 1207.5,455.906 1207.5,458.438 C1207.5,460.625 1205.67,461.859 1201.95,462.031 L1196.94,462.391 L1196.94,456.438 M1176.5,464.219 C1176.5,469.766 1173.44,473.422 1167.66,473.422 C1164.17,473.422 1162.81,472.891 1159.86,471.719 L1157.86,476.438 C1161.33,478.094 1163.88,479.031 1168.83,479.031 C1177.97,479.031 1183.75,473.312 1183.75,464.219 C1183.75,455.375 1177.8,449.406 1168.83,449.406 C1164.05,449.406 1160.92,450.469 1157.86,452.188 L1159.86,456.844 C1162.81,455.672 1164.17,455.141 1167.66,455.141 C1173.2,455.141 1176.5,458.906 1176.5,464.219 M1144.78,492.359 L1152.05,492.359 L1152.05,450 L1144.78,450 L1144.78,492.359 M1133.05,478.375 L1144.2,465.703 L1132.39,450 L1123.95,450 L1135.77,465.703 L1124.61,478.375 L1133.05,478.375 M1085.64,456.672 L1085.64,490.828 L1092.72,490.828 L1104.81,485.469 L1102.52,479.688 L1092.89,483.922 L1092.89,456.672 L1103.81,456.672 L1103.81,450 L1075.78,450 L1075.78,456.672 L1085.64,456.672"/>
</g>

<g fill="none" stroke="#000000" stroke-opacity="1" stroke-width="1.51181" stroke-linecap="round" stroke-linejoin="round" transform="matrix(1,0,0,1,0,0)"
font-family="Arial" font-size="10.6667" font-weight="400" font-style="normal" 
>
</g>

<g fill="none" stroke="#000000" stroke-opacity="1" stroke-width="1.51181" stroke-linecap="round" stroke-linejoin="round" transform="matrix(1,0,0,1,0,0)"
font-family="Arial" font-size="10.6667" font-weight="400" font-style="normal" 
>
</g>

<g fill="#000000" fill-opacity="1" stroke="#000000" stroke-opacity="1" stroke-width="1" stroke-linecap="square" stroke-linejoin="bevel" transform="matrix(1,0,0,1,0,0)"
font-family="Arial" font-size="10.6667" font-weight="400" font-style="normal" 
>
<path vector-effect="none" fill-rule="evenodd" d="M1330.56,382.016 L1331.88,378.422 C1329.38,377.406 1325.61,376.375 1321.33,376.375 C1314.83,376.375 1310.95,379.844 1310.95,383.781 C1310.95,387.828 1312.95,389.891 1318.14,392.047 C1322.98,394.109 1326.47,394.781 1326.47,397.75 C1326.47,399.969 1323.55,401.234 1319.5,401.234 C1316.83,401.234 1314.61,400.438 1313.23,399.859 L1312.05,403.344 C1314.27,404.359 1316.89,405.156 1320.02,405.156 C1325.61,405.156 1331.19,403.109 1331.19,397.469 C1331.19,392.734 1327.38,391.141 1325.16,390.219 C1318.2,387.266 1315.69,386.812 1315.69,384.188 C1315.69,381.5 1318.66,380.312 1321.67,380.312 C1324.58,380.312 1327.89,381.047 1330.56,382.016 M1301.23,408.922 C1299.52,408.922 1298.16,410.297 1298.16,412 C1298.16,413.719 1299.52,415.078 1301.23,415.078 C1302.94,415.078 1304.31,413.719 1304.31,412 C1304.31,410.297 1302.94,408.922 1301.23,408.922 M1303.52,404.484 L1303.52,377 L1298.95,377 L1298.95,404.484 L1303.52,404.484 M1282.12,380.703 C1285.66,380.703 1285.78,382.531 1285.78,384.641 L1285.78,417.938 L1290.52,417.938 L1290.52,382.984 C1290.52,379.109 1288.11,376.438 1284.41,376.438 C1281.73,376.438 1279.84,377.234 1278.88,377.797 L1279.84,380.984 C1280.59,380.812 1281.05,380.703 1282.12,380.703 M1231.14,404.641 C1231.14,413.078 1236.39,416.453 1245.11,416.453 L1257.66,416.453 L1257.66,377 L1252.92,377 L1252.92,393.25 L1248.08,393.25 C1238.33,393.25 1231.14,395.531 1231.14,404.641 M1247.67,397.406 L1252.92,397.406 L1252.92,412.281 L1247.67,412.281 C1240.84,412.281 1235.94,411.375 1235.94,404.938 C1235.94,398.203 1240.89,397.406 1247.67,397.406 M1213.42,376.484 C1204.94,376.484 1199.91,382.422 1199.91,390.906 C1199.91,399.578 1204.59,405.156 1213.2,405.156 C1221.8,405.156 1226.77,399.453 1226.77,390.797 C1226.77,382.25 1221.97,376.484 1213.42,376.484 M1213.2,401.406 C1207.61,401.406 1204.64,396.438 1204.64,390.797 C1204.64,385.031 1207.55,380.25 1213.2,380.25 C1219.02,380.25 1222.03,384.922 1222.03,390.797 C1222.03,396.547 1219.02,401.406 1213.2,401.406 M1185.12,380.703 C1188.66,380.703 1188.78,382.531 1188.78,384.641 L1188.78,417.938 L1193.52,417.938 L1193.52,382.984 C1193.52,379.109 1191.11,376.438 1187.41,376.438 C1184.73,376.438 1182.84,377.234 1181.88,377.797 L1182.84,380.984 C1183.59,380.812 1184.05,380.703 1185.12,380.703 M1158.23,404.484 L1166.67,381.672 L1175.11,404.484 L1180.08,404.484 L1169.02,375.578 L1174.27,362.234 L1169.47,362.234 L1153.73,404.484 L1158.23,404.484 M1144.97,383.266 C1147.03,383.266 1148.45,381.781 1148.45,379.797 C1148.45,378.141 1147.72,377 1146.06,376.438 C1146.8,374.891 1147.77,372.953 1149.08,370.672 L1147.25,369.469 C1144.75,371.578 1141.39,375 1141.39,379.172 C1141.39,381.5 1142.75,383.266 1144.97,383.266 M1105.31,376.438 C1102.8,376.438 1100.12,376.938 1097.33,378.031 L1098.41,381.281 C1100.12,380.656 1101.89,380.312 1103.72,380.312 C1110.5,380.312 1114.03,383.891 1114.03,391.312 C1114.03,397.75 1110.72,401.234 1104.11,401.234 C1102,401.234 1100.12,400.891 1098.41,400.141 L1097.27,403.625 C1099.61,404.641 1102,405.156 1104.34,405.156 C1113.64,405.156 1118.77,399.172 1118.77,390.453 C1118.77,381.734 1113.97,376.438 1105.31,376.438 M1086.78,387.094 L1086.78,404.484 L1091.52,404.484 L1091.52,385.953 C1091.52,380.141 1088.27,376.438 1082.45,376.438 C1079.48,376.438 1076.28,377.406 1072.75,379.219 L1071.67,377 L1068.42,377 L1068.42,404.484 L1073.16,404.484 L1073.16,382.469 C1075.95,381.156 1078.45,380.484 1080.73,380.484 C1085.3,380.484 1086.78,382.469 1086.78,387.094 M1051.05,376.438 C1049.11,376.438 1047.17,376.891 1045.06,377.688 L1045.97,380.984 C1046.77,380.703 1048.03,380.359 1049.67,380.359 C1053.22,380.359 1054.02,382.25 1054.02,385.891 L1054.02,400.719 L1045,400.719 L1045,404.484 L1054.02,404.484 L1054.02,412.281 L1058.75,412.062 L1058.75,404.484 L1063.36,404.484 L1063.36,400.719 L1058.75,400.719 L1058.75,385.547 C1058.75,379.734 1056.75,376.438 1051.05,376.438 M1023,413.375 L1021.11,409.781 C1018.72,411.375 1016.09,413.078 1012,413.078 C1007.2,413.078 1003.84,410.641 1003.84,405.844 C1003.84,400.312 1008.28,395.359 1022.08,380.078 L1022.08,377 L998.719,377 L998.719,381.156 L1015.47,381.156 C1001.84,396.438 999.109,400.484 999.109,405.844 C999.109,412.75 1004.3,417.25 1011.25,417.25 C1016.84,417.25 1019.3,415.703 1023,413.375 "/>
</g>

<g fill="none" stroke="#000000" stroke-opacity="1" stroke-width="1.51181" stroke-linecap="round" stroke-linejoin="round" transform="matrix(1,0,0,1,0,0)"
font-family="Arial" font-size="10.6667" font-weight="400" font-style="normal" 
>
</g>

<g fill="none" stroke="#000000" stroke-opacity="1" stroke-width="1.51181" stroke-linecap="round" stroke-linejoin="round" transform="matrix(1,0,0,1,0,0)"
font-family="Arial" font-size="10.6667" font-weight="400" font-style="normal" 
>
</g>

<g fill="none" stroke="#000000" stroke-opacity="1" stroke-width="1" stroke-linecap="square" stroke-linejoin="bevel" transform="matrix(1,0,0,1,0,0)"
font-family="Arial" font-size="10.6667" font-weight="400" font-style="normal" 
>
<path vector-effect="none" fill-rule="nonzero" d="M340.002,7138.74 L421.72,3626.03 L457.074,3713.06 L527.782,3887.13 L601.431,4062.36 L676.915,4240.7 L755.18,4423.19 L837.114,4611.88 L922.665,4807.79 L1012.78,5011.95 L1107.34,5226.37 L1208.36,5451.15 L1370.15,5811.4 L1610.74,6344.17 L2035.77,7281.47 L1730.86,7252.97 L1351.23,7217.43 L1129.98,7197.46 L931.598,7180.73 L750.133,7165.91 L581.541,7153.8 L459.827,7145.21 L340.002,7138.74 M338.922,7195.76 L422.746,3570 L459.8,3570 L509.295,3691.85 L581.055,3864.97 L653.706,4040.15 L729.191,4218.49 L807.455,4400.98 L889.389,4589.67 L974.94,4785.58 L1064.11,4988.69 L1159.67,5203.16 L1259.69,5427.88 L1421.48,5788.14 L1662.07,6320.9 L2127.34,7347.51 L1725.84,7308.79 L1346.15,7274.24 L1124.91,7254.27 L926.578,7236.54 L746.058,7222.78 L577.52,7209.66 L456.75,7202.13 L338.922,7195.76"/>
</g>

<g fill="none" stroke="#000000" stroke-opacity="1" stroke-width="1.51181" stroke-linecap="round" stroke-linejoin="round" transform="matrix(1,0,0,1,0,0)"
font-family="Arial" font-size="10.6667" font-weight="400" font-style="normal" 
>
</g>

<g fill="none" stroke="#000000" stroke-opacity="1" stroke-width="1.51181" stroke-linecap="round" stroke-linejoin="round" transform="matrix(1,0,0,1,0,0)"
font-family="Arial" font-size="10.6667" font-weight="400" font-style="normal" 
>
</g>

<g fill="#000000" fill-opacity="1" stroke="#000000" stroke-opacity="1" stroke-width="1" stroke-linecap="square" stroke-linejoin="bevel" transform="matrix(1,0,0,1,0,0)"
font-family="Arial" font-size="10.6667" font-weight="400" font-style="normal" 
>
<path vector-effect="none" fill-rule="evenodd" d="M897.005,6227.36 C902.029,6227.63 905.307,6228.95 909.263,6230.73 L912.583,6223.17 L911.619,6222.75 C907.229,6220.89 903.398,6219.68 897.157,6219.34 C887.297,6218.81 878.412,6222.81 877.898,6232.31 C877.365,6242.17 885.084,6245.28 892.68,6248.03 C896.655,6249.47 903.917,6252.05 903.702,6256.03 C903.442,6260.85 897.39,6262.23 892.147,6261.95 C888.606,6261.76 884.197,6260.52 878.847,6258.18 L877.521,6257.53 L874.131,6264.95 L875.239,6265.59 C880.663,6268.01 884.194,6269.55 891.013,6269.91 C902.137,6270.51 911.865,6266.85 912.424,6256.5 C912.953,6246.72 905.079,6243.59 897.486,6240.77 C893.787,6239.43 886.412,6236.62 886.6,6233.14 C886.854,6228.46 891.904,6227.09 897.005,6227.36 M920.897,6225.68 L924.2,6232.89 C927.654,6230.94 930.94,6229.2 936.261,6229.48 C941.721,6229.78 944.856,6232.3 944.599,6237.05 C944.319,6242.23 938.483,6248.88 920.319,6265.32 L920.024,6270.78 L951.93,6272.5 L952.34,6264.92 L933.259,6263.89 C949.17,6248.6 952.98,6243.83 953.34,6237.17 C953.822,6228.24 946.897,6222.03 937.614,6221.53 C929.891,6221.11 925.871,6223.1 920.897,6225.68 "/>
</g>

<g fill="none" stroke="#000000" stroke-opacity="1" stroke-width="1.51181" stroke-linecap="round" stroke-linejoin="round" transform="matrix(1,0,0,1,0,0)"
font-family="Arial" font-size="10.6667" font-weight="400" font-style="normal" 
>
</g>

<g fill="none" stroke="#000000" stroke-opacity="1" stroke-width="1.51181" stroke-linecap="round" stroke-linejoin="round" transform="matrix(1,0,0,1,0,0)"
font-family="Arial" font-size="10.6667" font-weight="400" font-style="normal" 
>
</g>

<g fill="#000000" fill-opacity="1" stroke="#000000" stroke-opacity="1" stroke-width="1" stroke-linecap="square" stroke-linejoin="bevel" transform="matrix(1,0,0,1,0,0)"
font-family="Arial" font-size="10.6667" font-weight="400" font-style="normal" 
>
<path vector-effect="none" fill-rule="evenodd" d="M838.509,6311.7 C843.267,6311.96 846.345,6313.21 850.088,6314.88 L853.228,6307.74 L852.311,6307.35 C848.165,6305.59 844.549,6304.46 838.651,6304.14 C829.353,6303.63 820.965,6307.41 820.481,6316.36 C819.978,6325.66 827.267,6328.61 834.434,6331.21 C838.195,6332.56 845.041,6335.01 844.839,6338.76 C844.593,6343.3 838.89,6344.6 833.928,6344.33 C830.589,6344.15 826.427,6342.99 821.383,6340.77 L820.132,6340.17 L816.938,6347.17 L817.985,6347.77 C823.088,6350.05 826.436,6351.52 832.848,6351.86 C843.364,6352.43 852.533,6348.97 853.061,6339.2 C853.56,6329.96 846.146,6327.01 838.968,6324.34 C835.483,6323.09 828.508,6320.43 828.685,6317.15 C828.923,6312.73 833.703,6311.44 838.509,6311.7 M866.147,6316.83 C868.753,6316.97 871.22,6314.75 871.361,6312.13 C871.502,6309.53 869.288,6307.06 866.683,6306.92 C864.062,6306.78 861.595,6308.99 861.454,6311.6 C861.312,6314.22 863.526,6316.69 866.147,6316.83 M861.913,6320.48 L860.173,6352.67 L868.208,6353.1 L869.948,6320.91 L861.913,6320.48 M876.092,6337.22 C875.536,6347.52 881.527,6354.49 891.84,6355.05 C894.774,6355.21 897.77,6354.5 900.727,6353.04 L901.176,6354.88 L907.058,6355.2 L909.654,6307.16 L901.494,6306.72 L900.605,6323.18 C898.642,6322.14 896.121,6321.59 892.985,6321.42 C883.421,6320.91 876.628,6327.31 876.092,6337.22 M893.588,6348.78 C887.019,6348.42 883.927,6344.83 884.289,6338.13 C884.676,6330.97 888.085,6327.54 894.513,6327.89 C896.713,6328.01 898.646,6328.44 900.276,6329.27 L899.291,6347.47 C897.565,6348.44 895.663,6348.89 893.588,6348.78 M931.055,6323.48 C921.896,6322.99 915.53,6330.17 915.028,6339.47 C914.464,6349.91 920.548,6356.6 931.376,6357.19 C935.402,6357.41 939.248,6356.88 943,6355.8 L941.891,6350.25 C939.11,6350.75 936.08,6350.93 932.804,6350.76 C926.641,6350.42 923.299,6347.69 923.103,6342.64 L945.258,6343.84 L945.427,6340.7 C945.995,6330.2 941.165,6324.03 931.055,6323.48 M923.612,6336.97 C924.061,6332.43 926.763,6329.63 930.851,6329.85 C935.391,6330.1 937.808,6332.58 937.53,6337.73 L923.612,6336.97 M971.373,6316.07 L974.494,6322.89 C977.754,6321.05 980.863,6319.4 985.872,6319.67 C991.036,6319.95 993.99,6322.33 993.748,6326.81 C993.484,6331.69 987.981,6337.97 970.837,6353.48 L970.559,6358.63 L1000.66,6360.26 L1001.04,6353.1 L983.053,6352.13 C998.056,6337.71 1001.65,6333.21 1001.99,6326.92 C1002.44,6318.48 995.922,6312.64 987.153,6312.16 C979.867,6311.77 976.073,6313.65 971.373,6316.07 "/>
</g>

<g fill="none" stroke="#000000" stroke-opacity="1" stroke-width="1.51181" stroke-linecap="round" stroke-linejoin="round" transform="matrix(1,0,0,1,0,0)"
font-family="Arial" font-size="10.6667" font-weight="400" font-style="normal" 
>
</g>

<g fill="none" stroke="#000000" stroke-opacity="1" stroke-width="1.51181" stroke-linecap="round" stroke-linejoin="round" transform="matrix(1,0,0,1,0,0)"
font-family="Arial" font-size="10.6667" font-weight="400" font-style="normal" 
>
</g>

<g fill="#000000" fill-opacity="1" stroke="#000000" stroke-opacity="1" stroke-width="1" stroke-linecap="square" stroke-linejoin="bevel" transform="matrix(1,0,0,1,0,0)"
font-family="Arial" font-size="10.6667" font-weight="400" font-style="normal" 
>
<path vector-effect="none" fill-rule="evenodd" d="M716.206,6422.28 L714.487,6426.29 C717.279,6427.61 721.506,6429.01 726.374,6429.28 C733.77,6429.67 738.399,6425.95 738.641,6421.47 C738.89,6416.87 736.754,6414.41 730.974,6411.62 C725.578,6408.98 721.672,6407.99 721.855,6404.62 C721.992,6402.08 725.376,6400.84 729.979,6401.08 C733.037,6401.25 735.516,6402.29 737.041,6403.03 L738.612,6399.14 C736.148,6397.84 733.201,6396.77 729.644,6396.58 C723.278,6396.23 716.786,6398.23 716.438,6404.66 C716.147,6410.04 720.403,6412.08 722.874,6413.27 C730.617,6417.06 733.445,6417.73 733.283,6420.73 C733.118,6423.77 729.674,6424.96 726.226,6424.78 C722.918,6424.6 719.204,6423.55 716.206,6422.28 M750.486,6393.4 C752.421,6393.5 754.066,6392.03 754.17,6390.09 C754.276,6388.14 752.8,6386.5 750.865,6386.39 C748.915,6386.29 747.27,6387.76 747.165,6389.71 C747.06,6391.65 748.536,6393.29 750.486,6393.4 M747.607,6398.33 L745.916,6429.61 L751.111,6429.89 L752.802,6398.61 L747.607,6398.33 M769.672,6426.67 C765.646,6426.45 765.634,6424.36 765.763,6421.97 L767.813,6384.06 L762.414,6383.76 L760.264,6423.55 C760.025,6427.96 762.59,6431.17 766.803,6431.4 C769.861,6431.56 772.048,6430.76 773.19,6430.18 L772.279,6426.48 C771.427,6426.62 770.904,6426.74 769.672,6426.67 M828.702,6402.51 C829.221,6392.91 823.453,6388.75 813.53,6388.22 L799.254,6387.44 L796.826,6432.36 L802.208,6432.65 L803.209,6414.15 L808.732,6414.45 C819.825,6415.05 828.141,6412.9 828.702,6402.51 M809.44,6409.75 L803.464,6409.42 L804.38,6392.48 L810.356,6392.8 C818.141,6393.22 823.671,6394.55 823.274,6401.9 C822.861,6409.55 817.163,6410.16 809.44,6409.75 M847.517,6435.68 C857.191,6436.21 863.265,6429.77 863.788,6420.1 C864.321,6410.24 859.345,6403.59 849.547,6403.06 C839.749,6402.53 833.75,6408.71 833.217,6418.57 C832.691,6428.31 837.782,6435.16 847.517,6435.68 M849.316,6407.33 C855.682,6407.68 858.746,6413.51 858.399,6419.93 C858.045,6426.49 854.442,6431.77 848.014,6431.42 C841.383,6431.06 838.238,6425.56 838.6,6418.86 C838.954,6412.31 842.685,6406.97 849.316,6407.33 M880.51,6432.66 C876.484,6432.44 876.473,6430.35 876.602,6427.96 L878.651,6390.05 L873.253,6389.75 L871.102,6429.54 C870.863,6433.96 873.428,6437.16 877.641,6437.39 C880.699,6437.55 882.886,6436.75 884.029,6436.17 L883.117,6432.47 C882.265,6432.62 881.742,6432.73 880.51,6432.66 M912.335,6407.23 L901.336,6432.68 L893.129,6406.2 L887.481,6405.89 L898.293,6439.48 L891.497,6454.33 L896.957,6454.63 L917.468,6407.51 L912.335,6407.23 M927.069,6432.24 C924.729,6432.11 923.014,6433.72 922.892,6435.99 C922.79,6437.87 923.563,6439.21 925.415,6439.97 C924.478,6441.67 923.251,6443.81 921.628,6446.34 L923.63,6447.81 C926.615,6445.56 930.648,6441.88 930.904,6437.14 C931.048,6434.47 929.597,6432.37 927.069,6432.24 M971.457,6442.46 C974.328,6442.62 977.402,6442.19 980.652,6441.13 L979.619,6437.36 C977.63,6437.97 975.596,6438.26 973.521,6438.14 C965.798,6437.73 961.994,6433.42 962.45,6424.98 C962.846,6417.65 966.821,6413.89 974.357,6414.29 C976.759,6414.42 978.876,6414.93 980.781,6415.88 L982.29,6411.98 C979.701,6410.67 977.001,6409.95 974.333,6409.8 C963.755,6409.23 957.551,6415.73 957.015,6425.66 C956.478,6435.59 961.597,6441.93 971.457,6442.46 M993.582,6431.48 L994.652,6411.68 L989.254,6411.39 L988.114,6432.49 C987.756,6439.1 991.225,6443.53 997.856,6443.89 C1001.23,6444.07 1004.92,6443.16 1009.06,6441.3 L1010.15,6443.89 L1013.85,6444.09 L1015.54,6412.81 L1010.16,6412.52 L1008.81,6437.58 C1005.54,6438.89 1002.65,6439.51 1000.04,6439.37 C994.861,6439.09 993.298,6436.74 993.582,6431.48 M1033.26,6445.8 C1035.46,6445.92 1037.7,6445.51 1040.15,6444.73 L1039.31,6440.92 C1038.39,6441.2 1036.93,6441.51 1035.06,6441.41 C1031.03,6441.19 1030.23,6438.99 1030.45,6434.84 L1031.37,6417.96 L1041.63,6418.51 L1041.86,6414.24 L1031.6,6413.68 L1032.08,6404.79 L1026.68,6404.76 L1026.22,6413.39 L1020.96,6413.1 L1020.73,6417.38 L1025.98,6417.66 L1025.05,6434.94 C1024.69,6441.55 1026.77,6445.45 1033.26,6445.8 M1067.28,6405.45 L1069.2,6409.66 C1072.03,6407.98 1075.11,6406.21 1079.79,6406.46 C1085.24,6406.75 1088.91,6409.75 1088.62,6415.2 C1088.28,6421.49 1082.91,6426.86 1066.26,6443.41 L1066.07,6446.92 L1092.69,6448.36 L1092.95,6443.61 L1073.87,6442.58 C1090.31,6426.02 1093.68,6421.59 1094.01,6415.49 C1094.44,6407.64 1088.8,6402.19 1080.89,6401.76 C1074.53,6401.42 1071.64,6403.01 1067.28,6405.45 "/>
</g>

<g fill="none" stroke="#000000" stroke-opacity="1" stroke-width="1.51181" stroke-linecap="round" stroke-linejoin="round" transform="matrix(1,0,0,1,0,0)"
font-family="Arial" font-size="10.6667" font-weight="400" font-style="normal" 
>
</g>

<g fill="none" stroke="#000000" stroke-opacity="1" stroke-width="1.51181" stroke-linecap="round" stroke-linejoin="round" transform="matrix(1,0,0,1,0,0)"
font-family="Arial" font-size="10.6667" font-weight="400" font-style="normal" 
>
</g>
</g>
</svg>
